InterAlia-Thin.ufo
<glyph name="exclam" format="2">
  <advance height="2479" width="535"/>
  <unicode hex="0021"/>
  <outline>
    <contour>
      <point x="291" y="1489" type="line"/>
      <point x="244" y="1489" type="line"/>
      <point x="244" y="442" type="line"/>
      <point x="291" y="442" type="line"/>
    </contour>
    <component base="period" xOffset="9"/>
  </outline>
</glyph>
<glyph name="asterisk" format="2">
  <advance height="2479" width="1024"/>
  <unicode hex="002A"/>
  <outline>
    <contour>
      <point x="489" y="652" type="line"/>
      <point x="535" y="652" type="line"/>
      <point x="535" y="1030" type="line"/>
      <point x="864" y="841" type="line"/>
      <point x="887" y="881" type="line"/>
      <point x="559" y="1071" type="line"/>
      <point x="887" y="1260" type="line"/>
      <point x="864" y="1300" type="line"/>
      <point x="535" y="1111" type="line"/>
      <point x="535" y="1489" type="line"/>
      <point x="489" y="1489" type="line"/>
      <point x="489" y="1111" type="line"/>
      <point x="160" y="1300" type="line"/>
      <point x="137" y="1260" type="line"/>
      <point x="465" y="1071" type="line"/>
      <point x="137" y="881" type="line"/>
      <point x="160" y="841" type="line"/>
      <point x="489" y="1030" type="line"/>
    </contour>
  </outline>
</glyph>
<glyph name="comma" format="2">
  <advance height="2479" width="526"/>
  <unicode hex="002C"/>
  <outline>
    <contour>
      <point x="332" y="204" type="line"/>
      <point x="282" y="204" type="line"/>
      <point x="268" y="122" type="line" smooth="yes"/>
      <point x="233" y="-74"/>
      <point x="198" y="-253"/>
      <point x="177" y="-364" type="curve"/>
      <point x="215" y="-364" type="line"/>
      <point x="249" y="-254"/>
      <point x="290" y="-13"/>
      <point x="317" y="128" type="curve" smooth="yes"/>
    </contour>
  </outline>
</glyph>
<glyph name="period" format="2">
  <advance height="2479" width="518"/>
  <unicode hex="002E"/>
  <outline>
    <contour>
      <point x="259" y="-9" type="curve" smooth="yes"/>
      <point x="288" y="-9"/>
      <point x="311" y="15"/>
      <point x="311" y="44" type="curve" smooth="yes"/>
      <point x="311" y="73"/>
      <point x="288" y="96"/>
      <point x="259" y="96" type="curve" smooth="yes"/>
      <point x="230" y="96"/>
      <point x="207" y="73"/>
      <point x="207" y="44" type="curve" smooth="yes"/>
      <point x="207" y="15"/>
      <point x="230" y="-9"/>
    </contour>
  </outline>
</glyph>
<glyph name="zero" format="2">
  <advance height="2479" width="1210"/>
  <unicode hex="0030"/>
  <outline>
    <contour>
      <point x="605" y="-20" type="curve" smooth="yes"/>
      <point x="889" y="-20"/>
      <point x="1062" y="271"/>
      <point x="1062" y="745" type="curve" smooth="yes"/>
      <point x="1062" y="1219"/>
      <point x="889" y="1510"/>
      <point x="605" y="1510" type="curve" smooth="yes"/>
      <point x="321" y="1510"/>
      <point x="148" y="1219"/>
      <point x="148" y="745" type="curve" smooth="yes"/>
      <point x="148" y="271"/>
      <point x="321" y="-20"/>
    </contour>
    <contour>
      <point x="605" y="26" type="curve" smooth="yes"/>
      <point x="351" y="26"/>
      <point x="195" y="297"/>
      <point x="195" y="745" type="curve" smooth="yes"/>
      <point x="195" y="1193"/>
      <point x="351" y="1463"/>
      <point x="605" y="1463" type="curve" smooth="yes"/>
      <point x="859" y="1463"/>
      <point x="1015" y="1193"/>
      <point x="1015" y="745" type="curve" smooth="yes"/>
      <point x="1015" y="297"/>
      <point x="859" y="26"/>
    </contour>
  </outline>
</glyph>
<glyph name="three" format="2">
  <advance height="2479" width="1257"/>
  <unicode hex="0033"/>
  <outline>
    <contour>
      <point x="634" y="-20" type="curve" smooth="yes"/>
      <point x="895" y="-20"/>
      <point x="1076" y="158"/>
      <point x="1076" y="387" type="curve" smooth="yes"/>
      <point x="1076" y="576"/>
      <point x="951" y="719"/>
      <point x="756" y="768" type="curve"/>
      <point x="756" y="774" type="line"/>
      <point x="925" y="822"/>
      <point x="1033" y="954"/>
      <point x="1033" y="1129" type="curve" smooth="yes"/>
      <point x="1033" y="1347"/>
      <point x="865" y="1510"/>
      <point x="631" y="1510" type="curve" smooth="yes"/>
      <point x="397" y="1510"/>
      <point x="227" y="1347"/>
      <point x="227" y="1117" type="curve"/>
      <point x="273" y="1117" type="line"/>
      <point x="273" y="1321"/>
      <point x="423" y="1463"/>
      <point x="631" y="1463" type="curve" smooth="yes"/>
      <point x="841" y="1463"/>
      <point x="986" y="1320"/>
      <point x="986" y="1129" type="curve" smooth="yes"/>
      <point x="986" y="922"/>
      <point x="814" y="791"/>
      <point x="591" y="791" type="curve" smooth="yes"/>
      <point x="567" y="791" type="line"/>
      <point x="567" y="745" type="line"/>
      <point x="591" y="745" type="line" smooth="yes"/>
      <point x="845" y="745"/>
      <point x="1030" y="601"/>
      <point x="1030" y="387" type="curve" smooth="yes"/>
      <point x="1030" y="188"/>
      <point x="871" y="26"/>
      <point x="634" y="26" type="curve" smooth="yes"/>
      <point x="411" y="26"/>
      <point x="239" y="172"/>
      <point x="239" y="372" type="curve"/>
      <point x="192" y="372" type="line"/>
      <point x="192" y="145"/>
      <point x="383" y="-20"/>
    </contour>
  </outline>
</glyph>
<glyph name="four" format="2">
  <advance height="2479" width="1219"/>
  <unicode hex="0034"/>
  <outline>
    <contour>
      <point x="151" y="349" type="line"/>
      <point x="1068" y="349" type="line"/>
      <point x="1068" y="396" type="line"/>
      <point x="218" y="396" type="line"/>
      <point x="218" y="401" type="line"/>
      <point x="829" y="1393" type="line"/>
      <point x="864" y="1393" type="line"/>
      <point x="864" y="1489" type="line"/>
      <point x="835" y="1489" type="line"/>
      <point x="151" y="384" type="line"/>
    </contour>
    <contour>
      <point x="835" y="0" type="line"/>
      <point x="881" y="0" type="line"/>
      <point x="881" y="1489" type="line"/>
      <point x="835" y="1489" type="line"/>
      <point x="835" y="378" type="line"/>
      <point x="835" y="364" type="line"/>
    </contour>
  </outline>
</glyph>
<glyph name="six" format="2">
  <advance height="2479" width="1193"/>
  <unicode hex="0036"/>
  <outline>
    <contour>
      <point x="608" y="-20" type="curve" smooth="yes"/>
      <point x="858" y="-20"/>
      <point x="1027" y="198"/>
      <point x="1027" y="445" type="curve" smooth="yes"/>
      <point x="1027" y="710"/>
      <point x="833" y="911"/>
      <point x="599" y="911" type="curve" smooth="yes"/>
      <point x="427" y="911"/>
      <point x="265" y="803"/>
      <point x="218" y="655" type="curve"/>
      <point x="212" y="655" type="line"/>
      <point x="212" y="1177"/>
      <point x="351" y="1463"/>
      <point x="623" y="1463" type="curve" smooth="yes"/>
      <point x="818" y="1463"/>
      <point x="940" y="1321"/>
      <point x="954" y="1117" type="curve"/>
      <point x="1001" y="1117" type="line"/>
      <point x="986" y="1350"/>
      <point x="844" y="1510"/>
      <point x="623" y="1510" type="curve" smooth="yes"/>
      <point x="264" y="1510"/>
      <point x="166" y="1076"/>
      <point x="166" y="675" type="curve" smooth="yes"/>
      <point x="166" y="207"/>
      <point x="355" y="-20"/>
    </contour>
    <contour>
      <point x="608" y="26" type="curve" smooth="yes"/>
      <point x="424" y="26"/>
      <point x="285" y="163"/>
      <point x="236" y="425" type="curve" smooth="yes"/>
      <point x="192" y="658"/>
      <point x="369" y="864"/>
      <point x="596" y="864" type="curve" smooth="yes"/>
      <point x="812" y="864"/>
      <point x="980" y="681"/>
      <point x="980" y="445" type="curve" smooth="yes"/>
      <point x="980" y="215"/>
      <point x="823" y="26"/>
    </contour>
  </outline>
</glyph>
<glyph name="eight" format="2">
  <advance height="2479" width="1233"/>
  <unicode hex="0038"/>
  <outline>
    <contour>
      <point x="617" y="-20" type="curve" smooth="yes"/>
      <point x="873" y="-20"/>
      <point x="1079" y="160"/>
      <point x="1079" y="384" type="curve" smooth="yes"/>
      <point x="1079" y="561"/>
      <point x="948" y="728"/>
      <point x="765" y="768" type="curve"/>
      <point x="765" y="774" type="line"/>
      <point x="922" y="826"/>
      <point x="1030" y="969"/>
      <point x="1030" y="1132" type="curve" smooth="yes"/>
      <point x="1030" y="1345"/>
      <point x="842" y="1510"/>
      <point x="617" y="1510" type="curve" smooth="yes"/>
      <point x="388" y="1510"/>
      <point x="204" y="1343"/>
      <point x="204" y="1132" type="curve" smooth="yes"/>
      <point x="204" y="968"/>
      <point x="314" y="827"/>
      <point x="468" y="774" type="curve"/>
      <point x="468" y="768" type="line"/>
      <point x="285" y="726"/>
      <point x="154" y="561"/>
      <point x="154" y="384" type="curve" smooth="yes"/>
      <point x="154" y="160"/>
      <point x="361" y="-20"/>
    </contour>
    <contour>
      <point x="617" y="26" type="curve" smooth="yes"/>
      <point x="385" y="26"/>
      <point x="201" y="189"/>
      <point x="201" y="387" type="curve" smooth="yes"/>
      <point x="201" y="585"/>
      <point x="384" y="748"/>
      <point x="617" y="748" type="curve" smooth="yes"/>
      <point x="849" y="748"/>
      <point x="1033" y="585"/>
      <point x="1033" y="387" type="curve" smooth="yes"/>
      <point x="1033" y="189"/>
      <point x="849" y="26"/>
    </contour>
    <contour>
      <point x="617" y="788" type="curve" smooth="yes"/>
      <point x="415" y="788"/>
      <point x="250" y="946"/>
      <point x="250" y="1132" type="curve" smooth="yes"/>
      <point x="250" y="1318"/>
      <point x="415" y="1463"/>
      <point x="617" y="1463" type="curve" smooth="yes"/>
      <point x="818" y="1463"/>
      <point x="983" y="1318"/>
      <point x="983" y="1132" type="curve" smooth="yes"/>
      <point x="983" y="946"/>
      <point x="818" y="788"/>
    </contour>
  </outline>
</glyph>
<glyph name="nine" format="2">
  <advance height="2479" width="1193"/>
  <unicode hex="0039"/>
  <outline>
    <contour>
      <point x="585" y="1510" type="curve" smooth="yes"/>
      <point x="335" y="1510"/>
      <point x="166" y="1295"/>
      <point x="166" y="1047" type="curve" smooth="yes"/>
      <point x="166" y="783"/>
      <point x="358" y="582"/>
      <point x="593" y="582" type="curve" smooth="yes"/>
      <point x="765" y="582"/>
      <point x="928" y="689"/>
      <point x="975" y="838" type="curve"/>
      <point x="980" y="838" type="line"/>
      <point x="980" y="314"/>
      <point x="841" y="26"/>
      <point x="570" y="26" type="curve" smooth="yes"/>
      <point x="375" y="26"/>
      <point x="253" y="172"/>
      <point x="239" y="375" type="curve"/>
      <point x="192" y="375" type="line"/>
      <point x="207" y="143"/>
      <point x="349" y="-20"/>
      <point x="570" y="-20" type="curve" smooth="yes"/>
      <point x="931" y="-20"/>
      <point x="1027" y="416"/>
      <point x="1027" y="817" type="curve" smooth="yes"/>
      <point x="1027" y="1286"/>
      <point x="838" y="1510"/>
    </contour>
    <contour>
      <point x="585" y="1463" type="curve" smooth="yes"/>
      <point x="768" y="1463"/>
      <point x="908" y="1329"/>
      <point x="957" y="1068" type="curve" smooth="yes"/>
      <point x="1001" y="835"/>
      <point x="823" y="628"/>
      <point x="596" y="628" type="curve" smooth="yes"/>
      <point x="381" y="628"/>
      <point x="212" y="812"/>
      <point x="212" y="1047" type="curve" smooth="yes"/>
      <point x="212" y="1277"/>
      <point x="369" y="1463"/>
    </contour>
  </outline>
</glyph>
<glyph name="less" format="2">
  <advance height="2479" width="1303"/>
  <unicode hex="003C"/>
  <outline>
    <contour>
      <point x="253" y="559" type="line"/>
      <point x="1050" y="41" type="line"/>
      <point x="1050" y="96" type="line"/>
      <point x="297" y="585" type="line"/>
      <point x="305" y="570" type="line"/>
      <point x="305" y="593" type="line"/>
      <point x="297" y="579" type="line"/>
      <point x="1050" y="1068" type="line"/>
      <point x="1050" y="1123" type="line"/>
      <point x="253" y="605" type="line"/>
    </contour>
  </outline>
</glyph>
<glyph name="equal" format="2">
  <advance height="2479" width="1303"/>
  <unicode hex="003D"/>
  <outline>
    <contour>
      <point x="305" y="753" type="line"/>
      <point x="998" y="753" type="line"/>
      <point x="998" y="800" type="line"/>
      <point x="305" y="800" type="line"/>
    </contour>
    <contour>
      <point x="305" y="364" type="line"/>
      <point x="998" y="364" type="line"/>
      <point x="998" y="410" type="line"/>
      <point x="305" y="410" type="line"/>
    </contour>
  </outline>
</glyph>
<glyph name="greater" format="2">
  <advance height="2479" width="1303"/>
  <unicode hex="003E"/>
  <outline>
    <contour>
      <point x="1050" y="559" type="line"/>
      <point x="1050" y="605" type="line"/>
      <point x="253" y="1123" type="line"/>
      <point x="253" y="1068" type="line"/>
      <point x="1007" y="579" type="line"/>
      <point x="998" y="593" type="line"/>
      <point x="998" y="570" type="line"/>
      <point x="1007" y="585" type="line"/>
      <point x="253" y="96" type="line"/>
      <point x="253" y="41" type="line"/>
    </contour>
  </outline>
</glyph>
<glyph name="at" format="2">
  <advance height="2479" width="1917"/>
  <unicode hex="0040"/>
  <outline>
    <contour>
      <point x="960" y="-396" type="curve" smooth="yes"/>
      <point x="1129" y="-396"/>
      <point x="1292" y="-343"/>
      <point x="1431" y="-244" type="curve"/>
      <point x="1402" y="-207" type="line"/>
      <point x="1271" y="-300"/>
      <point x="1120" y="-349"/>
      <point x="960" y="-349" type="curve" smooth="yes"/>
      <point x="512" y="-349"/>
      <point x="148" y="38"/>
      <point x="148" y="518" type="curve" smooth="yes"/>
      <point x="148" y="998"/>
      <point x="512" y="1385"/>
      <point x="960" y="1385" type="curve" smooth="yes"/>
      <point x="1405" y="1385"/>
      <point x="1769" y="998"/>
      <point x="1769" y="518" type="curve" smooth="yes"/>
      <point x="1769" y="279"/>
      <point x="1638" y="102"/>
      <point x="1460" y="102" type="curve" smooth="yes"/>
      <point x="1373" y="102"/>
      <point x="1350" y="137"/>
      <point x="1350" y="279" type="curve" smooth="yes"/>
      <point x="1350" y="986" type="line"/>
      <point x="1303" y="986" type="line"/>
      <point x="1303" y="753" type="line"/>
      <point x="1297" y="753" type="line"/>
      <point x="1228" y="902"/>
      <point x="1094" y="1001"/>
      <point x="940" y="1001" type="curve" smooth="yes"/>
      <point x="710" y="1001"/>
      <point x="527" y="785"/>
      <point x="527" y="518" type="curve" smooth="yes"/>
      <point x="527" y="250"/>
      <point x="710" y="35"/>
      <point x="940" y="35" type="curve" smooth="yes"/>
      <point x="1094" y="35"/>
      <point x="1228" y="134"/>
      <point x="1297" y="279" type="curve"/>
      <point x="1303" y="279" type="line"/>
      <point x="1303" y="113"/>
      <point x="1344" y="55"/>
      <point x="1460" y="55" type="curve" smooth="yes"/>
      <point x="1667" y="55"/>
      <point x="1815" y="253"/>
      <point x="1815" y="518" type="curve" smooth="yes"/>
      <point x="1815" y="1024"/>
      <point x="1431" y="1431"/>
      <point x="960" y="1431" type="curve" smooth="yes"/>
      <point x="486" y="1431"/>
      <point x="102" y="1024"/>
      <point x="102" y="518" type="curve" smooth="yes"/>
      <point x="102" y="15"/>
      <point x="486" y="-396"/>
    </contour>
    <contour>
      <point x="940" y="81" type="curve" smooth="yes"/>
      <point x="739" y="81"/>
      <point x="573" y="276"/>
      <point x="573" y="518" type="curve" smooth="yes"/>
      <point x="573" y="759"/>
      <point x="739" y="954"/>
      <point x="940" y="954" type="curve" smooth="yes"/>
      <point x="1140" y="954"/>
      <point x="1303" y="759"/>
      <point x="1303" y="518" type="curve" smooth="yes"/>
      <point x="1303" y="275"/>
      <point x="1141" y="81"/>
    </contour>
  </outline>
</glyph>
<glyph name="A" format="2">
  <advance height="2479" width="1263"/>
  <unicode hex="0041"/>
  <anchor x="631" y="0" name="bottom"/>
  <anchor x="1196" y="0" name="ogonek"/>
  <anchor x="527" y="1489" name="tonos"/>
  <anchor x="631" y="1676" name="top"/>
  <outline>
    <contour>
      <point x="116" y="0" type="line"/>
      <point x="628" y="1431" type="line"/>
      <point x="634" y="1431" type="line"/>
      <point x="1146" y="0" type="line"/>
      <point x="1196" y="0" type="line"/>
      <point x="663" y="1489" type="line"/>
      <point x="599" y="1489" type="line"/>
      <point x="67" y="0" type="line"/>
    </contour>
    <contour>
      <point x="285" y="550" type="line"/>
      <point x="285" y="503" type="line"/>
      <point x="977" y="503" type="line"/>
      <point x="977" y="550" type="line"/>
    </contour>
  </outline>
</glyph>
<glyph name="B" format="2">
  <advance height="2479" width="1312"/>
  <unicode hex="0042"/>
  <anchor x="637" y="0" name="bottom"/>
  <anchor x="620" y="1676" name="top"/>
  <outline>
    <contour>
      <point x="233" y="0" type="line"/>
      <point x="748" y="0" type="line" smooth="yes"/>
      <point x="1004" y="0"/>
      <point x="1155" y="151"/>
      <point x="1155" y="381" type="curve" smooth="yes"/>
      <point x="1155" y="588"/>
      <point x="1031" y="740"/>
      <point x="870" y="753" type="curve"/>
      <point x="870" y="759" type="line"/>
      <point x="1014" y="796"/>
      <point x="1097" y="936"/>
      <point x="1097" y="1111" type="curve" smooth="yes"/>
      <point x="1097" y="1346"/>
      <point x="948" y="1489"/>
      <point x="698" y="1489" type="curve" smooth="yes"/>
      <point x="233" y="1489" type="line"/>
    </contour>
    <contour>
      <point x="279" y="47" type="line"/>
      <point x="279" y="733" type="line"/>
      <point x="748" y="733" type="line" smooth="yes"/>
      <point x="958" y="733"/>
      <point x="1108" y="588"/>
      <point x="1108" y="381" type="curve" smooth="yes"/>
      <point x="1108" y="180"/>
      <point x="966" y="47"/>
      <point x="748" y="47" type="curve" smooth="yes"/>
    </contour>
    <contour>
      <point x="279" y="780" type="line"/>
      <point x="279" y="1443" type="line"/>
      <point x="698" y="1443" type="line" smooth="yes"/>
      <point x="915" y="1443"/>
      <point x="1050" y="1323"/>
      <point x="1050" y="1111" type="curve" smooth="yes"/>
      <point x="1050" y="934"/>
      <point x="951" y="780"/>
      <point x="748" y="780" type="curve" smooth="yes"/>
    </contour>
  </outline>
</glyph>
<glyph name="C" format="2">
  <advance height="2479" width="1481"/>
  <unicode hex="0043"/>
  <anchor x="765" y="0" name="cedilla"/>
  <anchor x="765" y="1676" name="top"/>
  <outline>
    <contour>
      <point x="1335" y="1024" type="line"/>
      <point x="1299" y="1236"/>
      <point x="1116" y="1510"/>
      <point x="765" y="1510" type="curve" smooth="yes"/>
      <point x="399" y="1510"/>
      <point x="148" y="1201"/>
      <point x="148" y="745" type="curve" smooth="yes"/>
      <point x="148" y="288"/>
      <point x="399" y="-20"/>
      <point x="765" y="-20" type="curve" smooth="yes"/>
      <point x="1116" y="-20"/>
      <point x="1299" y="256"/>
      <point x="1335" y="465" type="curve"/>
      <point x="1286" y="465" type="line"/>
      <point x="1249" y="265"/>
      <point x="1069" y="26"/>
      <point x="765" y="26" type="curve" smooth="yes"/>
      <point x="460" y="26"/>
      <point x="195" y="276"/>
      <point x="195" y="745" type="curve" smooth="yes"/>
      <point x="195" y="1207"/>
      <point x="460" y="1463"/>
      <point x="765" y="1463" type="curve" smooth="yes"/>
      <point x="1069" y="1463"/>
      <point x="1249" y="1222"/>
      <point x="1286" y="1024" type="curve"/>
    </contour>
  </outline>
</glyph>
<glyph name="E" format="2">
  <advance height="2479" width="1196"/>
  <unicode hex="0045"/>
  <anchor x="599" y="0" name="bottom"/>
  <anchor x="602" y="0" name="cedilla"/>
  <anchor x="1047" y="0" name="ogonek"/>
  <anchor x="180" y="1489" name="tonos"/>
  <anchor x="634" y="1676" name="top"/>
  <outline>
    <contour>
      <point x="233" y="0" type="line"/>
      <point x="1047" y="0" type="line"/>
      <point x="1047" y="47" type="line"/>
      <point x="279" y="47" type="line"/>
      <point x="279" y="721" type="line"/>
      <point x="983" y="721" type="line"/>
      <point x="983" y="768" type="line"/>
      <point x="279" y="768" type="line"/>
      <point x="279" y="1443" type="line"/>
      <point x="1027" y="1443" type="line"/>
      <point x="1027" y="1489" type="line"/>
      <point x="233" y="1489" type="line"/>
    </contour>
  </outline>
</glyph>
<glyph name="H" format="2">
  <advance height="2479" width="1507"/>
  <unicode hex="0048"/>
  <anchor x="753" y="0" name="bottom"/>
  <anchor x="256" y="-6" name="cedilla"/>
  <anchor x="1295" y="6" name="cyrtic"/>
  <anchor x="1274" y="0" name="right"/>
  <anchor x="198" y="1489" name="tonos"/>
  <anchor x="753" y="1676" name="top"/>
  <outline>
    <contour>
      <point x="233" y="0" type="line"/>
      <point x="279" y="0" type="line"/>
      <point x="279" y="721" type="line"/>
      <point x="1228" y="721" type="line"/>
      <point x="1228" y="0" type="line"/>
      <point x="1274" y="0" type="line"/>
      <point x="1274" y="1489" type="line"/>
      <point x="1228" y="1489" type="line"/>
      <point x="1228" y="768" type="line"/>
      <point x="279" y="768" type="line"/>
      <point x="279" y="1489" type="line"/>
      <point x="233" y="1489" type="line"/>
    </contour>
  </outline>
</glyph>
<glyph name="L" format="2">
  <advance height="2479" width="1152"/>
  <unicode hex="004C"/>
  <anchor x="628" y="0" name="bottom"/>
  <anchor x="256" y="768" name="cross"/>
  <anchor x="605" y="748" name="dot"/>
  <anchor x="625" y="1489" name="raccent"/>
  <anchor x="256" y="1676" name="top"/>
  <outline>
    <contour>
      <point x="233" y="0" type="line"/>
      <point x="1024" y="0" type="line"/>
      <point x="1024" y="47" type="line"/>
      <point x="279" y="47" type="line"/>
      <point x="279" y="1489" type="line"/>
      <point x="233" y="1489" type="line"/>
    </contour>
  </outline>
</glyph>
<glyph name="R" format="2">
  <advance height="2479" width="1260"/>
  <unicode hex="0052"/>
  <anchor x="646" y="0" name="bottom"/>
  <anchor x="625" y="1676" name="top"/>
  <outline>
    <contour>
      <point x="233" y="0" type="line"/>
      <point x="279" y="0" type="line"/>
      <point x="279" y="1443" type="line"/>
      <point x="669" y="1443" type="line" smooth="yes"/>
      <point x="892" y="1443"/>
      <point x="1050" y="1293"/>
      <point x="1050" y="1065" type="curve" smooth="yes"/>
      <point x="1050" y="838"/>
      <point x="892" y="689"/>
      <point x="669" y="689" type="curve" smooth="yes"/>
      <point x="256" y="689" type="line"/>
      <point x="256" y="643" type="line"/>
      <point x="669" y="643" type="line" smooth="yes"/>
      <point x="919" y="643"/>
      <point x="1097" y="811"/>
      <point x="1097" y="1065" type="curve" smooth="yes"/>
      <point x="1097" y="1320"/>
      <point x="919" y="1489"/>
      <point x="669" y="1489" type="curve" smooth="yes"/>
      <point x="233" y="1489" type="line"/>
    </contour>
    <contour>
      <point x="800" y="678" type="line"/>
      <point x="748" y="678" type="line"/>
      <point x="1114" y="0" type="line"/>
      <point x="1167" y="0" type="line"/>
    </contour>
  </outline>
</glyph>
<glyph name="T" format="2">
  <advance height="2479" width="1257"/>
  <unicode hex="0054"/>
  <anchor x="628" y="0" name="bottom"/>
  <anchor x="628" y="-6" name="cedilla"/>
  <anchor x="628" y="768" name="cross"/>
  <anchor x="672" y="6" name="cyrtic"/>
  <anchor x="640" y="0" name="right"/>
  <anchor x="628" y="1676" name="top"/>
  <outline>
    <contour>
      <point x="125" y="1443" type="line"/>
      <point x="605" y="1443" type="line"/>
      <point x="605" y="0" type="line"/>
      <point x="652" y="0" type="line"/>
      <point x="652" y="1443" type="line"/>
      <point x="1132" y="1443" type="line"/>
      <point x="1132" y="1489" type="line"/>
      <point x="125" y="1489" type="line"/>
    </contour>
  </outline>
</glyph>
<glyph name="V" format="2">
  <advance height="2479" width="1263"/>
  <unicode hex="0056"/>
  <anchor x="631" y="0" name="bottom"/>
  <anchor x="631" y="1676" name="top"/>
  <outline>
    <contour>
      <point x="116" y="1489" type="line"/>
      <point x="67" y="1489" type="line"/>
      <point x="599" y="0" type="line"/>
      <point x="663" y="0" type="line"/>
      <point x="1196" y="1489" type="line"/>
      <point x="1146" y="1489" type="line"/>
      <point x="634" y="58" type="line"/>
      <point x="628" y="58" type="line"/>
    </contour>
  </outline>
</glyph>
<glyph name="X" format="2">
  <advance height="2479" width="1199"/>
  <unicode hex="0058"/>
  <anchor x="599" y="12" name="bottom"/>
  <anchor x="599" y="745" name="cross"/>
  <anchor x="1126" y="6" name="cyrtic"/>
  <anchor x="1079" y="0" name="right"/>
  <anchor x="599" y="1676" name="top"/>
  <outline>
    <contour>
      <point x="128" y="1489" type="line"/>
      <point x="70" y="1489" type="line"/>
      <point x="570" y="745" type="line"/>
      <point x="70" y="0" type="line"/>
      <point x="128" y="0" type="line"/>
      <point x="596" y="701" type="line"/>
      <point x="602" y="701" type="line"/>
      <point x="1071" y="0" type="line"/>
      <point x="1129" y="0" type="line"/>
      <point x="628" y="745" type="line"/>
      <point x="1129" y="1489" type="line"/>
      <point x="1071" y="1489" type="line"/>
      <point x="602" y="788" type="line"/>
      <point x="596" y="788" type="line"/>
    </contour>
  </outline>
</glyph>
<glyph name="Z" format="2">
  <advance height="2479" width="1239"/>
  <unicode hex="005A"/>
  <anchor x="620" y="0" name="bottom"/>
  <anchor x="620" y="745" name="cross"/>
  <anchor x="620" y="1676" name="top"/>
  <outline>
    <contour>
      <point x="154" y="0" type="line"/>
      <point x="1091" y="0" type="line"/>
      <point x="1091" y="47" type="line"/>
      <point x="209" y="47" type="line"/>
      <point x="1085" y="1443" type="line"/>
      <point x="1085" y="1489" type="line"/>
      <point x="160" y="1489" type="line"/>
      <point x="160" y="1443" type="line"/>
      <point x="1030" y="1443" type="line"/>
      <point x="154" y="47" type="line"/>
    </contour>
  </outline>
</glyph>
<glyph name="asciicircum" format="2">
  <advance height="2479" width="820"/>
  <unicode hex="005E"/>
  <outline>
    <contour>
      <point x="396" y="1414" type="line"/>
      <point x="396" y="1367" type="line"/>
      <point x="425" y="1367" type="line"/>
      <point x="425" y="1414" type="line"/>
    </contour>
    <contour>
      <point x="96" y="815" type="line"/>
      <point x="148" y="815" type="line"/>
      <point x="422" y="1396" type="line"/>
      <point x="399" y="1396" type="line"/>
      <point x="672" y="815" type="line"/>
      <point x="724" y="815" type="line"/>
      <point x="428" y="1443" type="line"/>
      <point x="393" y="1443" type="line"/>
    </contour>
  </outline>
</glyph>
<glyph name="a" format="2">
  <advance height="2479" width="1108"/>
  <unicode hex="0061"/>
  <anchor x="556" y="0" name="bottom"/>
  <anchor x="905" y="0" name="ogonek"/>
  <anchor x="556" y="1303" name="rhalfring"/>
  <anchor x="553" y="1303" name="top"/>
  <outline>
    <contour>
      <point x="477" y="-23" type="curve" smooth="yes"/>
      <point x="646" y="-23"/>
      <point x="783" y="76"/>
      <point x="852" y="227" type="curve"/>
      <point x="858" y="227" type="line"/>
      <point x="858" y="0" type="line"/>
      <point x="905" y="0" type="line"/>
      <point x="905" y="803" type="line" smooth="yes"/>
      <point x="905" y="992"/>
      <point x="768" y="1135"/>
      <point x="541" y="1135" type="curve" smooth="yes"/>
      <point x="367" y="1135"/>
      <point x="221" y="1047"/>
      <point x="169" y="908" type="curve"/>
      <point x="212" y="890" type="line"/>
      <point x="259" y="1015"/>
      <point x="384" y="1088"/>
      <point x="541" y="1088" type="curve" smooth="yes"/>
      <point x="733" y="1088"/>
      <point x="858" y="975"/>
      <point x="858" y="803" type="curve" smooth="yes"/>
      <point x="858" y="736" type="line" smooth="yes"/>
      <point x="858" y="649"/>
      <point x="713" y="631"/>
      <point x="559" y="614" type="curve" smooth="yes"/>
      <point x="215" y="573"/>
      <point x="137" y="454"/>
      <point x="137" y="303" type="curve" smooth="yes"/>
      <point x="137" y="93"/>
      <point x="294" y="-23"/>
    </contour>
    <contour>
      <point x="477" y="23" type="curve" smooth="yes"/>
      <point x="311" y="23"/>
      <point x="183" y="134"/>
      <point x="183" y="303" type="curve" smooth="yes"/>
      <point x="183" y="445"/>
      <point x="276" y="535"/>
      <point x="576" y="570" type="curve" smooth="yes"/>
      <point x="704" y="585"/>
      <point x="803" y="605"/>
      <point x="858" y="646" type="curve"/>
      <point x="858" y="477" type="line" smooth="yes"/>
      <point x="858" y="207"/>
      <point x="689" y="23"/>
    </contour>
  </outline>
</glyph>
<glyph name="c" format="2">
  <advance height="2479" width="1132"/>
  <unicode hex="0063"/>
  <anchor x="588" y="0" name="cedilla"/>
  <anchor x="588" y="1303" name="top"/>
  <outline>
    <contour>
      <point x="599" y="-23" type="curve" smooth="yes"/>
      <point x="803" y="-23"/>
      <point x="968" y="115"/>
      <point x="1001" y="326" type="curve"/>
      <point x="951" y="326" type="line"/>
      <point x="924" y="143"/>
      <point x="777" y="23"/>
      <point x="599" y="23" type="curve" smooth="yes"/>
      <point x="351" y="23"/>
      <point x="177" y="258"/>
      <point x="177" y="556" type="curve" smooth="yes"/>
      <point x="177" y="861"/>
      <point x="359" y="1088"/>
      <point x="599" y="1088" type="curve" smooth="yes"/>
      <point x="775" y="1088"/>
      <point x="919" y="967"/>
      <point x="948" y="791" type="curve"/>
      <point x="998" y="791" type="line"/>
      <point x="964" y="995"/>
      <point x="799" y="1135"/>
      <point x="599" y="1135" type="curve" smooth="yes"/>
      <point x="327" y="1135"/>
      <point x="131" y="883"/>
      <point x="131" y="556" type="curve" smooth="yes"/>
      <point x="131" y="225"/>
      <point x="328" y="-23"/>
    </contour>
  </outline>
</glyph>
<glyph name="d" format="2">
  <advance height="2479" width="1225"/>
  <unicode hex="0064"/>
  <anchor x="596" y="0" name="bottom"/>
  <anchor x="969" y="1280" name="cross"/>
  <anchor x="1123" y="1489" name="raccent"/>
  <anchor x="576" y="1489" name="top"/>
  <outline>
    <contour>
      <point x="561" y="-23" type="curve" smooth="yes"/>
      <point x="740" y="-23"/>
      <point x="879" y="95"/>
      <point x="940" y="279" type="curve"/>
      <point x="945" y="279" type="line"/>
      <point x="945" y="0" type="line"/>
      <point x="992" y="0" type="line"/>
      <point x="992" y="1489" type="line"/>
      <point x="945" y="1489" type="line"/>
      <point x="945" y="832" type="line"/>
      <point x="940" y="832" type="line"/>
      <point x="881" y="1018"/>
      <point x="739" y="1135"/>
      <point x="561" y="1135" type="curve" smooth="yes"/>
      <point x="300" y="1135"/>
      <point x="131" y="884"/>
      <point x="131" y="556" type="curve" smooth="yes"/>
      <point x="131" y="225"/>
      <point x="297" y="-23"/>
    </contour>
    <contour>
      <point x="561" y="23" type="curve" smooth="yes"/>
      <point x="324" y="23"/>
      <point x="177" y="253"/>
      <point x="177" y="556" type="curve" smooth="yes"/>
      <point x="177" y="858"/>
      <point x="326" y="1088"/>
      <point x="561" y="1088" type="curve" smooth="yes"/>
      <point x="797" y="1088"/>
      <point x="945" y="858"/>
      <point x="945" y="556" type="curve" smooth="yes"/>
      <point x="945" y="253"/>
      <point x="799" y="23"/>
    </contour>
  </outline>
</glyph>
<glyph name="f" format="2">
  <advance height="2479" width="678"/>
  <unicode hex="0066"/>
  <anchor x="317" y="0" name="bottom"/>
  <anchor x="317" y="649" name="cross"/>
  <anchor x="326" y="1676" name="top"/>
  <outline>
    <contour>
      <point x="582" y="1117" type="line"/>
      <point x="140" y="1117" type="line"/>
      <point x="140" y="1071" type="line"/>
      <point x="582" y="1071" type="line"/>
    </contour>
    <component base="_part.f_base"/>
  </outline>
</glyph>
<glyph name="k" format="2">
  <advance height="2479" width="998"/>
  <unicode hex="006B"/>
  <anchor x="538" y="0" name="bottom"/>
  <anchor x="221" y="1676" name="top"/>
  <outline>
    <contour>
      <point x="233" y="451" type="line"/>
      <point x="396" y="611" type="line"/>
      <point x="401" y="617" type="line"/>
      <point x="911" y="1117" type="line"/>
      <point x="844" y="1117" type="line"/>
      <point x="250" y="535" type="line"/>
      <point x="233" y="535" type="line"/>
    </contour>
    <contour>
      <point x="198" y="0" type="line"/>
      <point x="244" y="0" type="line"/>
      <point x="244" y="1489" type="line"/>
      <point x="198" y="1489" type="line"/>
    </contour>
    <contour>
      <point x="867" y="0" type="line"/>
      <point x="928" y="0" type="line"/>
      <point x="413" y="646" type="line"/>
      <point x="378" y="617" type="line"/>
    </contour>
  </outline>
</glyph>
<glyph name="m" format="2">
  <advance height="2479" width="1711"/>
  <unicode hex="006D"/>
  <anchor x="855" y="0" name="bottom"/>
  <anchor x="855" y="1303" name="top"/>
  <outline>
    <contour>
      <point x="198" y="0" type="line"/>
      <point x="244" y="0" type="line"/>
      <point x="244" y="751" type="line" smooth="yes"/>
      <point x="244" y="945"/>
      <point x="352" y="1085"/>
      <point x="550" y="1085" type="curve" smooth="yes"/>
      <point x="748" y="1085"/>
      <point x="832" y="948"/>
      <point x="832" y="751" type="curve" smooth="yes"/>
      <point x="832" y="0" type="line"/>
      <point x="879" y="0" type="line"/>
      <point x="879" y="751" type="line" smooth="yes"/>
      <point x="879" y="945"/>
      <point x="986" y="1085"/>
      <point x="1184" y="1085" type="curve" smooth="yes"/>
      <point x="1382" y="1085"/>
      <point x="1466" y="948"/>
      <point x="1466" y="751" type="curve" smooth="yes"/>
      <point x="1466" y="0" type="line"/>
      <point x="1513" y="0" type="line"/>
      <point x="1513" y="751" type="line" smooth="yes"/>
      <point x="1513" y="975"/>
      <point x="1408" y="1132"/>
      <point x="1184" y="1132" type="curve" smooth="yes"/>
      <point x="1015" y="1132"/>
      <point x="897" y="1041"/>
      <point x="861" y="902" type="curve"/>
      <point x="855" y="902" type="line"/>
      <point x="817" y="1041"/>
      <point x="719" y="1132"/>
      <point x="550" y="1132" type="curve" smooth="yes"/>
      <point x="401" y="1132"/>
      <point x="291" y="1060"/>
      <point x="250" y="951" type="curve"/>
      <point x="244" y="951" type="line"/>
      <point x="244" y="1117" type="line"/>
      <point x="198" y="1117" type="line"/>
    </contour>
  </outline>
</glyph>
<glyph name="r" format="2">
  <advance height="2479" width="666"/>
  <unicode hex="0072"/>
  <anchor x="221" y="0" name="bottom"/>
  <anchor x="221" y="535" name="cross"/>
  <anchor x="428" y="1303" name="top"/>
  <outline>
    <contour>
      <point x="198" y="0" type="line"/>
      <point x="244" y="0" type="line"/>
      <point x="244" y="751" type="line" smooth="yes"/>
      <point x="244" y="945"/>
      <point x="387" y="1085"/>
      <point x="585" y="1085" type="curve" smooth="yes"/>
      <point x="596" y="1085"/>
      <point x="596" y="1085"/>
      <point x="608" y="1085" type="curve"/>
      <point x="608" y="1132" type="line"/>
      <point x="596" y="1132"/>
      <point x="596" y="1132"/>
      <point x="585" y="1132" type="curve" smooth="yes"/>
      <point x="431" y="1132"/>
      <point x="303" y="1056"/>
      <point x="250" y="940" type="curve"/>
      <point x="244" y="940" type="line"/>
      <point x="244" y="1117" type="line"/>
      <point x="198" y="1117" type="line"/>
    </contour>
  </outline>
</glyph>
<glyph name="t" format="2">
  <advance height="2479" width="713"/>
  <unicode hex="0074"/>
  <anchor x="455" y="1562" name="raccent"/>
  <anchor x="436" y="0" name="bottom"/>
  <anchor x="460" y="0" name="cedilla"/>
  <anchor x="291" y="1489" name="top"/>
  <outline>
    <contour>
      <point x="547" y="1117" type="line"/>
      <point x="105" y="1117" type="line"/>
      <point x="105" y="1071" type="line"/>
      <point x="547" y="1071" type="line"/>
    </contour>
    <component base="_part.t_base"/>
  </outline>
</glyph>
<glyph name="y" format="2">
  <advance height="2479" width="1071"/>
  <unicode hex="0079"/>
  <anchor x="739" y="-86" name="bottom"/>
  <anchor x="560" y="-419" name="ogonek"/>
  <anchor x="535" y="1303" name="top"/>
  <outline>
    <contour>
      <point x="249" y="-419" type="curve" smooth="yes"/>
      <point x="358" y="-419"/>
      <point x="446" y="-344"/>
      <point x="496" y="-204" type="curve" smooth="yes"/>
      <point x="966" y="1117" type="line"/>
      <point x="916" y="1117" type="line"/>
      <point x="538" y="58" type="line"/>
      <point x="532" y="58" type="line"/>
      <point x="154" y="1117" type="line"/>
      <point x="105" y="1117" type="line"/>
      <point x="512" y="-20" type="line"/>
      <point x="452" y="-186" type="line" smooth="yes"/>
      <point x="392" y="-353"/>
      <point x="285" y="-411"/>
      <point x="141" y="-349" type="curve"/>
      <point x="124" y="-390" type="line"/>
      <point x="167" y="-409"/>
      <point x="211" y="-419"/>
    </contour>
  </outline>
</glyph>
<glyph name="z" format="2">
  <advance height="2479" width="1041"/>
  <unicode hex="007A"/>
  <anchor x="503" y="0" name="bottom"/>
  <anchor x="521" y="559" name="cross"/>
  <anchor x="521" y="1303" name="top"/>
  <outline>
    <contour>
      <point x="157" y="0" type="line"/>
      <point x="913" y="0" type="line"/>
      <point x="913" y="47" type="line"/>
      <point x="215" y="47" type="line"/>
      <point x="215" y="52" type="line"/>
      <point x="884" y="1071" type="line"/>
      <point x="884" y="1117" type="line"/>
      <point x="201" y="1117" type="line"/>
      <point x="201" y="1071" type="line"/>
      <point x="826" y="1071" type="line"/>
      <point x="826" y="1065" type="line"/>
      <point x="157" y="47" type="line"/>
    </contour>
  </outline>
</glyph>
<glyph name="braceleft" format="2">
  <advance height="2479" width="646"/>
  <unicode hex="007B"/>
  <outline>
    <contour>
      <point x="134" y="605" type="line"/>
      <point x="328" y="606"/>
      <point x="396" y="675"/>
      <point x="396" y="867" type="curve" smooth="yes"/>
      <point x="396" y="1248" type="line" smooth="yes"/>
      <point x="396" y="1434"/>
      <point x="462" y="1513"/>
      <point x="614" y="1513" type="curve"/>
      <point x="614" y="1559" type="line"/>
      <point x="434" y="1560"/>
      <point x="349" y="1459"/>
      <point x="349" y="1248" type="curve" smooth="yes"/>
      <point x="349" y="867" type="line" smooth="yes"/>
      <point x="349" y="700"/>
      <point x="302" y="652"/>
      <point x="134" y="652" type="curve"/>
    </contour>
    <contour>
      <point x="614" y="-303" type="curve"/>
      <point x="614" y="-256" type="line"/>
      <point x="462" y="-257"/>
      <point x="396" y="-177"/>
      <point x="396" y="9" type="curve" smooth="yes"/>
      <point x="396" y="390" type="line" smooth="yes"/>
      <point x="396" y="581"/>
      <point x="328" y="650"/>
      <point x="134" y="652" type="curve"/>
      <point x="134" y="605" type="line"/>
      <point x="302" y="604"/>
      <point x="349" y="556"/>
      <point x="349" y="390" type="curve" smooth="yes"/>
      <point x="349" y="9" type="line" smooth="yes"/>
      <point x="349" y="-202"/>
      <point x="434" y="-303"/>
    </contour>
    <contour>
      <point x="134" y="605" type="line"/>
      <point x="291" y="605" type="line"/>
      <point x="291" y="652" type="line"/>
      <point x="134" y="652" type="line"/>
    </contour>
  </outline>
</glyph>
<glyph name="cent" format="2">
  <advance height="2479" width="1132"/>
  <unicode hex="00A2"/>
  <anchor x="588" y="189" name="cedilla"/>
  <anchor x="588" y="1492" name="top"/>
  <outline>
    <contour>
      <point x="572" y="0" type="line"/>
      <point x="618" y="0" type="line"/>
      <point x="618" y="1489" type="line"/>
      <point x="572" y="1489" type="line"/>
    </contour>
    <component base="c" yOffset="189"/>
  </outline>
</glyph>
<glyph name="brokenbar" format="2">
  <advance height="2479" width="382"/>
  <unicode hex="00A6"/>
  <outline>
    <contour>
      <point x="167" y="387" type="line"/>
      <point x="167" y="-279" type="line"/>
      <point x="214" y="-279" type="line"/>
      <point x="214" y="387" type="line"/>
    </contour>
    <contour>
      <point x="214" y="1489" type="line"/>
      <point x="167" y="1489" type="line"/>
      <point x="167" y="826" type="line"/>
      <point x="214" y="826" type="line"/>
    </contour>
  </outline>
</glyph>
<glyph name="dieresis" format="2">
  <advance height="2479" width="1350"/>
  <unicode hex="00A8"/>
  <anchor x="675" y="1303" name="_top"/>
  <anchor x="675" y="1676" name="top"/>
  <outline>
    <contour>
      <point x="535" y="1321" type="curve" smooth="yes"/>
      <point x="561" y="1321"/>
      <point x="582" y="1342"/>
      <point x="582" y="1367" type="curve" smooth="yes"/>
      <point x="582" y="1393"/>
      <point x="561" y="1414"/>
      <point x="535" y="1414" type="curve" smooth="yes"/>
      <point x="510" y="1414"/>
      <point x="489" y="1393"/>
      <point x="489" y="1367" type="curve" smooth="yes"/>
      <point x="489" y="1342"/>
      <point x="510" y="1321"/>
    </contour>
    <contour>
      <point x="815" y="1321" type="curve" smooth="yes"/>
      <point x="840" y="1321"/>
      <point x="861" y="1342"/>
      <point x="861" y="1367" type="curve" smooth="yes"/>
      <point x="861" y="1393"/>
      <point x="840" y="1414"/>
      <point x="815" y="1414" type="curve" smooth="yes"/>
      <point x="789" y="1414"/>
      <point x="768" y="1393"/>
      <point x="768" y="1367" type="curve" smooth="yes"/>
      <point x="768" y="1342"/>
      <point x="789" y="1321"/>
    </contour>
  </outline>
</glyph>
<glyph name="macron" format="2">
  <advance height="2479" width="599"/>
  <unicode hex="00AF"/>
  <anchor x="300" y="1303" name="_top"/>
  <outline>
    <contour>
      <point x="532" y="1391" type="line"/>
      <point x="67" y="1391" type="line"/>
      <point x="67" y="1344" type="line"/>
      <point x="532" y="1344" type="line"/>
    </contour>
  </outline>
</glyph>
<glyph name="degree" format="2">
  <advance height="2479" width="931"/>
  <unicode hex="00B0"/>
  <outline>
    <contour>
      <point x="465" y="905" type="curve" smooth="yes"/>
      <point x="633" y="905"/>
      <point x="768" y="1040"/>
      <point x="768" y="1207" type="curve" smooth="yes"/>
      <point x="768" y="1375"/>
      <point x="633" y="1510"/>
      <point x="465" y="1510" type="curve" smooth="yes"/>
      <point x="298" y="1510"/>
      <point x="163" y="1375"/>
      <point x="163" y="1207" type="curve" smooth="yes"/>
      <point x="163" y="1040"/>
      <point x="298" y="905"/>
    </contour>
    <contour>
      <point x="465" y="951" type="curve" smooth="yes"/>
      <point x="324" y="951"/>
      <point x="209" y="1065"/>
      <point x="209" y="1207" type="curve" smooth="yes"/>
      <point x="209" y="1349"/>
      <point x="324" y="1463"/>
      <point x="465" y="1463" type="curve" smooth="yes"/>
      <point x="607" y="1463"/>
      <point x="721" y="1349"/>
      <point x="721" y="1207" type="curve" smooth="yes"/>
      <point x="721" y="1065"/>
      <point x="607" y="951"/>
    </contour>
  </outline>
</glyph>
<glyph name="plusminus" format="2">
  <advance height="2479" width="1303"/>
  <unicode hex="00B1"/>
  <outline>
    <contour>
      <point x="230" y="140" type="line"/>
      <point x="1073" y="140" type="line"/>
      <point x="1073" y="186" type="line"/>
      <point x="230" y="186" type="line"/>
    </contour>
    <contour>
      <point x="230" y="698" type="line"/>
      <point x="1073" y="698" type="line"/>
      <point x="1073" y="745" type="line"/>
      <point x="230" y="745" type="line"/>
    </contour>
    <contour>
      <point x="628" y="326" type="line"/>
      <point x="675" y="326" type="line"/>
      <point x="675" y="1117" type="line"/>
      <point x="628" y="1117" type="line"/>
    </contour>
  </outline>
</glyph>
<glyph name="threesuperior" format="2">
  <advance height="2479" width="841"/>
  <unicode hex="00B3"/>
  <outline>
    <contour>
      <point x="425" y="733" type="curve" smooth="yes"/>
      <point x="599" y="733"/>
      <point x="724" y="841"/>
      <point x="724" y="980" type="curve" smooth="yes"/>
      <point x="724" y="1091"/>
      <point x="643" y="1178"/>
      <point x="515" y="1204" type="curve"/>
      <point x="515" y="1210" type="line"/>
      <point x="623" y="1236"/>
      <point x="695" y="1315"/>
      <point x="695" y="1420" type="curve" smooth="yes"/>
      <point x="695" y="1551"/>
      <point x="582" y="1649"/>
      <point x="422" y="1649" type="curve" smooth="yes"/>
      <point x="265" y="1649"/>
      <point x="145" y="1553"/>
      <point x="145" y="1414" type="curve"/>
      <point x="189" y="1414" type="line"/>
      <point x="192" y="1530"/>
      <point x="291" y="1609"/>
      <point x="422" y="1609" type="curve" smooth="yes"/>
      <point x="556" y="1609"/>
      <point x="649" y="1527"/>
      <point x="649" y="1420" type="curve" smooth="yes"/>
      <point x="649" y="1300"/>
      <point x="538" y="1228"/>
      <point x="396" y="1228" type="curve" smooth="yes"/>
      <point x="369" y="1228" type="line"/>
      <point x="369" y="1184" type="line"/>
      <point x="396" y="1184" type="line" smooth="yes"/>
      <point x="564" y="1184"/>
      <point x="681" y="1100"/>
      <point x="681" y="980" type="curve" smooth="yes"/>
      <point x="681" y="867"/>
      <point x="576" y="777"/>
      <point x="425" y="777" type="curve" smooth="yes"/>
      <point x="282" y="777"/>
      <point x="169" y="855"/>
      <point x="169" y="969" type="curve"/>
      <point x="122" y="969" type="line"/>
      <point x="122" y="832"/>
      <point x="253" y="733"/>
    </contour>
  </outline>
</glyph>
<glyph name="paragraph" format="2">
  <advance height="2479" width="1135"/>
  <unicode hex="00B6"/>
  <outline>
    <contour>
      <point x="902" y="1443" type="line"/>
      <point x="902" y="1489" type="line"/>
      <point x="631" y="1489" type="line" smooth="yes"/>
      <point x="314" y="1489"/>
      <point x="140" y="1289"/>
      <point x="140" y="1021" type="curve" smooth="yes"/>
      <point x="140" y="751"/>
      <point x="314" y="553"/>
      <point x="631" y="553" type="curve" smooth="yes"/>
      <point x="716" y="553" type="line"/>
      <point x="716" y="1443" type="line"/>
    </contour>
    <contour>
      <point x="855" y="0" type="line"/>
      <point x="902" y="0" type="line"/>
      <point x="902" y="1489" type="line"/>
      <point x="855" y="1489" type="line"/>
    </contour>
  </outline>
</glyph>
<glyph name="onesuperior" format="2">
  <advance height="2479" width="559"/>
  <unicode hex="00B9"/>
  <outline>
    <contour>
      <point x="308" y="745" type="line"/>
      <point x="355" y="745" type="line"/>
      <point x="355" y="1638" type="line"/>
      <point x="291" y="1638" type="line"/>
      <point x="92" y="1505" type="line"/>
      <point x="92" y="1450" type="line"/>
      <point x="300" y="1588" type="line"/>
      <point x="308" y="1588" type="line"/>
    </contour>
  </outline>
</glyph>
<glyph name="AE" format="2">
  <advance height="2479" width="1964"/>
  <unicode hex="00C6"/>
  <anchor x="1257" y="1676" name="top"/>
  <outline>
    <contour>
      <point x="67" y="0" type="line"/>
      <point x="119" y="0" type="line"/>
      <point x="855" y="1443" type="line"/>
      <point x="1001" y="1443" type="line"/>
      <point x="1001" y="0" type="line"/>
      <point x="1815" y="0" type="line"/>
      <point x="1815" y="47" type="line"/>
      <point x="1047" y="47" type="line"/>
      <point x="1047" y="721" type="line"/>
      <point x="1751" y="721" type="line"/>
      <point x="1751" y="768" type="line"/>
      <point x="1047" y="768" type="line"/>
      <point x="1047" y="1443" type="line"/>
      <point x="1795" y="1443" type="line"/>
      <point x="1795" y="1489" type="line"/>
      <point x="826" y="1489" type="line"/>
    </contour>
    <contour>
      <point x="358" y="503" type="line"/>
      <point x="1027" y="503" type="line"/>
      <point x="1027" y="550" type="line"/>
      <point x="358" y="550" type="line"/>
    </contour>
  </outline>
</glyph>
<glyph name="Thorn" format="2">
  <advance height="2479" width="1209"/>
  <unicode hex="00DE"/>
  <outline>
    <contour>
      <point x="212" y="1489" type="line"/>
      <point x="212" y="0" type="line"/>
      <point x="256" y="0" type="line"/>
      <point x="256" y="1489" type="line"/>
    </contour>
    <contour>
      <point x="236" y="1132" type="line"/>
      <point x="236" y="1085" type="line"/>
      <point x="614" y="1085" type="line" smooth="yes"/>
      <point x="855" y="1085"/>
      <point x="999" y="959"/>
      <point x="1001" y="745" type="curve" smooth="yes"/>
      <point x="999" y="530"/>
      <point x="860" y="409"/>
      <point x="614" y="409" type="curve" smooth="yes"/>
      <point x="236" y="409" type="line"/>
      <point x="236" y="362" type="line"/>
      <point x="614" y="362" type="line" smooth="yes"/>
      <point x="886" y="362"/>
      <point x="1047" y="505"/>
      <point x="1047" y="748" type="curve" smooth="yes"/>
      <point x="1047" y="984"/>
      <point x="880" y="1132"/>
      <point x="614" y="1132" type="curve" smooth="yes"/>
    </contour>
  </outline>
</glyph>
<glyph name="germandbls" format="2">
  <advance height="2479" width="1177"/>
  <unicode hex="00DF"/>
  <outline>
    <contour>
      <point x="233" y="0" type="line"/>
      <point x="279" y="0" type="line"/>
      <point x="279" y="1108" type="line" smooth="yes"/>
      <point x="279" y="1331"/>
      <point x="402" y="1465"/>
      <point x="602" y="1463" type="curve" smooth="yes"/>
      <point x="784" y="1463"/>
      <point x="905" y="1344"/>
      <point x="905" y="1152" type="curve" smooth="yes"/>
      <point x="905" y="940"/>
      <point x="750" y="791"/>
      <point x="515" y="791" type="curve" smooth="yes"/>
      <point x="492" y="791" type="line"/>
      <point x="492" y="745" type="line"/>
      <point x="513" y="745" type="line" smooth="yes"/>
      <point x="796" y="745"/>
      <point x="975" y="604"/>
      <point x="975" y="381" type="curve" smooth="yes"/>
      <point x="975" y="183"/>
      <point x="823" y="47"/>
      <point x="599" y="47" type="curve" smooth="yes"/>
      <point x="486" y="47" type="line"/>
      <point x="486" y="0" type="line"/>
      <point x="588" y="0" type="line" smooth="yes"/>
      <point x="851" y="0"/>
      <point x="1020" y="153"/>
      <point x="1020" y="390" type="curve" smooth="yes"/>
      <point x="1020" y="589"/>
      <point x="900" y="719"/>
      <point x="672" y="769" type="curve"/>
      <point x="672" y="775" type="line"/>
      <point x="849" y="829"/>
      <point x="950" y="969"/>
      <point x="951" y="1152" type="curve" smooth="yes"/>
      <point x="953" y="1366"/>
      <point x="812" y="1510"/>
      <point x="601" y="1510" type="curve" smooth="yes"/>
      <point x="380" y="1510"/>
      <point x="233" y="1357"/>
      <point x="233" y="1120" type="curve" smooth="yes"/>
    </contour>
  </outline>
</glyph>
<glyph name="eth" format="2">
  <advance height="2479" width="1215"/>
  <unicode hex="00F0"/>
  <outline>
    <contour>
      <point x="980" y="1462" type="line"/>
      <point x="969" y="1507" type="line"/>
      <point x="399" y="1248" type="line"/>
      <point x="410" y="1203" type="line"/>
    </contour>
    <contour>
      <point x="608" y="-23" type="curve" smooth="yes"/>
      <point x="876" y="-23"/>
      <point x="1085" y="200"/>
      <point x="1084" y="548" type="curve" smooth="yes"/>
      <point x="1082" y="961"/>
      <point x="833" y="1367"/>
      <point x="429" y="1583" type="curve"/>
      <point x="415" y="1536" type="line"/>
      <point x="706" y="1377"/>
      <point x="912" y="1119"/>
      <point x="1005" y="820" type="curve"/>
      <point x="998" y="820" type="line"/>
      <point x="908" y="980"/>
      <point x="775" y="1062"/>
      <point x="608" y="1062" type="curve" smooth="yes"/>
      <point x="340" y="1062"/>
      <point x="131" y="824"/>
      <point x="131" y="519" type="curve" smooth="yes"/>
      <point x="131" y="215"/>
      <point x="340" y="-23"/>
    </contour>
    <contour>
      <point x="608" y="23" type="curve" smooth="yes"/>
      <point x="367" y="23"/>
      <point x="177" y="241"/>
      <point x="177" y="519" type="curve" smooth="yes"/>
      <point x="177" y="796"/>
      <point x="368" y="1015"/>
      <point x="608" y="1015" type="curve" smooth="yes"/>
      <point x="849" y="1015"/>
      <point x="1039" y="797"/>
      <point x="1039" y="519" type="curve" smooth="yes"/>
      <point x="1039" y="241"/>
      <point x="849" y="23"/>
    </contour>
  </outline>
</glyph>
<glyph name="divide" format="2">
  <advance height="2479" width="1303"/>
  <unicode hex="00F7"/>
  <outline>
    <contour>
      <point x="1073" y="605" type="line"/>
      <point x="230" y="605" type="line"/>
      <point x="230" y="559" type="line"/>
      <point x="1073" y="559" type="line"/>
    </contour>
    <contour>
      <point x="652" y="198" type="curve" smooth="yes"/>
      <point x="681" y="198"/>
      <point x="704" y="221"/>
      <point x="704" y="250" type="curve" smooth="yes"/>
      <point x="704" y="279"/>
      <point x="681" y="303"/>
      <point x="652" y="303" type="curve" smooth="yes"/>
      <point x="623" y="303"/>
      <point x="599" y="279"/>
      <point x="599" y="250" type="curve" smooth="yes"/>
      <point x="599" y="221"/>
      <point x="623" y="198"/>
    </contour>
    <contour>
      <point x="652" y="861" type="curve" smooth="yes"/>
      <point x="681" y="861"/>
      <point x="704" y="884"/>
      <point x="704" y="913" type="curve" smooth="yes"/>
      <point x="704" y="943"/>
      <point x="681" y="966"/>
      <point x="652" y="966" type="curve" smooth="yes"/>
      <point x="623" y="966"/>
      <point x="599" y="943"/>
      <point x="599" y="913" type="curve" smooth="yes"/>
      <point x="599" y="884"/>
      <point x="623" y="861"/>
    </contour>
  </outline>
</glyph>
<glyph name="oslash" format="2">
  <advance height="2479" width="1187"/>
  <unicode hex="00F8"/>
  <anchor x="593" y="3" name="bottom"/>
  <anchor x="643" y="3" name="ogonek"/>
  <anchor x="593" y="1306" name="top"/>
  <outline>
    <contour>
      <point x="227" y="-29" type="line"/>
      <point x="1001" y="1120" type="line"/>
      <point x="960" y="1146" type="line"/>
      <point x="186" y="-3" type="line"/>
    </contour>
    <component base="o" yOffset="3"/>
  </outline>
</glyph>
<glyph name="thorn" format="2">
  <advance height="2479" width="1180"/>
  <unicode hex="00FE"/>
  <outline>
    <contour>
      <point x="192" y="1489" type="line"/>
      <point x="192" y="-419" type="line"/>
      <point x="239" y="-419" type="line"/>
      <point x="239" y="425" type="line"/>
      <point x="224" y="559" type="line"/>
      <point x="239" y="687" type="line"/>
      <point x="239" y="1489" type="line"/>
    </contour>
    <contour>
      <point x="217" y="832" type="line"/>
      <point x="217" y="279" type="line"/>
      <point x="244" y="279" type="line"/>
      <point x="303" y="93"/>
      <point x="445" y="-23"/>
      <point x="623" y="-23" type="curve" smooth="yes"/>
      <point x="884" y="-23"/>
      <point x="1053" y="227"/>
      <point x="1053" y="556" type="curve" smooth="yes"/>
      <point x="1053" y="886"/>
      <point x="887" y="1135"/>
      <point x="623" y="1135" type="curve" smooth="yes"/>
      <point x="443" y="1135"/>
      <point x="305" y="1017"/>
      <point x="244" y="832" type="curve"/>
    </contour>
    <contour>
      <point x="1007" y="556" type="curve" smooth="yes"/>
      <point x="1007" y="253"/>
      <point x="858" y="23"/>
      <point x="623" y="23" type="curve" smooth="yes"/>
      <point x="387" y="23"/>
      <point x="239" y="253"/>
      <point x="239" y="556" type="curve" smooth="yes"/>
      <point x="239" y="858"/>
      <point x="385" y="1088"/>
      <point x="623" y="1088" type="curve" smooth="yes"/>
      <point x="860" y="1088"/>
      <point x="1007" y="858"/>
    </contour>
  </outline>
</glyph>
<glyph name="dcroat" format="2">
  <advance height="2479" width="1225"/>
  <unicode hex="0111"/>
  <anchor x="596" y="0" name="bottom"/>
  <anchor x="969" y="1280" name="cross"/>
  <anchor x="1123" y="1489" name="raccent"/>
  <anchor x="576" y="1489" name="top"/>
  <outline>
    <contour>
      <point x="634" y="1257" type="line"/>
      <point x="1187" y="1257" type="line"/>
      <point x="1187" y="1304" type="line"/>
      <point x="634" y="1304" type="line"/>
    </contour>
    <component base="d"/>
  </outline>
</glyph>
<glyph name="Hbar" format="2">
  <advance height="2479" width="1524"/>
  <unicode hex="0126"/>
  <anchor x="765" y="0" name="bottom"/>
  <anchor x="268" y="-6" name="cedilla"/>
  <anchor x="1307" y="6" name="cyrtic"/>
  <anchor x="1286" y="0" name="right"/>
  <anchor x="210" y="1489" name="tonos"/>
  <anchor x="765" y="1676" name="top"/>
  <outline>
    <contour>
      <point x="1399" y="1079" type="line"/>
      <point x="125" y="1079" type="line"/>
      <point x="125" y="1033" type="line"/>
      <point x="1399" y="1033" type="line"/>
    </contour>
    <component base="H" xOffset="12"/>
  </outline>
</glyph>
<glyph name="Lslash" format="2">
  <advance height="2479" width="1105"/>
  <unicode hex="0141"/>
  <anchor x="564" y="0" name="bottom"/>
  <anchor x="192" y="768" name="cross"/>
  <anchor x="541" y="748" name="dot"/>
  <anchor x="561" y="1489" name="raccent"/>
  <anchor x="192" y="1676" name="top"/>
  <outline>
    <contour>
      <point x="506" y="861" type="line"/>
      <point x="0" y="678" type="line"/>
      <point x="0" y="627" type="line"/>
      <point x="506" y="813" type="line"/>
    </contour>
    <component base="L" xOffset="-64"/>
  </outline>
</glyph>
<glyph name="lslash" format="2">
  <advance height="2479" width="404"/>
  <unicode hex="0142"/>
  <anchor x="201" y="0" name="bottom"/>
  <anchor x="201" y="768" name="cross"/>
  <anchor x="361" y="1489" name="raccent"/>
  <anchor x="201" y="1676" name="top"/>
  <outline>
    <contour>
      <point x="400" y="876" type="line"/>
      <point x="4" y="692" type="line"/>
      <point x="4" y="641" type="line"/>
      <point x="400" y="825" type="line"/>
    </contour>
    <component base="l" xOffset="-20"/>
  </outline>
</glyph>
<glyph name="Eng" format="2">
  <advance height="2479" width="1583"/>
  <unicode hex="014A"/>
  <anchor x="791" y="0" name="bottom"/>
  <anchor x="1300" y="0" name="right"/>
  <anchor x="791" y="1676" name="top"/>
  <outline>
    <contour>
      <point x="1303" y="0" type="line"/>
      <point x="1303" y="-169" type="line" smooth="yes"/>
      <point x="1303" y="-304"/>
      <point x="1252" y="-369"/>
      <point x="1148" y="-369" type="curve" smooth="yes"/>
      <point x="1126" y="-369"/>
      <point x="1108" y="-367"/>
      <point x="1095" y="-364" type="curve"/>
      <point x="1095" y="-410" type="line"/>
      <point x="1109" y="-414"/>
      <point x="1130" y="-416"/>
      <point x="1152" y="-416" type="curve" smooth="yes"/>
      <point x="1280" y="-416"/>
      <point x="1350" y="-329"/>
      <point x="1350" y="-169" type="curve" smooth="yes"/>
      <point x="1350" y="0" type="line"/>
    </contour>
    <component base="N"/>
  </outline>
</glyph>
<glyph name="eng" format="2">
  <advance height="2479" width="1170"/>
  <unicode hex="014B"/>
  <anchor x="582" y="0" name="bottom"/>
  <anchor x="585" y="1303" name="top"/>
  <outline>
    <contour>
      <point x="919" y="0" type="line"/>
      <point x="919" y="-172" type="line" smooth="yes"/>
      <point x="919" y="-308"/>
      <point x="867" y="-372"/>
      <point x="765" y="-372" type="curve" smooth="yes"/>
      <point x="738" y="-372"/>
      <point x="714" y="-368"/>
      <point x="695" y="-364" type="curve"/>
      <point x="695" y="-406" type="line"/>
      <point x="713" y="-415"/>
      <point x="739" y="-419"/>
      <point x="768" y="-419" type="curve" smooth="yes"/>
      <point x="895" y="-419"/>
      <point x="966" y="-333"/>
      <point x="966" y="-172" type="curve" smooth="yes"/>
      <point x="966" y="0" type="line"/>
    </contour>
    <component base="n"/>
  </outline>
</glyph>
<glyph name="OE" format="2">
  <advance height="2479" width="1888"/>
  <unicode hex="0152"/>
  <anchor x="1291" y="0" name="bottom"/>
  <anchor x="1294" y="0" name="cedilla"/>
  <anchor x="1739" y="0" name="ogonek"/>
  <anchor x="872" y="1489" name="tonos"/>
  <anchor x="1326" y="1676" name="top"/>
  <outline>
    <contour>
      <point x="765" y="0" type="curve" smooth="yes"/>
      <point x="948" y="0" type="line"/>
      <point x="948" y="47" type="line"/>
      <point x="765" y="47" type="line" smooth="yes"/>
      <point x="423" y="47"/>
      <point x="195" y="332"/>
      <point x="195" y="745" type="curve" smooth="yes"/>
      <point x="195" y="1164"/>
      <point x="428" y="1444"/>
      <point x="765" y="1443" type="curve" smooth="yes"/>
      <point x="948" y="1443" type="line"/>
      <point x="948" y="1489" type="line"/>
      <point x="765" y="1489" type="line" smooth="yes"/>
      <point x="398" y="1489"/>
      <point x="148" y="1188"/>
      <point x="148" y="745" type="curve" smooth="yes"/>
      <point x="148" y="303"/>
      <point x="397" y="0"/>
    </contour>
    <component base="E" xOffset="692"/>
  </outline>
</glyph>
<glyph name="tbar" format="2">
  <advance height="2479" width="733"/>
  <unicode hex="0167"/>
  <anchor x="456" y="0" name="bottom"/>
  <anchor x="480" y="0" name="cedilla"/>
  <anchor x="475" y="1562" name="raccent"/>
  <anchor x="311" y="1489" name="top"/>
  <outline>
    <contour>
      <point x="105" y="700" type="line"/>
      <point x="588" y="700" type="line"/>
      <point x="588" y="746" type="line"/>
      <point x="105" y="746" type="line"/>
    </contour>
    <component base="t" xOffset="20"/>
  </outline>
</glyph>
<glyph name="Bhook" format="2">
  <advance height="2479" width="1513"/>
  <unicode hex="0181"/>
  <anchor x="838" y="0" name="bottom"/>
  <anchor x="821" y="1676" name="top"/>
  <outline>
    <contour>
      <point x="454" y="1443" type="line" name="hr00"/>
      <point x="454" y="1489" type="line"/>
      <point x="323" y="1489" type="line" smooth="yes"/>
      <point x="195" y="1489"/>
      <point x="126" y="1416"/>
      <point x="125" y="1280" type="curve" smooth="yes"/>
      <point x="125" y="1228" type="line"/>
      <point x="172" y="1228" type="line"/>
      <point x="172" y="1254" type="line" smooth="yes"/>
      <point x="172" y="1391"/>
      <point x="215" y="1443"/>
      <point x="326" y="1443" type="curve" smooth="yes"/>
    </contour>
    <component base="B" xOffset="201"/>
  </outline>
</glyph>
<glyph name="btopbar" format="2">
  <advance height="2479" width="1225"/>
  <unicode hex="0183"/>
  <anchor x="663" y="0" name="bottom"/>
  <anchor x="256" y="1280" name="cross"/>
  <anchor x="663" y="1303" name="top"/>
  <outline>
    <contour>
      <point x="977" y="1489" type="line" name="hr00"/>
      <point x="256" y="1489" type="line"/>
      <point x="256" y="1443" type="line"/>
      <point x="977" y="1443" type="line"/>
    </contour>
    <component base="b"/>
  </outline>
</glyph>
<glyph name="tonesix" format="2">
  <advance height="2479" width="1156"/>
  <unicode hex="0185"/>
  <outline>
    <contour>
      <point x="698" y="-23" type="curve" smooth="yes"/>
      <point x="898" y="-23"/>
      <point x="1025" y="172"/>
      <point x="1025" y="417" type="curve" smooth="yes"/>
      <point x="1025" y="665"/>
      <point x="895" y="848"/>
      <point x="698" y="848" type="curve" smooth="yes"/>
      <point x="561" y="848"/>
      <point x="463" y="764"/>
      <point x="420" y="640" type="curve"/>
      <point x="415" y="640" type="line"/>
      <point x="415" y="1117" type="line"/>
      <point x="368" y="1117" type="line"/>
      <point x="368" y="1094" type="line"/>
      <point x="368" y="1076" type="line"/>
      <point x="368" y="1" type="line"/>
      <point x="415" y="1" type="line"/>
      <point x="415" y="198" type="line"/>
      <point x="420" y="198" type="line"/>
      <point x="463" y="73"/>
      <point x="561" y="-23"/>
    </contour>
    <contour>
      <point x="695" y="23" type="curve" smooth="yes"/>
      <point x="522" y="24"/>
      <point x="414" y="198"/>
      <point x="415" y="417" type="curve" smooth="yes"/>
      <point x="414" y="636"/>
      <point x="522" y="801"/>
      <point x="695" y="801" type="curve" smooth="yes"/>
      <point x="868" y="801"/>
      <point x="979" y="636"/>
      <point x="979" y="417" type="curve" smooth="yes"/>
      <point x="979" y="201"/>
      <point x="868" y="24"/>
    </contour>
    <contour>
      <point x="63" y="746" type="line"/>
      <point x="401" y="1084" type="line"/>
      <point x="368" y="1117" type="line"/>
      <point x="29" y="778" type="line"/>
    </contour>
  </outline>
</glyph>
<glyph name="Dhook" format="2">
  <advance height="2479" width="1681"/>
  <unicode hex="018A"/>
  <anchor x="809" y="0" name="bottom"/>
  <anchor x="474" y="756" name="cross"/>
  <anchor x="849" y="1676" name="top"/>
  <outline>
    <contour>
      <point x="125" y="1228" type="line"/>
      <point x="172" y="1228" type="line"/>
      <point x="172" y="1254" type="line" smooth="yes"/>
      <point x="172" y="1391"/>
      <point x="215" y="1443"/>
      <point x="326" y="1443" type="curve" smooth="yes"/>
      <point x="468" y="1443" type="line" name="hr00"/>
      <point x="468" y="1489" type="line"/>
      <point x="323" y="1489" type="line" smooth="yes"/>
      <point x="195" y="1489"/>
      <point x="126" y="1416"/>
      <point x="125" y="1280" type="curve" smooth="yes"/>
    </contour>
    <component base="D" xOffset="218"/>
  </outline>
</glyph>
<glyph name="dtopbar" format="2">
  <advance height="2479" width="1225"/>
  <unicode hex="018C"/>
  <anchor x="561" y="0" name="bottom"/>
  <anchor x="969" y="1280" name="cross"/>
  <anchor x="561" y="1303" name="top"/>
  <outline>
    <contour>
      <point x="247" y="1489" type="line" name="hr00"/>
      <point x="247" y="1443" type="line"/>
      <point x="969" y="1443" type="line"/>
      <point x="969" y="1489" type="line"/>
    </contour>
    <contour>
      <point x="992" y="0" type="line"/>
      <point x="992" y="1489" type="line"/>
      <point x="945" y="1489" type="line"/>
      <point x="945" y="832" type="line"/>
      <point x="940" y="832" type="line"/>
      <point x="881" y="1018"/>
      <point x="739" y="1135"/>
      <point x="561" y="1135" type="curve" smooth="yes"/>
      <point x="300" y="1135"/>
      <point x="131" y="884"/>
      <point x="131" y="556" type="curve" smooth="yes"/>
      <point x="131" y="225"/>
      <point x="297" y="-23"/>
      <point x="561" y="-23" type="curve" smooth="yes"/>
      <point x="741" y="-23"/>
      <point x="879" y="94"/>
      <point x="940" y="279" type="curve"/>
      <point x="945" y="279" type="line"/>
      <point x="945" y="0" type="line"/>
    </contour>
    <contour>
      <point x="945" y="556" type="curve" smooth="yes"/>
      <point x="945" y="253"/>
      <point x="799" y="23"/>
      <point x="561" y="23" type="curve" smooth="yes"/>
      <point x="324" y="23"/>
      <point x="177" y="253"/>
      <point x="177" y="556" type="curve" smooth="yes"/>
      <point x="177" y="858"/>
      <point x="326" y="1088"/>
      <point x="561" y="1088" type="curve" smooth="yes"/>
      <point x="797" y="1088"/>
      <point x="945" y="858"/>
    </contour>
  </outline>
</glyph>
<glyph name="Schwa" format="2">
  <advance height="2479" width="1512"/>
  <unicode hex="018F"/>
  <outline>
    <contour>
      <point x="742" y="-20" type="curve" smooth="yes"/>
      <point x="1120" y="-20"/>
      <point x="1364" y="289"/>
      <point x="1364" y="745" type="curve" smooth="yes"/>
      <point x="1364" y="1203"/>
      <point x="1117" y="1510"/>
      <point x="748" y="1510" type="curve" smooth="yes"/>
      <point x="399" y="1510"/>
      <point x="212" y="1236"/>
      <point x="177" y="1024" type="curve"/>
      <point x="224" y="1024" type="line"/>
      <point x="260" y="1227"/>
      <point x="441" y="1463"/>
      <point x="748" y="1463" type="curve" smooth="yes"/>
      <point x="1089" y="1463"/>
      <point x="1318" y="1175"/>
      <point x="1318" y="745" type="curve" smooth="yes"/>
      <point x="1318" y="319"/>
      <point x="1094" y="26"/>
      <point x="742" y="26" type="curve" smooth="yes"/>
      <point x="431" y="26"/>
      <point x="207" y="256"/>
      <point x="212" y="646" type="curve"/>
      <point x="192" y="628" type="line"/>
      <point x="1338" y="628" type="line"/>
      <point x="1338" y="675" type="line"/>
      <point x="166" y="675" type="line"/>
      <point x="166" y="628" type="line" smooth="yes"/>
      <point x="166" y="221"/>
      <point x="407" y="-20"/>
    </contour>
  </outline>
</glyph>
<glyph name="Fhook" format="2">
  <advance height="2479" width="1152"/>
  <unicode hex="0191"/>
  <anchor x="462" y="12" name="bottom"/>
  <anchor x="209" y="410" name="cross"/>
  <anchor x="587" y="1676" name="top"/>
  <outline>
    <contour>
      <point x="186" y="0" type="line"/>
      <point x="186" y="-169" type="line" smooth="yes"/>
      <point x="186" y="-304"/>
      <point x="135" y="-369"/>
      <point x="31" y="-369" type="curve" smooth="yes"/>
      <point x="9" y="-369"/>
      <point x="-9" y="-367"/>
      <point x="-22" y="-364" type="curve"/>
      <point x="-22" y="-410" type="line"/>
      <point x="-8" y="-414"/>
      <point x="13" y="-416"/>
      <point x="35" y="-416" type="curve" smooth="yes"/>
      <point x="163" y="-416"/>
      <point x="233" y="-329"/>
      <point x="233" y="-169" type="curve" smooth="yes"/>
      <point x="233" y="0" type="line"/>
    </contour>
    <component base="F" xOffset="-47"/>
  </outline>
</glyph>
<glyph name="Ghook" format="2">
  <advance height="2479" width="1457"/>
  <unicode hex="0193"/>
  <anchor x="756" y="0" name="bottom"/>
  <anchor x="756" y="1676" name="top"/>
  <outline>
    <contour>
      <point x="1335" y="1024" type="line" name="hr00"/>
      <point x="1335" y="1193" type="line" smooth="yes"/>
      <point x="1335" y="1316"/>
      <point x="1371" y="1361"/>
      <point x="1473" y="1361" type="curve" smooth="yes"/>
      <point x="1492" y="1361"/>
      <point x="1519" y="1360"/>
      <point x="1545" y="1357" type="curve"/>
      <point x="1545" y="1404" type="line"/>
      <point x="1520" y="1407"/>
      <point x="1493" y="1408"/>
      <point x="1473" y="1408" type="curve" smooth="yes"/>
      <point x="1345" y="1408"/>
      <point x="1289" y="1343"/>
      <point x="1289" y="1193" type="curve" smooth="yes"/>
      <point x="1289" y="1024" type="line"/>
    </contour>
    <component base="G"/>
  </outline>
</glyph>
<glyph name="Gamma-latin" format="2">
  <advance height="2479" width="1057"/>
  <unicode hex="0194"/>
  <outline>
    <contour>
      <point x="-44" y="1489" type="line"/>
      <point x="512" y="111" type="line" smooth="yes"/>
      <point x="623" y="-167"/>
      <point x="652" y="-253"/>
      <point x="652" y="-294" type="curve" smooth="yes"/>
      <point x="651" y="-351"/>
      <point x="601" y="-396"/>
      <point x="529" y="-396" type="curve" smooth="yes"/>
      <point x="455" y="-396"/>
      <point x="406" y="-351"/>
      <point x="406" y="-294" type="curve" smooth="yes"/>
      <point x="406" y="-253"/>
      <point x="439" y="-164"/>
      <point x="543" y="92" type="curve" smooth="yes"/>
      <point x="1105" y="1489" type="line"/>
      <point x="1055" y="1489" type="line"/>
      <point x="474" y="49" type="line" smooth="yes"/>
      <point x="378" y="-188"/>
      <point x="359" y="-244"/>
      <point x="359" y="-288" type="curve" smooth="yes"/>
      <point x="359" y="-374"/>
      <point x="425" y="-442"/>
      <point x="529" y="-442" type="curve" smooth="yes"/>
      <point x="633" y="-442"/>
      <point x="698" y="-374"/>
      <point x="698" y="-288" type="curve" smooth="yes"/>
      <point x="698" y="-244"/>
      <point x="675" y="-172"/>
      <point x="577" y="71" type="curve" smooth="yes"/>
      <point x="7" y="1489" type="line"/>
    </contour>
  </outline>
</glyph>
<glyph name="hv" format="2">
  <advance height="2479" width="1879"/>
  <unicode hex="0195"/>
  <outline>
    <contour>
      <point x="198" y="0" type="line"/>
      <point x="244" y="0" type="line"/>
      <point x="244" y="751" type="line" smooth="yes"/>
      <point x="244" y="945"/>
      <point x="387" y="1085"/>
      <point x="585" y="1085" type="curve" smooth="yes"/>
      <point x="783" y="1085"/>
      <point x="919" y="948"/>
      <point x="919" y="751" type="curve" smooth="yes"/>
      <point x="919" y="495" type="line"/>
      <point x="966" y="495" type="line"/>
      <point x="966" y="751" type="line" smooth="yes"/>
      <point x="966" y="975"/>
      <point x="809" y="1132"/>
      <point x="585" y="1132" type="curve" smooth="yes"/>
      <point x="433" y="1132"/>
      <point x="303" y="1057"/>
      <point x="250" y="940" type="curve"/>
      <point x="244" y="940" type="line"/>
      <point x="244" y="1489" type="line"/>
      <point x="198" y="1489" type="line"/>
    </contour>
    <contour>
      <point x="1228" y="-19" type="curve" smooth="yes"/>
      <point x="1535" y="-19"/>
      <point x="1681" y="329"/>
      <point x="1681" y="1015" type="curve" smooth="yes"/>
      <point x="1681" y="1117" type="line"/>
      <point x="1635" y="1117" type="line"/>
      <point x="1635" y="1033" type="line" smooth="yes"/>
      <point x="1635" y="364"/>
      <point x="1505" y="28"/>
      <point x="1228" y="28" type="curve" smooth="yes"/>
      <point x="1048" y="28"/>
      <point x="966" y="153"/>
      <point x="966" y="439" type="curve" smooth="yes"/>
      <point x="966" y="623" type="line"/>
      <point x="919" y="623" type="line"/>
      <point x="919" y="439" type="line" smooth="yes"/>
      <point x="919" y="128"/>
      <point x="1021" y="-19"/>
    </contour>
  </outline>
</glyph>
<glyph name="Khook" format="2">
  <advance height="2479" width="1341"/>
  <unicode hex="0198"/>
  <outline>
    <contour>
      <point x="233" y="0" type="line"/>
      <point x="279" y="0" type="line"/>
      <point x="279" y="486" type="line"/>
      <point x="503" y="733" type="line"/>
      <point x="1193" y="0" type="line"/>
      <point x="1257" y="0" type="line"/>
      <point x="535" y="768" type="line"/>
      <point x="1100" y="1388" type="line" smooth="yes"/>
      <point x="1159" y="1455"/>
      <point x="1223" y="1469"/>
      <point x="1292" y="1420" type="curve"/>
      <point x="1324" y="1450" type="line"/>
      <point x="1260" y="1520"/>
      <point x="1136" y="1505"/>
      <point x="1065" y="1420" type="curve"/>
      <point x="285" y="561" type="line"/>
      <point x="279" y="561" type="line"/>
      <point x="279" y="1489" type="line"/>
      <point x="233" y="1489" type="line"/>
    </contour>
  </outline>
</glyph>
<glyph name="khook" format="2">
  <advance height="2479" width="1000"/>
  <unicode hex="0199"/>
  <outline>
    <contour>
      <point x="867" y="0" type="line"/>
      <point x="928" y="0" type="line"/>
      <point x="420" y="636" type="line"/>
      <point x="911" y="1117" type="line"/>
      <point x="844" y="1117" type="line"/>
      <point x="250" y="535" type="line"/>
      <point x="244" y="535" type="line"/>
      <point x="244" y="1242" type="line"/>
      <point x="198" y="1242" type="line"/>
      <point x="198" y="0" type="line"/>
      <point x="244" y="0" type="line"/>
      <point x="244" y="463" type="line"/>
      <point x="388" y="604" type="line"/>
    </contour>
    <contour>
      <point x="244" y="1228" type="line"/>
      <point x="244" y="1295" type="line" smooth="yes"/>
      <point x="244" y="1418"/>
      <point x="281" y="1463"/>
      <point x="383" y="1463" type="curve" smooth="yes"/>
      <point x="401" y="1463"/>
      <point x="429" y="1462"/>
      <point x="454" y="1459" type="curve"/>
      <point x="454" y="1505" type="line"/>
      <point x="429" y="1508"/>
      <point x="403" y="1510"/>
      <point x="383" y="1510" type="curve" smooth="yes"/>
      <point x="255" y="1510"/>
      <point x="198" y="1446"/>
      <point x="198" y="1295" type="curve"/>
      <point x="198" y="1228" type="line"/>
    </contour>
  </outline>
</glyph>
<glyph name="lambdastroke" format="2">
  <advance height="2479" width="1142"/>
  <unicode hex="019B"/>
  <outline>
    <contour>
      <point x="183" y="1199" type="line"/>
      <point x="579" y="1385" type="line"/>
      <point x="579" y="1436" type="line"/>
      <point x="183" y="1249" type="line"/>
    </contour>
    <component base="lambda"/>
  </outline>
</glyph>
<glyph name="Ohorn" format="2">
  <advance height="2479" width="1505"/>
  <unicode hex="01A0"/>
  <anchor x="765" y="0" name="bottom"/>
  <anchor x="800" y="0" name="ogonek"/>
  <anchor x="221" y="1489" name="tonos"/>
  <anchor x="765" y="1676" name="top"/>
  <outline>
    <contour>
      <point x="1367" y="1603" type="line"/>
      <point x="1367" y="1444"/>
      <point x="1319" y="1380"/>
      <point x="1167" y="1341" type="curve"/>
      <point x="1167" y="1295" type="line"/>
      <point x="1344" y="1332"/>
      <point x="1415" y="1420"/>
      <point x="1414" y="1603" type="curve"/>
    </contour>
    <component base="O"/>
  </outline>
</glyph>
<glyph name="oi" format="2">
  <advance height="2479" width="1275"/>
  <unicode hex="01A3"/>
  <outline>
    <contour>
      <point x="579" y="23" type="curve" smooth="yes"/>
      <point x="343" y="23"/>
      <point x="178" y="237"/>
      <point x="178" y="538" type="curve" smooth="yes"/>
      <point x="178" y="541" type="line" smooth="yes"/>
      <point x="178" y="873"/>
      <point x="344" y="1088"/>
      <point x="579" y="1088" type="curve" smooth="yes"/>
      <point x="653" y="1088"/>
      <point x="722" y="1068"/>
      <point x="778" y="1034" type="curve"/>
      <point x="778" y="444" type="line"/>
      <point x="825" y="444" type="line"/>
      <point x="825" y="1062" type="line"/>
      <point x="746" y="1108"/>
      <point x="668" y="1135"/>
      <point x="579" y="1135" type="curve" smooth="yes"/>
      <point x="316" y="1135"/>
      <point x="131" y="900"/>
      <point x="131" y="541" type="curve" smooth="yes"/>
      <point x="131" y="538" type="line" smooth="yes"/>
      <point x="131" y="211"/>
      <point x="316" y="-23"/>
      <point x="579" y="-23" type="curve" smooth="yes"/>
      <point x="667" y="-23"/>
      <point x="744" y="3"/>
      <point x="825" y="58" type="curve"/>
      <point x="825" y="737" type="line"/>
      <point x="778" y="737" type="line"/>
      <point x="778" y="83" type="line"/>
      <point x="722" y="44"/>
      <point x="653" y="23"/>
    </contour>
    <contour>
      <point x="1077" y="1117" type="line"/>
      <point x="1013" y="1117" type="line"/>
      <point x="813" y="985" type="line"/>
      <point x="813" y="929" type="line"/>
      <point x="1030" y="1073" type="line"/>
      <point x="1030" y="-419" type="line"/>
      <point x="1077" y="-419" type="line"/>
    </contour>
  </outline>
</glyph>
<glyph name="Yr" format="2">
  <advance height="2479" width="1231"/>
  <unicode hex="01A6"/>
  <outline>
    <contour>
      <point x="256" y="362" type="line"/>
      <point x="634" y="362" type="line" smooth="yes"/>
      <point x="906" y="362"/>
      <point x="1068" y="505"/>
      <point x="1068" y="748" type="curve" smooth="yes"/>
      <point x="1068" y="984"/>
      <point x="900" y="1132"/>
      <point x="634" y="1132" type="curve" smooth="yes"/>
      <point x="256" y="1132" type="line"/>
      <point x="256" y="1085" type="line"/>
      <point x="634" y="1085" type="line" smooth="yes"/>
      <point x="876" y="1085"/>
      <point x="1020" y="959"/>
      <point x="1021" y="745" type="curve" smooth="yes"/>
      <point x="1020" y="530"/>
      <point x="880" y="409"/>
      <point x="634" y="409" type="curve" smooth="yes"/>
      <point x="256" y="409" type="line"/>
    </contour>
    <contour>
      <point x="1068" y="-419" type="line"/>
      <point x="1120" y="-419" type="line"/>
      <point x="687" y="385" type="line"/>
      <point x="634" y="385" type="line"/>
    </contour>
    <contour>
      <point x="233" y="0" type="line"/>
      <point x="276" y="0" type="line"/>
      <point x="276" y="1489" type="line"/>
      <point x="233" y="1489" type="line"/>
    </contour>
  </outline>
</glyph>
<glyph name="Tonetwo" format="2">
  <advance height="2479" width="1254"/>
  <unicode hex="01A7"/>
  <anchor x="625" y="-23" name="bottom"/>
  <anchor x="625" y="0" name="cedilla"/>
  <anchor x="625" y="1676" name="top"/>
  <outline>
    <contour>
      <point x="224" y="1117" type="line"/>
      <point x="239" y="1321"/>
      <point x="389" y="1466"/>
      <point x="620" y="1466" type="curve" smooth="yes"/>
      <point x="847" y="1466"/>
      <point x="1015" y="1324"/>
      <point x="1015" y="1129" type="curve" smooth="yes"/>
      <point x="1015" y="977"/>
      <point x="915" y="874"/>
      <point x="701" y="809" type="curve" smooth="yes"/>
      <point x="532" y="756" type="line" smooth="yes"/>
      <point x="275" y="677"/>
      <point x="157" y="561"/>
      <point x="157" y="378" type="curve" smooth="yes"/>
      <point x="157" y="145"/>
      <point x="349" y="-23"/>
      <point x="631" y="-23" type="curve" smooth="yes"/>
      <point x="903" y="-23"/>
      <point x="1082" y="130"/>
      <point x="1097" y="349" type="curve"/>
      <point x="1050" y="349" type="line"/>
      <point x="1036" y="156"/>
      <point x="877" y="23"/>
      <point x="631" y="23" type="curve" smooth="yes"/>
      <point x="375" y="23"/>
      <point x="204" y="167"/>
      <point x="204" y="378" type="curve" smooth="yes"/>
      <point x="204" y="538"/>
      <point x="303" y="635"/>
      <point x="544" y="710" type="curve" smooth="yes"/>
      <point x="713" y="762" type="line" smooth="yes"/>
      <point x="947" y="836"/>
      <point x="1062" y="956"/>
      <point x="1062" y="1129" type="curve" smooth="yes"/>
      <point x="1062" y="1348"/>
      <point x="874" y="1513"/>
      <point x="620" y="1513" type="curve" smooth="yes"/>
      <point x="364" y="1513"/>
      <point x="192" y="1347"/>
      <point x="177" y="1117" type="curve"/>
    </contour>
  </outline>
</glyph>
<glyph name="tonetwo" format="2">
  <advance height="2479" width="1009"/>
  <unicode hex="01A8"/>
  <outline>
    <contour>
      <point x="505" y="-23" type="curve" smooth="yes"/>
      <point x="704" y="-23"/>
      <point x="834" y="78"/>
      <point x="872" y="256" type="curve"/>
      <point x="825" y="268" type="line"/>
      <point x="792" y="109"/>
      <point x="683" y="23"/>
      <point x="505" y="23" type="curve" smooth="yes"/>
      <point x="311" y="23"/>
      <point x="179" y="127"/>
      <point x="179" y="282" type="curve" smooth="yes"/>
      <point x="179" y="398"/>
      <point x="251" y="479"/>
      <point x="395" y="515" type="curve" smooth="yes"/>
      <point x="569" y="559" type="line" smooth="yes"/>
      <point x="741" y="601"/>
      <point x="831" y="701"/>
      <point x="831" y="841" type="curve" smooth="yes"/>
      <point x="831" y="1016"/>
      <point x="688" y="1135"/>
      <point x="485" y="1135" type="curve" smooth="yes"/>
      <point x="312" y="1135"/>
      <point x="196" y="1049"/>
      <point x="142" y="881" type="curve"/>
      <point x="188" y="870" type="line"/>
      <point x="234" y="1015"/>
      <point x="331" y="1088"/>
      <point x="485" y="1088" type="curve" smooth="yes"/>
      <point x="663" y="1088"/>
      <point x="784" y="989"/>
      <point x="784" y="841" type="curve" smooth="yes"/>
      <point x="784" y="724"/>
      <point x="710" y="643"/>
      <point x="558" y="605" type="curve" smooth="yes"/>
      <point x="383" y="561" type="line" smooth="yes"/>
      <point x="219" y="521"/>
      <point x="133" y="420"/>
      <point x="133" y="282" type="curve" smooth="yes"/>
      <point x="133" y="100"/>
      <point x="286" y="-23"/>
    </contour>
  </outline>
</glyph>
<glyph name="eshreversedloop" format="2">
  <advance height="2479" width="911"/>
  <unicode hex="01AA"/>
  <outline>
    <contour>
      <point x="579" y="1264" type="line"/>
      <point x="579" y="-163" type="line" smooth="yes"/>
      <point x="579" y="-335"/>
      <point x="636" y="-419"/>
      <point x="752" y="-419" type="curve" smooth="yes"/>
      <point x="775" y="-419"/>
      <point x="800" y="-415"/>
      <point x="817" y="-410" type="curve"/>
      <point x="817" y="-364" type="line"/>
      <point x="799" y="-369"/>
      <point x="772" y="-372"/>
      <point x="752" y="-372" type="curve" smooth="yes"/>
      <point x="664" y="-372"/>
      <point x="625" y="-308"/>
      <point x="625" y="-163" type="curve" smooth="yes"/>
      <point x="625" y="1293" type="line"/>
    </contour>
    <contour>
      <point x="93" y="1290" type="curve" smooth="yes"/>
      <point x="92" y="1143"/>
      <point x="213" y="1023"/>
      <point x="359" y="1024" type="curve" smooth="yes"/>
      <point x="508" y="1025"/>
      <point x="627" y="1143"/>
      <point x="625" y="1290" type="curve" smooth="yes"/>
      <point x="624" y="1438"/>
      <point x="508" y="1556"/>
      <point x="359" y="1556" type="curve" smooth="yes"/>
      <point x="213" y="1556"/>
      <point x="94" y="1438"/>
    </contour>
    <contour>
      <point x="359" y="1071" type="curve" smooth="yes"/>
      <point x="239" y="1070"/>
      <point x="140" y="1169"/>
      <point x="140" y="1290" type="curve" smooth="yes"/>
      <point x="140" y="1412"/>
      <point x="239" y="1510"/>
      <point x="359" y="1510" type="curve" smooth="yes"/>
      <point x="482" y="1510"/>
      <point x="577" y="1412"/>
      <point x="579" y="1290" type="curve" smooth="yes"/>
      <point x="580" y="1169"/>
      <point x="483" y="1071"/>
    </contour>
  </outline>
</glyph>
<glyph name="tpalatalhook" format="2">
  <advance height="2479" width="713"/>
  <unicode hex="01AB"/>
  <anchor x="436" y="0" name="bottom"/>
  <anchor x="460" y="0" name="cedilla"/>
  <anchor x="455" y="1562" name="raccent"/>
  <anchor x="291" y="1489" name="top"/>
  <outline>
    <contour>
      <point x="567" y="29" type="line"/>
      <point x="567" y="-169" type="line" smooth="yes"/>
      <point x="567" y="-305"/>
      <point x="515" y="-369"/>
      <point x="412" y="-369" type="curve" smooth="yes"/>
      <point x="386" y="-369"/>
      <point x="362" y="-366"/>
      <point x="343" y="-361" type="curve"/>
      <point x="343" y="-403" type="line"/>
      <point x="361" y="-412"/>
      <point x="387" y="-416"/>
      <point x="416" y="-416" type="curve" smooth="yes"/>
      <point x="543" y="-416"/>
      <point x="614" y="-330"/>
      <point x="614" y="-169" type="curve" smooth="yes"/>
      <point x="614" y="47" type="line"/>
    </contour>
    <component base="t"/>
  </outline>
</glyph>
<glyph name="Tretroflexhook" format="2">
  <advance height="2479" width="1257"/>
  <unicode hex="01AE"/>
  <anchor x="628" y="0" name="bottom"/>
  <anchor x="628" y="-6" name="cedilla"/>
  <anchor x="628" y="768" name="cross"/>
  <anchor x="672" y="6" name="cyrtic"/>
  <anchor x="640" y="0" name="right"/>
  <anchor x="628" y="1676" name="top"/>
  <outline>
    <contour>
      <point x="652" y="0" type="line"/>
      <point x="605" y="0" type="line"/>
      <point x="605" y="-169" type="line" smooth="yes"/>
      <point x="605" y="-330"/>
      <point x="676" y="-416"/>
      <point x="803" y="-416" type="curve"/>
      <point x="852" y="-416" type="line"/>
      <point x="852" y="-369" type="line"/>
      <point x="807" y="-369" type="line"/>
      <point x="704" y="-369"/>
      <point x="652" y="-305"/>
      <point x="652" y="-169" type="curve" smooth="yes"/>
    </contour>
    <component base="T"/>
  </outline>
</glyph>
<glyph name="Uhorn" format="2">
  <advance height="2479" width="1670"/>
  <unicode hex="01AF"/>
  <anchor x="768" y="-23" name="bottom"/>
  <anchor x="831" y="0" name="ogonek"/>
  <anchor x="829" y="0" name="right"/>
  <anchor x="768" y="1676" name="top"/>
  <outline>
    <contour>
      <point x="1498" y="1603" type="line"/>
      <point x="1497" y="1444"/>
      <point x="1449" y="1380"/>
      <point x="1297" y="1341" type="curve"/>
      <point x="1297" y="1295" type="line"/>
      <point x="1475" y="1332"/>
      <point x="1545" y="1420"/>
      <point x="1545" y="1603" type="curve"/>
    </contour>
    <component base="U"/>
  </outline>
</glyph>
<glyph name="uhorn" format="2">
  <advance height="2479" width="1096"/>
  <unicode hex="01B0"/>
  <anchor x="573" y="0" name="bottom"/>
  <anchor x="957" y="0" name="ogonek"/>
  <anchor x="573" y="1303" name="top"/>
  <outline>
    <contour>
      <point x="1094" y="1155" type="line"/>
      <point x="1094" y="995"/>
      <point x="1044" y="931"/>
      <point x="922" y="931" type="curve"/>
      <point x="922" y="884" type="line"/>
      <point x="1072" y="886"/>
      <point x="1140" y="972"/>
      <point x="1140" y="1155" type="curve"/>
    </contour>
    <component base="u" xOffset="-9"/>
  </outline>
</glyph>
<glyph name="Upsilon-latin" format="2">
  <advance height="2479" width="1524"/>
  <unicode hex="01B1"/>
  <outline>
    <contour>
      <point x="151" y="727" type="curve" smooth="yes"/>
      <point x="151" y="297"/>
      <point x="412" y="-20"/>
      <point x="762" y="-20" type="curve" smooth="yes"/>
      <point x="1114" y="-20"/>
      <point x="1374" y="295"/>
      <point x="1373" y="727" type="curve" smooth="yes"/>
      <point x="1372" y="1044"/>
      <point x="1242" y="1283"/>
      <point x="951" y="1431" type="curve"/>
      <point x="951" y="1443" type="line"/>
      <point x="1373" y="1443" type="line"/>
      <point x="1373" y="1489" type="line"/>
      <point x="905" y="1489" type="line"/>
      <point x="905" y="1423" type="line"/>
      <point x="1142" y="1297"/>
      <point x="1328" y="1087"/>
      <point x="1327" y="730" type="curve" smooth="yes"/>
      <point x="1325" y="335"/>
      <point x="1100" y="28"/>
      <point x="762" y="26" type="curve" smooth="yes"/>
      <point x="426" y="25"/>
      <point x="196" y="335"/>
      <point x="198" y="730" type="curve" smooth="yes"/>
      <point x="199" y="1089"/>
      <point x="381" y="1296"/>
      <point x="620" y="1423" type="curve"/>
      <point x="620" y="1489" type="line"/>
      <point x="151" y="1489" type="line"/>
      <point x="151" y="1443" type="line"/>
      <point x="573" y="1443" type="line"/>
      <point x="573" y="1431" type="line"/>
      <point x="284" y="1283"/>
      <point x="152" y="1042"/>
    </contour>
  </outline>
</glyph>
<glyph name="Vhook" format="2">
  <advance height="2479" width="1577"/>
  <unicode hex="01B2"/>
  <outline>
    <contour>
      <point x="768" y="-23" type="curve" smooth="yes"/>
      <point x="1115" y="-23"/>
      <point x="1343" y="315"/>
      <point x="1344" y="852" type="curve" smooth="yes"/>
      <point x="1343" y="1236"/>
      <point x="1227" y="1504"/>
      <point x="1052" y="1504" type="curve" smooth="yes"/>
      <point x="1010" y="1504"/>
      <point x="945" y="1489"/>
      <point x="884" y="1468" type="curve"/>
      <point x="895" y="1421" type="line"/>
      <point x="959" y="1442"/>
      <point x="1020" y="1457"/>
      <point x="1055" y="1457" type="curve" smooth="yes"/>
      <point x="1198" y="1457"/>
      <point x="1296" y="1201"/>
      <point x="1296" y="849" type="curve" smooth="yes"/>
      <point x="1296" y="337"/>
      <point x="1087" y="23"/>
      <point x="768" y="23" type="curve" smooth="yes"/>
      <point x="473" y="23"/>
      <point x="279" y="214"/>
      <point x="279" y="503" type="curve" smooth="yes"/>
      <point x="279" y="1489" type="line"/>
      <point x="233" y="1489" type="line"/>
      <point x="233" y="503" type="line" smooth="yes"/>
      <point x="233" y="186"/>
      <point x="445" y="-23"/>
    </contour>
  </outline>
</glyph>
<glyph name="Yhook" format="2">
  <advance height="2479" width="1275"/>
  <unicode hex="01B3"/>
  <outline>
    <contour>
      <point x="567" y="724" type="line"/>
      <point x="602" y="724" type="line"/>
      <point x="602" y="759" type="line"/>
      <point x="567" y="759" type="line"/>
    </contour>
    <contour>
      <point x="26" y="1489" type="line"/>
      <point x="561" y="707" type="line"/>
      <point x="561" y="0" type="line"/>
      <point x="608" y="0" type="line"/>
      <point x="608" y="707" type="line"/>
      <point x="1081" y="1395" type="line" smooth="yes"/>
      <point x="1132" y="1468"/>
      <point x="1211" y="1477"/>
      <point x="1260" y="1446" type="curve"/>
      <point x="1292" y="1476" type="line"/>
      <point x="1244" y="1529"/>
      <point x="1111" y="1524"/>
      <point x="1049" y="1434" type="curve" smooth="yes"/>
      <point x="583" y="756" type="line"/>
      <point x="84" y="1489" type="line"/>
    </contour>
  </outline>
</glyph>
<glyph name="ezhreversed" format="2">
  <advance height="2479" width="1224"/>
  <unicode hex="01B9"/>
  <anchor x="664" y="1303" name="top"/>
  <outline>
    <contour>
      <point x="637" y="-442" type="curve" smooth="yes"/>
      <point x="824" y="-442"/>
      <point x="976" y="-367"/>
      <point x="1032" y="-218" type="curve"/>
      <point x="989" y="-201" type="line"/>
      <point x="938" y="-332"/>
      <point x="805" y="-396"/>
      <point x="637" y="-396" type="curve" smooth="yes"/>
      <point x="400" y="-396"/>
      <point x="228" y="-217"/>
      <point x="228" y="20" type="curve" smooth="yes"/>
      <point x="228" y="273"/>
      <point x="424" y="431"/>
      <point x="721" y="431" type="curve" smooth="yes"/>
      <point x="724" y="431" type="line"/>
      <point x="724" y="477" type="line"/>
      <point x="256" y="1065" type="line"/>
      <point x="256" y="1071" type="line"/>
      <point x="981" y="1071" type="line"/>
      <point x="981" y="1117" type="line"/>
      <point x="186" y="1117" type="line"/>
      <point x="186" y="1079" type="line"/>
      <point x="663" y="480" type="line"/>
      <point x="663" y="474" type="line"/>
      <point x="373" y="461"/>
      <point x="181" y="287"/>
      <point x="181" y="22" type="curve" smooth="yes"/>
      <point x="181" y="-244"/>
      <point x="373" y="-442"/>
    </contour>
  </outline>
</glyph>
<glyph name="ezhtail" format="2">
  <advance height="2479" width="1004"/>
  <unicode hex="01BA"/>
  <outline>
    <contour>
      <point x="100" y="1120" type="line" name="hr00"/>
      <point x="103" y="1072" type="line"/>
      <point x="873" y="1072" type="line"/>
      <point x="321" y="592" type="line"/>
      <point x="321" y="544" type="line"/>
      <point x="336" y="544" type="line"/>
      <point x="937" y="1066" type="line"/>
      <point x="937" y="1117" type="line"/>
    </contour>
    <contour>
      <point x="125" y="-161" type="curve" smooth="yes"/>
      <point x="125" y="-26"/>
      <point x="204" y="49"/>
      <point x="425" y="106" type="curve" smooth="yes"/>
      <point x="691" y="175"/>
      <point x="777" y="239"/>
      <point x="777" y="371" type="curve" smooth="yes"/>
      <point x="777" y="526"/>
      <point x="652" y="591"/>
      <point x="358" y="591" type="curve" smooth="yes"/>
      <point x="335" y="591" type="line"/>
      <point x="330" y="544" type="line"/>
      <point x="358" y="544" type="line" smooth="yes"/>
      <point x="625" y="544"/>
      <point x="730" y="495"/>
      <point x="730" y="371" type="curve" smooth="yes"/>
      <point x="730" y="263"/>
      <point x="657" y="212"/>
      <point x="407" y="150" type="curve" smooth="yes"/>
      <point x="173" y="91"/>
      <point x="79" y="-5"/>
      <point x="79" y="-163" type="curve" smooth="yes"/>
      <point x="79" y="-348"/>
      <point x="209" y="-442"/>
      <point x="436" y="-442" type="curve" smooth="yes"/>
      <point x="660" y="-442"/>
      <point x="815" y="-305"/>
      <point x="833" y="-93" type="curve"/>
      <point x="787" y="-93" type="line"/>
      <point x="771" y="-278"/>
      <point x="634" y="-396"/>
      <point x="436" y="-396" type="curve" smooth="yes"/>
      <point x="234" y="-396"/>
      <point x="125" y="-319"/>
    </contour>
  </outline>
</glyph>
<glyph name="tonefive" format="2">
  <advance height="2479" width="832"/>
  <unicode hex="01BD"/>
  <outline>
    <contour>
      <point x="198" y="524" type="line" name="hr00"/>
      <point x="245" y="615"/>
      <point x="352" y="675"/>
      <point x="464" y="673" type="curve" smooth="yes"/>
      <point x="637" y="671"/>
      <point x="749" y="545"/>
      <point x="749" y="352" type="curve" smooth="yes"/>
      <point x="749" y="153"/>
      <point x="625" y="29"/>
      <point x="426" y="29" type="curve" smooth="yes"/>
      <point x="248" y="29"/>
      <point x="133" y="138"/>
      <point x="140" y="300" type="curve"/>
      <point x="93" y="288" type="line"/>
      <point x="94" y="105"/>
      <point x="228" y="-17"/>
      <point x="426" y="-17" type="curve" smooth="yes"/>
      <point x="654" y="-17"/>
      <point x="796" y="129"/>
      <point x="794" y="361" type="curve" smooth="yes"/>
      <point x="793" y="575"/>
      <point x="655" y="723"/>
      <point x="460" y="720" type="curve" smooth="yes"/>
      <point x="361" y="719"/>
      <point x="264" y="677"/>
      <point x="208" y="612" type="curve"/>
      <point x="253" y="1036" type="line"/>
      <point x="759" y="1036" type="line"/>
      <point x="759" y="1082" type="line"/>
      <point x="211" y="1082" type="line"/>
      <point x="153" y="528" type="line"/>
    </contour>
    <contour>
      <point x="288" y="1082" type="line"/>
      <point x="41" y="1082" type="line"/>
      <point x="41" y="1036" type="line"/>
      <point x="288" y="1036" type="line"/>
    </contour>
  </outline>
</glyph>
<glyph name="Hwair" format="2">
  <advance height="2479" width="2269"/>
  <unicode hex="01F6"/>
  <outline>
    <contour>
      <point x="1655" y="-23" type="curve" smooth="yes"/>
      <point x="1897" y="-23"/>
      <point x="2071" y="104"/>
      <point x="2071" y="442" type="curve" smooth="yes"/>
      <point x="2071" y="1146" type="line"/>
      <point x="2025" y="1146" type="line"/>
      <point x="2025" y="442" type="line" smooth="yes"/>
      <point x="2025" y="159"/>
      <point x="1900" y="23"/>
      <point x="1655" y="23" type="curve" smooth="yes"/>
      <point x="1412" y="24"/>
      <point x="1274" y="159"/>
      <point x="1274" y="442" type="curve" smooth="yes"/>
      <point x="1274" y="1489" type="line"/>
      <point x="1228" y="1489" type="line"/>
      <point x="1228" y="768" type="line"/>
      <point x="279" y="768" type="line"/>
      <point x="279" y="1489" type="line"/>
      <point x="233" y="1489" type="line"/>
      <point x="233" y="0" type="line"/>
      <point x="279" y="0" type="line"/>
      <point x="279" y="721" type="line"/>
      <point x="1228" y="721" type="line"/>
      <point x="1228" y="442" type="line" smooth="yes"/>
      <point x="1228" y="118"/>
      <point x="1404" y="-23"/>
    </contour>
  </outline>
</glyph>
<glyph name="Yogh" format="2">
  <advance height="2479" width="1443"/>
  <unicode hex="021C"/>
  <anchor x="710" y="1676" name="top"/>
  <outline>
    <contour>
      <point x="689" y="-442" type="curve" smooth="yes"/>
      <point x="1049" y="-442"/>
      <point x="1286" y="-210"/>
      <point x="1286" y="126" type="curve" smooth="yes"/>
      <point x="1286" y="435"/>
      <point x="1085" y="629"/>
      <point x="781" y="630" type="curve"/>
      <point x="727" y="591" type="line"/>
      <point x="1036" y="596"/>
      <point x="1239" y="415"/>
      <point x="1239" y="121" type="curve" smooth="yes"/>
      <point x="1239" y="-185"/>
      <point x="1019" y="-396"/>
      <point x="687" y="-396" type="curve" smooth="yes"/>
      <point x="375" y="-396"/>
      <point x="172" y="-209"/>
      <point x="172" y="73" type="curve"/>
      <point x="125" y="73" type="line"/>
      <point x="125" y="-238"/>
      <point x="350" y="-442"/>
    </contour>
    <contour>
      <point x="393" y="465" type="line"/>
      <point x="877" y="597"/>
      <point x="1196" y="766"/>
      <point x="1197" y="1084" type="curve" smooth="yes"/>
      <point x="1198" y="1335"/>
      <point x="999" y="1510"/>
      <point x="684" y="1510" type="curve" smooth="yes"/>
      <point x="387" y="1510"/>
      <point x="181" y="1353"/>
      <point x="180" y="1116" type="curve"/>
      <point x="227" y="1116" type="line"/>
      <point x="225" y="1325"/>
      <point x="412" y="1463"/>
      <point x="681" y="1463" type="curve" smooth="yes"/>
      <point x="967" y="1463"/>
      <point x="1148" y="1308"/>
      <point x="1151" y="1086" type="curve" smooth="yes"/>
      <point x="1153" y="798"/>
      <point x="852" y="647"/>
      <point x="393" y="512" type="curve"/>
    </contour>
  </outline>
</glyph>
<glyph name="yogh" format="2">
  <advance height="2479" width="1113"/>
  <unicode hex="021D"/>
  <outline>
    <contour>
      <point x="262" y="265" type="line"/>
      <point x="669" y="312"/>
      <point x="937" y="529"/>
      <point x="938" y="803" type="curve" smooth="yes"/>
      <point x="939" y="1007"/>
      <point x="756" y="1135"/>
      <point x="528" y="1135" type="curve" smooth="yes"/>
      <point x="292" y="1135"/>
      <point x="133" y="999"/>
      <point x="132" y="791" type="curve"/>
      <point x="179" y="791" type="line"/>
      <point x="177" y="970"/>
      <point x="316" y="1088"/>
      <point x="524" y="1088" type="curve" smooth="yes"/>
      <point x="724" y="1088"/>
      <point x="889" y="979"/>
      <point x="892" y="803" type="curve" smooth="yes"/>
      <point x="896" y="555"/>
      <point x="646" y="356"/>
      <point x="262" y="311" type="curve"/>
    </contour>
    <contour>
      <point x="527" y="-442" type="curve" smooth="yes"/>
      <point x="790" y="-442"/>
      <point x="982" y="-244"/>
      <point x="982" y="22" type="curve" smooth="yes"/>
      <point x="982" y="220"/>
      <point x="877" y="365"/>
      <point x="704" y="433" type="curve"/>
      <point x="649" y="401" type="line"/>
      <point x="828" y="345"/>
      <point x="935" y="208"/>
      <point x="935" y="20" type="curve" smooth="yes"/>
      <point x="935" y="-218"/>
      <point x="764" y="-396"/>
      <point x="527" y="-396" type="curve" smooth="yes"/>
      <point x="359" y="-396"/>
      <point x="225" y="-332"/>
      <point x="175" y="-201" type="curve"/>
      <point x="131" y="-218" type="line"/>
      <point x="188" y="-367"/>
      <point x="339" y="-442"/>
    </contour>
  </outline>
</glyph>
<glyph name="dcurl" format="2">
  <advance height="2479" width="1473"/>
  <unicode hex="0221"/>
  <anchor x="593" y="0" name="bottom"/>
  <anchor x="966" y="1280" name="cross"/>
  <anchor x="1120" y="1489" name="raccent"/>
  <anchor x="573" y="1489" name="top"/>
  <outline>
    <contour>
      <point x="943" y="60" type="line"/>
      <point x="943" y="-160" type="line"/>
      <point x="943" y="-302"/>
      <point x="1056" y="-410"/>
      <point x="1201" y="-410" type="curve" smooth="yes"/>
      <point x="1343" y="-410"/>
      <point x="1455" y="-309"/>
      <point x="1455" y="-183" type="curve" smooth="yes"/>
      <point x="1455" y="-57"/>
      <point x="1343" y="44"/>
      <point x="1199" y="44" type="curve" smooth="yes"/>
      <point x="1067" y="44"/>
      <point x="964" y="-41"/>
      <point x="822" y="-268" type="curve" smooth="yes"/>
      <point x="756" y="-372" type="line"/>
      <point x="796" y="-396" type="line"/>
      <point x="860" y="-294" type="line" smooth="yes"/>
      <point x="993" y="-82"/>
      <point x="1085" y="-3"/>
      <point x="1199" y="-3" type="curve" smooth="yes"/>
      <point x="1316" y="-3"/>
      <point x="1408" y="-84"/>
      <point x="1408" y="-183" type="curve" smooth="yes"/>
      <point x="1408" y="-283"/>
      <point x="1318" y="-364"/>
      <point x="1201" y="-364" type="curve" smooth="yes"/>
      <point x="1081" y="-364"/>
      <point x="989" y="-276"/>
      <point x="989" y="-160" type="curve" smooth="yes"/>
      <point x="989" y="60" type="line"/>
    </contour>
    <component base="d" xOffset="-3"/>
  </outline>
</glyph>
<glyph name="OU" format="2">
  <advance height="2479" width="1158"/>
  <unicode hex="0222"/>
  <outline>
    <contour>
      <point x="561" y="831" type="line" smooth="yes"/>
      <point x="225" y="831"/>
      <point x="58" y="681"/>
      <point x="58" y="406" type="curve" smooth="yes"/>
      <point x="58" y="124"/>
      <point x="241" y="-20"/>
      <point x="573" y="-20" type="curve" smooth="yes"/>
      <point x="586" y="-20" type="line" smooth="yes"/>
      <point x="915" y="-20"/>
      <point x="1100" y="124"/>
      <point x="1100" y="406" type="curve" smooth="yes"/>
      <point x="1100" y="680"/>
      <point x="932" y="831"/>
      <point x="596" y="831" type="curve" smooth="yes"/>
    </contour>
    <contour>
      <point x="596" y="784" type="line" smooth="yes"/>
      <point x="906" y="784"/>
      <point x="1053" y="650"/>
      <point x="1053" y="406" type="curve" smooth="yes"/>
      <point x="1053" y="153"/>
      <point x="892" y="26"/>
      <point x="586" y="26" type="curve" smooth="yes"/>
      <point x="572" y="26" type="line" smooth="yes"/>
      <point x="265" y="26"/>
      <point x="105" y="154"/>
      <point x="105" y="406" type="curve" smooth="yes"/>
      <point x="105" y="652"/>
      <point x="249" y="784"/>
      <point x="561" y="784" type="curve" smooth="yes"/>
    </contour>
    <contour>
      <point x="561" y="831" type="line" smooth="yes"/>
      <point x="279" y="831"/>
      <point x="125" y="940"/>
      <point x="125" y="1165" type="curve" smooth="yes"/>
      <point x="125" y="1334"/>
      <point x="211" y="1433"/>
      <point x="336" y="1460" type="curve"/>
      <point x="336" y="1510" type="line"/>
      <point x="183" y="1478"/>
      <point x="79" y="1360"/>
      <point x="79" y="1165" type="curve" smooth="yes"/>
      <point x="79" y="912"/>
      <point x="256" y="784"/>
      <point x="561" y="784" type="curve" smooth="yes"/>
      <point x="596" y="784" type="line" smooth="yes"/>
      <point x="903" y="784"/>
      <point x="1079" y="915"/>
      <point x="1079" y="1165" type="curve" smooth="yes"/>
      <point x="1079" y="1371"/>
      <point x="959" y="1492"/>
      <point x="794" y="1519" type="curve"/>
      <point x="794" y="1471" type="line"/>
      <point x="934" y="1449"/>
      <point x="1033" y="1344"/>
      <point x="1033" y="1165" type="curve" smooth="yes"/>
      <point x="1033" y="941"/>
      <point x="876" y="831"/>
      <point x="598" y="831" type="curve" smooth="yes"/>
    </contour>
  </outline>
</glyph>
<glyph name="ou" format="2">
  <advance height="2479" width="1212"/>
  <unicode hex="0223"/>
  <outline>
    <contour>
      <point x="561" y="829" type="line" smooth="yes"/>
      <point x="232" y="829"/>
      <point x="58" y="685"/>
      <point x="58" y="412" type="curve" smooth="yes"/>
      <point x="58" y="136"/>
      <point x="245" y="-20"/>
      <point x="573" y="-20" type="curve" smooth="yes"/>
      <point x="640" y="-20" type="line" smooth="yes"/>
      <point x="967" y="-20"/>
      <point x="1153" y="137"/>
      <point x="1153" y="412" type="curve" smooth="yes"/>
      <point x="1153" y="684"/>
      <point x="979" y="829"/>
      <point x="650" y="829" type="curve" smooth="yes"/>
    </contour>
    <contour>
      <point x="650" y="783" type="line" smooth="yes"/>
      <point x="951" y="783"/>
      <point x="1107" y="656"/>
      <point x="1107" y="412" type="curve" smooth="yes"/>
      <point x="1107" y="164"/>
      <point x="941" y="26"/>
      <point x="640" y="26" type="curve" smooth="yes"/>
      <point x="572" y="26" type="line" smooth="yes"/>
      <point x="271" y="26"/>
      <point x="105" y="164"/>
      <point x="105" y="412" type="curve" smooth="yes"/>
      <point x="105" y="658"/>
      <point x="258" y="783"/>
      <point x="561" y="783" type="curve" smooth="yes"/>
    </contour>
    <contour>
      <point x="666" y="829" type="curve" smooth="yes"/>
      <point x="547" y="829" type="line" smooth="yes"/>
      <point x="266" y="829"/>
      <point x="111" y="957"/>
      <point x="111" y="1188" type="curve" smooth="yes"/>
      <point x="111" y="1361"/>
      <point x="183" y="1468"/>
      <point x="321" y="1498" type="curve"/>
      <point x="321" y="1548" type="line"/>
      <point x="154" y="1513"/>
      <point x="64" y="1387"/>
      <point x="64" y="1188" type="curve" smooth="yes"/>
      <point x="64" y="932"/>
      <point x="241" y="783"/>
      <point x="547" y="783" type="curve" smooth="yes"/>
      <point x="665" y="783" type="line" smooth="yes"/>
      <point x="969" y="783"/>
      <point x="1148" y="932"/>
      <point x="1148" y="1188" type="curve" smooth="yes"/>
      <point x="1148" y="1395"/>
      <point x="1045" y="1527"/>
      <point x="863" y="1556" type="curve"/>
      <point x="863" y="1508" type="line"/>
      <point x="1017" y="1484"/>
      <point x="1101" y="1371"/>
      <point x="1101" y="1188" type="curve" smooth="yes"/>
      <point x="1101" y="959"/>
      <point x="944" y="829"/>
    </contour>
  </outline>
</glyph>
<glyph name="Zhook" format="2">
  <advance height="2479" width="1194"/>
  <unicode hex="0224"/>
  <outline>
    <contour>
      <point x="131" y="1443" type="line"/>
      <point x="1001" y="1443" type="line"/>
      <point x="125" y="47" type="line"/>
      <point x="125" y="0" type="line"/>
      <point x="865" y="0" type="line" smooth="yes"/>
      <point x="977" y="0"/>
      <point x="1020" y="-52"/>
      <point x="1020" y="-182" type="curve" smooth="yes"/>
      <point x="1020" y="-186" type="line"/>
      <point x="1066" y="-186" type="line"/>
      <point x="1066" y="-156" type="line" smooth="yes"/>
      <point x="1066" y="-29"/>
      <point x="995" y="47"/>
      <point x="868" y="47" type="curve" smooth="yes"/>
      <point x="180" y="47" type="line"/>
      <point x="1056" y="1443" type="line"/>
      <point x="1056" y="1489" type="line"/>
      <point x="131" y="1489" type="line"/>
    </contour>
  </outline>
</glyph>
<glyph name="lcurl" format="2">
  <advance height="2479" width="539"/>
  <unicode hex="0234"/>
  <outline>
    <contour>
      <point x="204" y="60" type="line"/>
      <point x="204" y="-160" type="line"/>
      <point x="204" y="-302"/>
      <point x="317" y="-410"/>
      <point x="463" y="-410" type="curve" smooth="yes"/>
      <point x="604" y="-410"/>
      <point x="716" y="-309"/>
      <point x="716" y="-183" type="curve" smooth="yes"/>
      <point x="716" y="-57"/>
      <point x="604" y="44"/>
      <point x="460" y="44" type="curve" smooth="yes"/>
      <point x="328" y="44"/>
      <point x="225" y="-41"/>
      <point x="83" y="-268" type="curve" smooth="yes"/>
      <point x="17" y="-372" type="line"/>
      <point x="57" y="-396" type="line"/>
      <point x="121" y="-294" type="line" smooth="yes"/>
      <point x="254" y="-82"/>
      <point x="346" y="-3"/>
      <point x="460" y="-3" type="curve" smooth="yes"/>
      <point x="577" y="-3"/>
      <point x="669" y="-84"/>
      <point x="669" y="-183" type="curve" smooth="yes"/>
      <point x="669" y="-283"/>
      <point x="579" y="-364"/>
      <point x="463" y="-364" type="curve" smooth="yes"/>
      <point x="342" y="-364"/>
      <point x="250" y="-276"/>
      <point x="250" y="-160" type="curve" smooth="yes"/>
      <point x="250" y="60" type="line"/>
    </contour>
    <contour>
      <point x="250" y="1489" type="line"/>
      <point x="204" y="1489" type="line"/>
      <point x="204" y="0" type="line"/>
      <point x="250" y="0" type="line"/>
    </contour>
  </outline>
</glyph>
<glyph name="ncurl" format="2">
  <advance height="2479" width="1530"/>
  <unicode hex="0235"/>
  <anchor x="582" y="0" name="bottom"/>
  <anchor x="585" y="1303" name="top"/>
  <outline>
    <contour>
      <point x="919" y="220" type="line"/>
      <point x="919" y="0" type="line"/>
      <point x="919" y="-142"/>
      <point x="1033" y="-250"/>
      <point x="1178" y="-250" type="curve" smooth="yes"/>
      <point x="1320" y="-250"/>
      <point x="1431" y="-149"/>
      <point x="1431" y="-23" type="curve" smooth="yes"/>
      <point x="1431" y="103"/>
      <point x="1320" y="204"/>
      <point x="1175" y="204" type="curve" smooth="yes"/>
      <point x="1044" y="204"/>
      <point x="940" y="119"/>
      <point x="799" y="-108" type="curve" smooth="yes"/>
      <point x="733" y="-212" type="line"/>
      <point x="772" y="-236" type="line"/>
      <point x="836" y="-134" type="line" smooth="yes"/>
      <point x="969" y="78"/>
      <point x="1062" y="157"/>
      <point x="1175" y="157" type="curve" smooth="yes"/>
      <point x="1293" y="157"/>
      <point x="1385" y="76"/>
      <point x="1385" y="-23" type="curve" smooth="yes"/>
      <point x="1385" y="-123"/>
      <point x="1295" y="-204"/>
      <point x="1178" y="-204" type="curve" smooth="yes"/>
      <point x="1057" y="-204"/>
      <point x="966" y="-116"/>
      <point x="966" y="0" type="curve" smooth="yes"/>
      <point x="966" y="220" type="line"/>
    </contour>
    <component base="n"/>
  </outline>
</glyph>
<glyph name="jdotless" format="2">
  <advance height="2479" width="454"/>
  <unicode hex="0237"/>
  <anchor x="509" y="0" name="_right"/>
  <anchor x="198" y="-442" name="bottom"/>
  <anchor x="227" y="628" name="cross"/>
  <anchor x="227" y="1303" name="top"/>
  <outline>
    <contour>
      <point x="204" y="1117" type="line"/>
      <point x="204" y="-163" type="line" smooth="yes"/>
      <point x="204" y="-293"/>
      <point x="105" y="-372"/>
      <point x="-6" y="-372" type="curve" smooth="yes"/>
      <point x="-12" y="-372"/>
      <point x="-17" y="-372"/>
      <point x="-23" y="-372" type="curve"/>
      <point x="-29" y="-416" type="line"/>
      <point x="-17" y="-419"/>
      <point x="-12" y="-419"/>
      <point x="-6" y="-419" type="curve" smooth="yes"/>
      <point x="131" y="-419"/>
      <point x="250" y="-320"/>
      <point x="250" y="-163" type="curve" smooth="yes"/>
      <point x="250" y="1117" type="line"/>
    </contour>
  </outline>
</glyph>
<glyph name="qpdigraph" format="2">
  <advance height="2479" width="1938"/>
  <unicode hex="0239"/>
  <outline>
    <contour>
      <point x="945" y="-419" type="line"/>
      <point x="992" y="-419" type="line"/>
      <point x="992" y="279" type="line"/>
      <point x="998" y="279" type="line"/>
      <point x="1056" y="93"/>
      <point x="1199" y="-23"/>
      <point x="1376" y="-23" type="curve" smooth="yes"/>
      <point x="1638" y="-23"/>
      <point x="1807" y="227"/>
      <point x="1807" y="556" type="curve" smooth="yes"/>
      <point x="1807" y="886"/>
      <point x="1640" y="1135"/>
      <point x="1376" y="1135" type="curve" smooth="yes"/>
      <point x="1196" y="1135"/>
      <point x="1058" y="1017"/>
      <point x="998" y="832" type="curve"/>
      <point x="992" y="832" type="line"/>
      <point x="992" y="1117" type="line"/>
      <point x="945" y="1117" type="line"/>
      <point x="945" y="832" type="line"/>
      <point x="940" y="832" type="line"/>
      <point x="879" y="1017"/>
      <point x="741" y="1135"/>
      <point x="561" y="1135" type="curve" smooth="yes"/>
      <point x="297" y="1135"/>
      <point x="131" y="886"/>
      <point x="131" y="556" type="curve" smooth="yes"/>
      <point x="131" y="227"/>
      <point x="300" y="-23"/>
      <point x="561" y="-23" type="curve" smooth="yes"/>
      <point x="739" y="-23"/>
      <point x="881" y="93"/>
      <point x="940" y="279" type="curve"/>
      <point x="945" y="279" type="line"/>
    </contour>
    <contour>
      <point x="561" y="23" type="curve" smooth="yes"/>
      <point x="326" y="23"/>
      <point x="177" y="253"/>
      <point x="177" y="556" type="curve" smooth="yes"/>
      <point x="177" y="858"/>
      <point x="324" y="1088"/>
      <point x="561" y="1088" type="curve" smooth="yes"/>
      <point x="799" y="1088"/>
      <point x="945" y="858"/>
      <point x="945" y="556" type="curve" smooth="yes"/>
      <point x="945" y="253"/>
      <point x="797" y="23"/>
    </contour>
    <contour>
      <point x="1376" y="23" type="curve" smooth="yes"/>
      <point x="1140" y="23"/>
      <point x="992" y="253"/>
      <point x="992" y="556" type="curve" smooth="yes"/>
      <point x="992" y="858"/>
      <point x="1139" y="1088"/>
      <point x="1376" y="1088" type="curve" smooth="yes"/>
      <point x="1613" y="1088"/>
      <point x="1760" y="858"/>
      <point x="1760" y="556" type="curve" smooth="yes"/>
      <point x="1760" y="253"/>
      <point x="1612" y="23"/>
    </contour>
  </outline>
</glyph>
<glyph name="Astroke" format="2">
  <advance height="2479" width="1263"/>
  <unicode hex="023A"/>
  <unicode hex="2C65"/>
  <anchor x="631" y="0" name="bottom"/>
  <anchor x="1196" y="0" name="ogonek"/>
  <anchor x="527" y="1489" name="tonos"/>
  <anchor x="631" y="1676" name="top"/>
  <outline>
    <contour>
      <point x="989" y="1679" type="line"/>
      <point x="940" y="1679" type="line"/>
      <point x="276" y="-189" type="line"/>
      <point x="326" y="-189" type="line"/>
    </contour>
    <component base="A"/>
  </outline>
</glyph>
<glyph name="Cstroke" format="2">
  <advance height="2479" width="1481"/>
  <unicode hex="023B"/>
  <anchor x="765" y="0" name="cedilla"/>
  <anchor x="765" y="1676" name="top"/>
  <outline>
    <contour>
      <point x="367" y="-189" type="line"/>
      <point x="416" y="-189" type="line"/>
      <point x="1140" y="1679" type="line"/>
      <point x="1091" y="1679" type="line"/>
    </contour>
    <component base="C"/>
  </outline>
</glyph>
<glyph name="Tdiagonalstroke" format="2">
  <advance height="2479" width="1257"/>
  <unicode hex="023E"/>
  <unicode hex="2C66"/>
  <anchor x="628" y="0" name="bottom"/>
  <anchor x="628" y="-6" name="cedilla"/>
  <anchor x="628" y="768" name="cross"/>
  <anchor x="672" y="6" name="cyrtic"/>
  <anchor x="640" y="0" name="right"/>
  <anchor x="628" y="1676" name="top"/>
  <outline>
    <contour>
      <point x="256" y="-189" type="line"/>
      <point x="301" y="-189" type="line"/>
      <point x="1023" y="1679" type="line"/>
      <point x="977" y="1679" type="line"/>
    </contour>
    <component base="T"/>
  </outline>
</glyph>
<glyph name="sswashtail" format="2">
  <advance height="2479" width="987"/>
  <unicode hex="023F"/>
  <anchor x="515" y="0" name="bottom"/>
  <anchor x="512" y="0" name="cedilla"/>
  <anchor x="518" y="1303" name="top"/>
  <outline>
    <contour>
      <point x="221" y="164" type="curve" name="hr00"/>
      <point x="180" y="141" type="line"/>
      <point x="429" y="-291" type="line" smooth="yes"/>
      <point x="481" y="-380"/>
      <point x="534" y="-419"/>
      <point x="605" y="-419" type="curve" smooth="yes"/>
      <point x="649" y="-419"/>
      <point x="691" y="-403"/>
      <point x="756" y="-355" type="curve"/>
      <point x="735" y="-314" type="line"/>
      <point x="679" y="-356"/>
      <point x="641" y="-372"/>
      <point x="604" y="-372" type="curve" smooth="yes"/>
      <point x="509" y="-372"/>
      <point x="497" y="-316"/>
    </contour>
    <component base="s"/>
  </outline>
</glyph>
<glyph name="zswashtail" format="2">
  <advance height="2479" width="1041"/>
  <unicode hex="0240"/>
  <outline>
    <contour>
      <point x="198" y="47" type="line"/>
      <point x="195" y="0" type="line"/>
      <point x="233" y="0" type="line" smooth="yes"/>
      <point x="605" y="0"/>
      <point x="655" y="-417"/>
      <point x="881" y="-417" type="curve" smooth="yes"/>
      <point x="909" y="-417"/>
      <point x="941" y="-412"/>
      <point x="972" y="-397" type="curve"/>
      <point x="972" y="-356" type="line"/>
      <point x="934" y="-368"/>
      <point x="912" y="-371"/>
      <point x="893" y="-371" type="curve" smooth="yes"/>
      <point x="673" y="-371"/>
      <point x="641" y="47"/>
      <point x="233" y="47" type="curve" smooth="yes"/>
    </contour>
    <contour>
      <point x="211" y="47" type="line"/>
      <point x="884" y="1071" type="line"/>
      <point x="884" y="1117" type="line"/>
      <point x="201" y="1117" type="line"/>
      <point x="201" y="1071" type="line"/>
      <point x="829" y="1071" type="line"/>
      <point x="157" y="47" type="line"/>
      <point x="157" y="0" type="line"/>
      <point x="211" y="0" type="line"/>
    </contour>
  </outline>
</glyph>
<glyph name="glottalstopsmall" format="2">
  <advance height="2479" width="963"/>
  <unicode hex="0242"/>
  <outline>
    <contour>
      <point x="492" y="345" type="line"/>
      <point x="509" y="345" type="line"/>
      <point x="704" y="343"/>
      <point x="832" y="498"/>
      <point x="832" y="733" type="curve" smooth="yes"/>
      <point x="832" y="976"/>
      <point x="695" y="1135"/>
      <point x="479" y="1135" type="curve" smooth="yes"/>
      <point x="277" y="1135"/>
      <point x="136" y="999"/>
      <point x="131" y="791" type="curve"/>
      <point x="177" y="791" type="line"/>
      <point x="181" y="970"/>
      <point x="304" y="1088"/>
      <point x="477" y="1088" type="curve" smooth="yes"/>
      <point x="667" y="1088"/>
      <point x="785" y="948"/>
      <point x="785" y="735" type="curve" smooth="yes"/>
      <point x="785" y="525"/>
      <point x="672" y="388"/>
      <point x="500" y="390" type="curve"/>
      <point x="492" y="390" type="line" name="hr00"/>
    </contour>
    <contour>
      <point x="483" y="0" type="line"/>
      <point x="529" y="0" type="line"/>
      <point x="529" y="390" type="line"/>
      <point x="483" y="390" type="line"/>
    </contour>
  </outline>
</glyph>
<glyph name="qhooktail" format="2">
  <advance height="2479" width="1206"/>
  <unicode hex="024B"/>
  <outline>
    <contour>
      <point x="1130" y="-416" type="curve" smooth="yes"/>
      <point x="1151" y="-416"/>
      <point x="1177" y="-415"/>
      <point x="1201" y="-412" type="curve"/>
      <point x="1201" y="-365" type="line"/>
      <point x="1176" y="-368"/>
      <point x="1149" y="-369"/>
      <point x="1130" y="-369" type="curve" smooth="yes"/>
      <point x="1028" y="-369"/>
      <point x="992" y="-324"/>
      <point x="992" y="-201" type="curve" smooth="yes"/>
      <point x="992" y="15" type="line" name="hr00"/>
      <point x="945" y="15" type="line"/>
      <point x="945" y="-201" type="line" smooth="yes"/>
      <point x="945" y="-351"/>
      <point x="1002" y="-416"/>
    </contour>
    <contour>
      <point x="561" y="-23" type="curve" smooth="yes"/>
      <point x="739" y="-23"/>
      <point x="881" y="93"/>
      <point x="940" y="279" type="curve"/>
      <point x="973" y="279" type="line"/>
      <point x="967" y="832" type="line"/>
      <point x="940" y="832" type="line"/>
      <point x="880" y="1018"/>
      <point x="742" y="1135"/>
      <point x="561" y="1135" type="curve" smooth="yes"/>
      <point x="298" y="1135"/>
      <point x="131" y="886"/>
      <point x="131" y="556" type="curve" smooth="yes"/>
      <point x="131" y="227"/>
      <point x="300" y="-23"/>
    </contour>
    <contour>
      <point x="992" y="-128" type="line"/>
      <point x="992" y="1117" type="line"/>
      <point x="945" y="1117" type="line"/>
      <point x="945" y="832" type="line"/>
      <point x="960" y="559" type="line"/>
      <point x="945" y="279" type="line"/>
      <point x="945" y="-128" type="line"/>
    </contour>
    <contour>
      <point x="561" y="23" type="curve" smooth="yes"/>
      <point x="326" y="23"/>
      <point x="177" y="253"/>
      <point x="177" y="556" type="curve" smooth="yes"/>
      <point x="177" y="858"/>
      <point x="324" y="1088"/>
      <point x="561" y="1088" type="curve" smooth="yes"/>
      <point x="799" y="1088"/>
      <point x="945" y="858"/>
      <point x="945" y="556" type="curve" smooth="yes"/>
      <point x="945" y="253"/>
      <point x="797" y="23"/>
    </contour>
  </outline>
</glyph>
<glyph name="Rstroke" format="2">
  <advance height="2479" width="1269"/>
  <unicode hex="024C"/>
  <anchor x="649" y="0" name="bottom"/>
  <anchor x="628" y="1676" name="top"/>
  <outline>
    <contour>
      <point x="250" y="643" type="line"/>
      <point x="250" y="689" type="line"/>
      <point x="32" y="689" type="line"/>
      <point x="32" y="643" type="line"/>
    </contour>
    <component base="R" xOffset="3"/>
  </outline>
</glyph>
<glyph name="oopen" format="2">
  <advance height="2479" width="1132"/>
  <unicode hex="0254"/>
  <outline>
    <contour>
      <point x="532" y="-23" type="curve" smooth="yes"/>
      <point x="804" y="-23"/>
      <point x="1001" y="225"/>
      <point x="1001" y="556" type="curve" smooth="yes"/>
      <point x="1001" y="883"/>
      <point x="805" y="1135"/>
      <point x="532" y="1135" type="curve" smooth="yes"/>
      <point x="332" y="1135"/>
      <point x="168" y="995"/>
      <point x="134" y="791" type="curve"/>
      <point x="183" y="791" type="line"/>
      <point x="213" y="967"/>
      <point x="356" y="1088"/>
      <point x="532" y="1088" type="curve" smooth="yes"/>
      <point x="773" y="1088"/>
      <point x="954" y="861"/>
      <point x="954" y="556" type="curve" smooth="yes"/>
      <point x="954" y="258"/>
      <point x="781" y="23"/>
      <point x="532" y="23" type="curve" smooth="yes"/>
      <point x="354" y="23"/>
      <point x="207" y="143"/>
      <point x="180" y="326" type="curve"/>
      <point x="131" y="326" type="line"/>
      <point x="164" y="115"/>
      <point x="329" y="-23"/>
    </contour>
  </outline>
</glyph>
<glyph name="dtail" format="2">
  <advance height="2479" width="1201"/>
  <unicode hex="0256"/>
  <anchor x="596" y="0" name="bottom"/>
  <anchor x="969" y="1280" name="cross"/>
  <anchor x="1123" y="1489" name="raccent"/>
  <anchor x="576" y="1489" name="top"/>
  <outline>
    <contour>
      <point x="1130" y="-416" type="curve" smooth="yes"/>
      <point x="1150" y="-416"/>
      <point x="1177" y="-415"/>
      <point x="1201" y="-412" type="curve"/>
      <point x="1201" y="-365" type="line"/>
      <point x="1176" y="-368"/>
      <point x="1149" y="-369"/>
      <point x="1130" y="-369" type="curve" smooth="yes"/>
      <point x="1028" y="-369"/>
      <point x="992" y="-324"/>
      <point x="992" y="-201" type="curve" smooth="yes"/>
      <point x="992" y="15" type="line" name="hr00"/>
      <point x="945" y="15" type="line"/>
      <point x="945" y="-201" type="line" smooth="yes"/>
      <point x="945" y="-351"/>
      <point x="1002" y="-416"/>
    </contour>
    <component base="d"/>
  </outline>
</glyph>
<glyph name="dhook" format="2">
  <advance height="2479" width="1176"/>
  <unicode hex="0257"/>
  <outline>
    <contour>
      <point x="561" y="-23" type="curve" smooth="yes"/>
      <point x="740" y="-23"/>
      <point x="879" y="95"/>
      <point x="940" y="279" type="curve"/>
      <point x="986" y="279" type="line"/>
      <point x="985" y="832" type="line"/>
      <point x="940" y="832" type="line"/>
      <point x="881" y="1018"/>
      <point x="739" y="1135"/>
      <point x="561" y="1135" type="curve" smooth="yes"/>
      <point x="300" y="1135"/>
      <point x="131" y="884"/>
      <point x="131" y="556" type="curve" smooth="yes"/>
      <point x="131" y="225"/>
      <point x="297" y="-23"/>
    </contour>
    <contour>
      <point x="945" y="1295" type="curve" smooth="yes"/>
      <point x="945" y="788" type="line"/>
      <point x="975" y="557" type="line"/>
      <point x="945" y="323" type="line"/>
      <point x="945" y="0" type="line"/>
      <point x="992" y="0" type="line"/>
      <point x="992" y="1295" type="line" smooth="yes"/>
      <point x="992" y="1418"/>
      <point x="1028" y="1463"/>
      <point x="1130" y="1463" type="curve" smooth="yes"/>
      <point x="1149" y="1463"/>
      <point x="1177" y="1462"/>
      <point x="1201" y="1459" type="curve"/>
      <point x="1201" y="1505" type="line"/>
      <point x="1177" y="1508"/>
      <point x="1151" y="1510"/>
      <point x="1130" y="1510" type="curve" smooth="yes"/>
      <point x="1002" y="1510"/>
      <point x="945" y="1446"/>
    </contour>
    <contour>
      <point x="561" y="23" type="curve" smooth="yes"/>
      <point x="324" y="23"/>
      <point x="177" y="253"/>
      <point x="177" y="556" type="curve" smooth="yes"/>
      <point x="177" y="858"/>
      <point x="326" y="1088"/>
      <point x="561" y="1088" type="curve" smooth="yes"/>
      <point x="797" y="1088"/>
      <point x="945" y="858"/>
      <point x="945" y="556" type="curve" smooth="yes"/>
      <point x="945" y="253"/>
      <point x="799" y="23"/>
    </contour>
  </outline>
</glyph>
<glyph name="schwahook" format="2">
  <advance height="2479" width="1441"/>
  <unicode hex="025A"/>
  <outline>
    <contour>
      <point x="588" y="-17" type="curve" smooth="yes"/>
      <point x="852" y="-17"/>
      <point x="1050" y="233"/>
      <point x="1050" y="561" type="curve" smooth="yes"/>
      <point x="1050" y="890"/>
      <point x="857" y="1140"/>
      <point x="564" y="1140" type="curve" smooth="yes"/>
      <point x="347" y="1140"/>
      <point x="227" y="1004"/>
      <point x="177" y="919" type="curve"/>
      <point x="215" y="893" type="line"/>
      <point x="256" y="960"/>
      <point x="359" y="1094"/>
      <point x="564" y="1094" type="curve" smooth="yes"/>
      <point x="806" y="1094"/>
      <point x="949" y="916"/>
      <point x="991" y="694" type="curve"/>
      <point x="131" y="559" type="line"/>
      <point x="131" y="512" type="line" smooth="yes"/>
      <point x="131" y="223"/>
      <point x="328" y="-17"/>
    </contour>
    <contour>
      <point x="588" y="29" type="curve" smooth="yes"/>
      <point x="354" y="29"/>
      <point x="177" y="250"/>
      <point x="177" y="518" type="curve"/>
      <point x="998" y="649" type="line"/>
      <point x="1002" y="617"/>
      <point x="1004" y="585"/>
      <point x="1004" y="553" type="curve" smooth="yes"/>
      <point x="1004" y="268"/>
      <point x="831" y="29"/>
    </contour>
    <contour>
      <point x="1300" y="451" type="curve" smooth="yes"/>
      <point x="1329" y="450"/>
      <point x="1357" y="457"/>
      <point x="1383" y="467" type="curve"/>
      <point x="1372" y="506" type="line"/>
      <point x="1356" y="500"/>
      <point x="1334" y="495"/>
      <point x="1309" y="496" type="curve" smooth="yes"/>
      <point x="1225" y="499"/>
      <point x="1175" y="568"/>
      <point x="1158" y="723" type="curve"/>
      <point x="1017" y="700" type="line"/>
      <point x="1024" y="653" type="line"/>
      <point x="1124" y="669" type="line"/>
      <point x="1140" y="533"/>
      <point x="1206" y="453"/>
    </contour>
  </outline>
</glyph>
<glyph name="eopenreversed" format="2">
  <advance height="2479" width="1162"/>
  <unicode hex="025C"/>
  <anchor x="547" y="1303" name="top"/>
  <outline>
    <contour>
      <point x="559" y="601" type="curve"/>
      <point x="480" y="601" type="line"/>
      <point x="480" y="554" type="line"/>
      <point x="591" y="554" type="line" smooth="yes"/>
      <point x="768" y="554"/>
      <point x="913" y="447"/>
      <point x="912" y="282" type="curve" smooth="yes"/>
      <point x="911" y="130"/>
      <point x="775" y="26"/>
      <point x="561" y="26" type="curve" smooth="yes"/>
      <point x="340" y="26"/>
      <point x="218" y="145"/>
      <point x="180" y="329" type="curve"/>
      <point x="137" y="329" type="line"/>
      <point x="169" y="121"/>
      <point x="314" y="-20"/>
      <point x="561" y="-20" type="curve" smooth="yes"/>
      <point x="812" y="-20"/>
      <point x="959" y="110"/>
      <point x="959" y="285" type="curve" smooth="yes"/>
      <point x="959" y="483"/>
      <point x="790" y="600"/>
    </contour>
    <contour>
      <point x="480" y="554" type="line"/>
      <point x="559" y="554" type="line"/>
      <point x="801" y="553"/>
      <point x="936" y="652"/>
      <point x="935" y="829" type="curve" smooth="yes"/>
      <point x="935" y="1012"/>
      <point x="788" y="1132"/>
      <point x="564" y="1132" type="curve" smooth="yes"/>
      <point x="365" y="1132"/>
      <point x="225" y="1024"/>
      <point x="192" y="820" type="curve"/>
      <point x="239" y="820" type="line"/>
      <point x="275" y="1003"/>
      <point x="391" y="1085"/>
      <point x="564" y="1085" type="curve" smooth="yes"/>
      <point x="761" y="1085"/>
      <point x="887" y="988"/>
      <point x="889" y="835" type="curve" smooth="yes"/>
      <point x="891" y="687"/>
      <point x="781" y="601"/>
      <point x="591" y="601" type="curve" smooth="yes"/>
      <point x="480" y="601" type="line"/>
    </contour>
  </outline>
</glyph>
<glyph name="eopenreversedhook" format="2">
  <advance height="2479" width="1249"/>
  <unicode hex="025D"/>
  <anchor x="544" y="1303" name="top"/>
  <outline>
    <contour>
      <point x="890" y="822" type="line"/>
      <point x="983" y="836" type="line"/>
      <point x="998" y="689"/>
      <point x="1063" y="610"/>
      <point x="1158" y="608" type="curve" smooth="yes"/>
      <point x="1188" y="607"/>
      <point x="1215" y="614"/>
      <point x="1242" y="624" type="curve"/>
      <point x="1231" y="663" type="line"/>
      <point x="1214" y="657"/>
      <point x="1192" y="652"/>
      <point x="1168" y="653" type="curve" smooth="yes"/>
      <point x="1084" y="656"/>
      <point x="1033" y="727"/>
      <point x="1017" y="890" type="curve"/>
      <point x="890" y="868" type="line"/>
    </contour>
    <component base="eopenreversed" xOffset="-3"/>
  </outline>
</glyph>
<glyph name="eopenreversedclosed" format="2">
  <advance height="2479" width="1013"/>
  <unicode hex="025E"/>
  <outline>
    <contour>
      <point x="513" y="-20" type="curve" smooth="yes"/>
      <point x="753" y="-20"/>
      <point x="911" y="101"/>
      <point x="911" y="285" type="curve" smooth="yes"/>
      <point x="911" y="475"/>
      <point x="752" y="600"/>
      <point x="511" y="601" type="curve"/>
      <point x="432" y="601" type="line"/>
      <point x="432" y="554" type="line"/>
      <point x="543" y="554" type="line" smooth="yes"/>
      <point x="729" y="554"/>
      <point x="865" y="439"/>
      <point x="864" y="282" type="curve" smooth="yes"/>
      <point x="863" y="128"/>
      <point x="724" y="26"/>
      <point x="513" y="26" type="curve" smooth="yes"/>
      <point x="259" y="26"/>
      <point x="134" y="203"/>
      <point x="134" y="561" type="curve"/>
      <point x="87" y="561" type="line"/>
      <point x="87" y="177"/>
      <point x="232" y="-20"/>
    </contour>
    <contour>
      <point x="511" y="554" type="line"/>
      <point x="753" y="553"/>
      <point x="888" y="652"/>
      <point x="887" y="829" type="curve" smooth="yes"/>
      <point x="887" y="1012"/>
      <point x="740" y="1132"/>
      <point x="516" y="1132" type="curve" smooth="yes"/>
      <point x="235" y="1132"/>
      <point x="87" y="935"/>
      <point x="87" y="559" type="curve"/>
      <point x="134" y="559" type="line"/>
      <point x="134" y="911"/>
      <point x="260" y="1085"/>
      <point x="516" y="1085" type="curve" smooth="yes"/>
      <point x="713" y="1085"/>
      <point x="839" y="988"/>
      <point x="841" y="835" type="curve" smooth="yes"/>
      <point x="843" y="687"/>
      <point x="733" y="601"/>
      <point x="543" y="601" type="curve" smooth="yes"/>
      <point x="432" y="601" type="line"/>
      <point x="432" y="554" type="line"/>
    </contour>
  </outline>
</glyph>
<glyph name="ghook" format="2">
  <advance height="2479" width="1183"/>
  <unicode hex="0260"/>
  <anchor x="558" y="-436" name="bottom"/>
  <anchor x="966" y="559" name="cross"/>
  <anchor x="593" y="1303" name="top"/>
  <outline>
    <contour>
      <point x="989" y="1094" type="line" name="hr00"/>
      <point x="989" y="1295" type="line" smooth="yes"/>
      <point x="989" y="1417"/>
      <point x="1025" y="1463"/>
      <point x="1127" y="1463" type="curve" smooth="yes"/>
      <point x="1146" y="1463"/>
      <point x="1173" y="1462"/>
      <point x="1199" y="1459" type="curve"/>
      <point x="1199" y="1505" type="line"/>
      <point x="1174" y="1508"/>
      <point x="1147" y="1510"/>
      <point x="1127" y="1510" type="curve" smooth="yes"/>
      <point x="999" y="1510"/>
      <point x="943" y="1445"/>
      <point x="943" y="1295" type="curve" smooth="yes"/>
      <point x="943" y="1094" type="line"/>
    </contour>
    <component base="g" xOffset="-3"/>
  </outline>
</glyph>
<glyph name="Gsmall" format="2">
  <advance height="2479" width="1168"/>
  <unicode hex="0262"/>
  <outline>
    <contour>
      <point x="980" y="765" type="curve"/>
      <point x="1028" y="765" type="line"/>
      <point x="991" y="988"/>
      <point x="820" y="1133"/>
      <point x="596" y="1133" type="curve" smooth="yes"/>
      <point x="316" y="1133"/>
      <point x="131" y="904"/>
      <point x="131" y="556" type="curve" smooth="yes"/>
      <point x="131" y="205"/>
      <point x="318" y="-25"/>
      <point x="604" y="-25" type="curve" smooth="yes"/>
      <point x="864" y="-25"/>
      <point x="1037" y="167"/>
      <point x="1037" y="458" type="curve" smooth="yes"/>
      <point x="1037" y="505" type="line"/>
      <point x="612" y="505" type="line"/>
      <point x="612" y="458" type="line"/>
      <point x="1012" y="458" type="line"/>
      <point x="991" y="484" type="line"/>
      <point x="994" y="209"/>
      <point x="839" y="25"/>
      <point x="602" y="26" type="curve" smooth="yes"/>
      <point x="346" y="25"/>
      <point x="178" y="237"/>
      <point x="179" y="556" type="curve" smooth="yes"/>
      <point x="178" y="875"/>
      <point x="345" y="1085"/>
      <point x="598" y="1085" type="curve" smooth="yes"/>
      <point x="795" y="1085"/>
      <point x="947" y="958"/>
    </contour>
  </outline>
</glyph>
<glyph name="gamma-latin" format="2">
  <advance height="2479" width="1083"/>
  <unicode hex="0263"/>
  <outline>
    <contour>
      <point x="538" y="-442" type="curve" smooth="yes"/>
      <point x="633" y="-442"/>
      <point x="707" y="-380"/>
      <point x="707" y="-297" type="curve" smooth="yes"/>
      <point x="707" y="-243"/>
      <point x="674" y="-155"/>
      <point x="570" y="73" type="curve" smooth="yes"/>
      <point x="95" y="1117" type="line"/>
      <point x="44" y="1117" type="line"/>
      <point x="512" y="90" type="line" smooth="yes"/>
      <point x="612" y="-129"/>
      <point x="660" y="-255"/>
      <point x="660" y="-303" type="curve" smooth="yes"/>
      <point x="660" y="-355"/>
      <point x="605" y="-396"/>
      <point x="538" y="-396" type="curve" smooth="yes"/>
      <point x="471" y="-396"/>
      <point x="415" y="-355"/>
      <point x="415" y="-303" type="curve" smooth="yes"/>
      <point x="415" y="-261"/>
      <point x="452" y="-166"/>
      <point x="561" y="76" type="curve" smooth="yes"/>
      <point x="1036" y="1117" type="line"/>
      <point x="985" y="1117" type="line"/>
      <point x="502" y="57" type="line" smooth="yes"/>
      <point x="396" y="-175"/>
      <point x="368" y="-249"/>
      <point x="368" y="-301" type="curve" smooth="yes"/>
      <point x="368" y="-381"/>
      <point x="443" y="-442"/>
    </contour>
  </outline>
</glyph>
<glyph name="ramshorn" format="2">
  <advance height="2479" width="1504"/>
  <unicode hex="0264"/>
  <outline>
    <contour>
      <point x="752" y="-20" type="curve"/>
      <point x="752" y="26" type="line"/>
      <point x="652" y="26"/>
      <point x="586" y="79"/>
      <point x="586" y="160" type="curve" smooth="yes"/>
      <point x="586" y="211"/>
      <point x="617" y="315"/>
      <point x="793" y="659" type="curve" smooth="yes"/>
      <point x="964" y="994"/>
      <point x="1034" y="1088"/>
      <point x="1137" y="1088" type="curve" smooth="yes"/>
      <point x="1206" y="1088"/>
      <point x="1261" y="1052"/>
      <point x="1303" y="979" type="curve"/>
      <point x="1337" y="1012" type="line"/>
      <point x="1286" y="1093"/>
      <point x="1218" y="1135"/>
      <point x="1136" y="1135" type="curve" smooth="yes"/>
      <point x="1015" y="1135"/>
      <point x="939" y="1044"/>
      <point x="739" y="656" type="curve" smooth="yes"/>
      <point x="565" y="318"/>
      <point x="540" y="219"/>
      <point x="540" y="160" type="curve" smooth="yes"/>
      <point x="540" y="51"/>
      <point x="626" y="-20"/>
    </contour>
    <contour>
      <point x="752" y="-20" type="line"/>
      <point x="878" y="-20"/>
      <point x="964" y="51"/>
      <point x="964" y="160" type="curve" smooth="yes"/>
      <point x="964" y="219"/>
      <point x="939" y="318"/>
      <point x="765" y="656" type="curve" smooth="yes"/>
      <point x="565" y="1044"/>
      <point x="489" y="1135"/>
      <point x="368" y="1135" type="curve" smooth="yes"/>
      <point x="286" y="1135"/>
      <point x="218" y="1093"/>
      <point x="167" y="1012" type="curve"/>
      <point x="201" y="979" type="line"/>
      <point x="243" y="1052"/>
      <point x="298" y="1088"/>
      <point x="367" y="1088" type="curve" smooth="yes"/>
      <point x="470" y="1088"/>
      <point x="540" y="994"/>
      <point x="717" y="647" type="curve" smooth="yes"/>
      <point x="887" y="315"/>
      <point x="918" y="211"/>
      <point x="918" y="160" type="curve" smooth="yes"/>
      <point x="918" y="79"/>
      <point x="852" y="26"/>
      <point x="752" y="26" type="curve"/>
    </contour>
  </outline>
</glyph>
<glyph name="henghook" format="2">
  <advance height="2479" width="1164"/>
  <unicode hex="0267"/>
  <anchor x="582" y="0" name="bottom"/>
  <anchor x="585" y="1303" name="top"/>
  <outline>
    <contour>
      <point x="919" y="0" type="line"/>
      <point x="919" y="-169" type="line" smooth="yes"/>
      <point x="919" y="-305"/>
      <point x="867" y="-369"/>
      <point x="764" y="-369" type="curve" smooth="yes"/>
      <point x="738" y="-369"/>
      <point x="714" y="-366"/>
      <point x="695" y="-361" type="curve"/>
      <point x="695" y="-403" type="line"/>
      <point x="713" y="-412"/>
      <point x="739" y="-416"/>
      <point x="768" y="-416" type="curve" smooth="yes"/>
      <point x="895" y="-416"/>
      <point x="966" y="-330"/>
      <point x="966" y="-169" type="curve" smooth="yes"/>
      <point x="966" y="0" type="line"/>
    </contour>
    <component base="hhook"/>
  </outline>
</glyph>
<glyph name="mlonglegturned" format="2">
  <advance height="2479" width="1711"/>
  <unicode hex="0270"/>
  <anchor x="855" y="0" name="bottom"/>
  <anchor x="855" y="1303" name="top"/>
  <outline>
    <contour>
      <point x="1466" y="-419" type="line"/>
      <point x="1513" y="-419" type="line"/>
      <point x="1513" y="0" type="line"/>
      <point x="1466" y="0" type="line"/>
    </contour>
    <component base="mturned"/>
  </outline>
</glyph>
<glyph name="mhook" format="2">
  <advance height="2479" width="1711"/>
  <unicode hex="0271"/>
  <anchor x="855" y="0" name="bottom"/>
  <anchor x="855" y="1303" name="top"/>
  <outline>
    <contour>
      <point x="1466" y="0" type="line"/>
      <point x="1466" y="-169" type="line" smooth="yes"/>
      <point x="1466" y="-305"/>
      <point x="1414" y="-369"/>
      <point x="1312" y="-369" type="curve" smooth="yes"/>
      <point x="1285" y="-369"/>
      <point x="1261" y="-365"/>
      <point x="1242" y="-361" type="curve"/>
      <point x="1242" y="-403" type="line"/>
      <point x="1260" y="-412"/>
      <point x="1286" y="-416"/>
      <point x="1315" y="-416" type="curve" smooth="yes"/>
      <point x="1441" y="-416"/>
      <point x="1513" y="-330"/>
      <point x="1513" y="-169" type="curve" smooth="yes"/>
      <point x="1513" y="0" type="line"/>
    </contour>
    <component base="m"/>
  </outline>
</glyph>
<glyph name="nhookleft" format="2">
  <advance height="2479" width="1161"/>
  <unicode hex="0272"/>
  <anchor x="579" y="0" name="bottom"/>
  <anchor x="582" y="1303" name="top"/>
  <outline>
    <contour>
      <point x="195" y="0" type="line"/>
      <point x="195" y="-169" type="line" smooth="yes"/>
      <point x="195" y="-305"/>
      <point x="143" y="-369"/>
      <point x="41" y="-369" type="curve" smooth="yes"/>
      <point x="14" y="-369"/>
      <point x="-10" y="-365"/>
      <point x="-29" y="-361" type="curve"/>
      <point x="-29" y="-403" type="line"/>
      <point x="-12" y="-412"/>
      <point x="15" y="-416"/>
      <point x="44" y="-416" type="curve" smooth="yes"/>
      <point x="170" y="-416"/>
      <point x="241" y="-330"/>
      <point x="241" y="-169" type="curve" smooth="yes"/>
      <point x="241" y="0" type="line"/>
    </contour>
    <component base="n" xOffset="-3"/>
  </outline>
</glyph>
<glyph name="nhookretroflex" format="2">
  <advance height="2479" width="1057"/>
  <unicode hex="0273"/>
  <anchor x="582" y="0" name="bottom"/>
  <anchor x="585" y="1303" name="top"/>
  <outline>
    <contour>
      <point x="966" y="15" type="line" name="hr00"/>
      <point x="919" y="15" type="line"/>
      <point x="919" y="-201" type="line" smooth="yes"/>
      <point x="919" y="-351"/>
      <point x="976" y="-416"/>
      <point x="1104" y="-416" type="curve" smooth="yes"/>
      <point x="1124" y="-416"/>
      <point x="1151" y="-415"/>
      <point x="1175" y="-412" type="curve"/>
      <point x="1175" y="-365" type="line"/>
      <point x="1150" y="-368"/>
      <point x="1123" y="-369"/>
      <point x="1104" y="-369" type="curve" smooth="yes"/>
      <point x="1001" y="-369"/>
      <point x="966" y="-324"/>
      <point x="966" y="-201" type="curve" smooth="yes"/>
    </contour>
    <component base="n"/>
  </outline>
</glyph>
<glyph name="OEsmall" format="2">
  <advance height="2479" width="1479"/>
  <unicode hex="0276"/>
  <outline>
    <contour>
      <point x="726" y="0" type="line"/>
      <point x="1348" y="0" type="line"/>
      <point x="1348" y="47" type="line"/>
      <point x="772" y="47" type="line"/>
      <point x="772" y="535" type="line"/>
      <point x="1300" y="535" type="line"/>
      <point x="1300" y="582" type="line"/>
      <point x="772" y="582" type="line"/>
      <point x="772" y="1071" type="line"/>
      <point x="1334" y="1071" type="line"/>
      <point x="1334" y="1117" type="line"/>
      <point x="726" y="1117" type="line"/>
    </contour>
    <contour>
      <point x="607" y="0" type="curve" smooth="yes"/>
      <point x="743" y="0" type="line"/>
      <point x="743" y="47" type="line"/>
      <point x="607" y="47" type="line" smooth="yes"/>
      <point x="348" y="47"/>
      <point x="178" y="250"/>
      <point x="177" y="559" type="curve" smooth="yes"/>
      <point x="178" y="867"/>
      <point x="348" y="1071"/>
      <point x="607" y="1071" type="curve" smooth="yes"/>
      <point x="743" y="1071" type="line"/>
      <point x="743" y="1117" type="line"/>
      <point x="607" y="1117" type="line" smooth="yes"/>
      <point x="321" y="1117"/>
      <point x="132" y="895"/>
      <point x="131" y="559" type="curve" smooth="yes"/>
      <point x="132" y="222"/>
      <point x="321" y="0"/>
    </contour>
  </outline>
</glyph>
<glyph name="rlonglegturned" format="2">
  <advance height="2479" width="666"/>
  <unicode hex="027A"/>
  <outline>
    <contour>
      <point x="81" y="-15" type="curve" smooth="yes"/>
      <point x="236" y="-15"/>
      <point x="364" y="61"/>
      <point x="416" y="177" type="curve"/>
      <point x="422" y="177" type="line"/>
      <point x="422" y="0" type="line"/>
      <point x="468" y="0" type="line"/>
      <point x="468" y="1510" type="line"/>
      <point x="422" y="1510" type="line"/>
      <point x="422" y="367" type="line" smooth="yes"/>
      <point x="422" y="172"/>
      <point x="279" y="32"/>
      <point x="81" y="32" type="curve" smooth="yes"/>
      <point x="70" y="32"/>
      <point x="70" y="32"/>
      <point x="58" y="32" type="curve"/>
      <point x="58" y="-15" type="line"/>
      <point x="70" y="-15"/>
      <point x="70" y="-15"/>
    </contour>
  </outline>
</glyph>
<glyph name="rhookturned" format="2">
  <advance height="2479" width="643"/>
  <unicode hex="027B"/>
  <anchor x="343" y="0" name="bottom"/>
  <anchor x="445.0" y="582.0" name="cross"/>
  <anchor x="444" y="1303" name="top"/>
  <outline>
    <contour>
      <point x="628" y="-393" type="curve" smooth="yes"/>
      <point x="640" y="-393"/>
      <point x="655" y="-393"/>
      <point x="666" y="-393" type="curve"/>
      <point x="666" y="-346" type="line"/>
      <point x="655" y="-346"/>
      <point x="640" y="-346"/>
      <point x="628" y="-346" type="curve" smooth="yes"/>
      <point x="535" y="-346"/>
      <point x="468" y="-280"/>
      <point x="468" y="-186" type="curve" smooth="yes"/>
      <point x="468" y="0" type="line"/>
      <point x="422" y="0" type="line"/>
      <point x="422" y="-186" type="line" smooth="yes"/>
      <point x="422" y="-307"/>
      <point x="508" y="-393"/>
    </contour>
    <component base="rturned"/>
  </outline>
</glyph>
<glyph name="rfishhookreversed" format="2">
  <advance height="2479" width="457"/>
  <unicode hex="027F"/>
  <outline>
    <contour>
      <point x="266" y="-416" type="line"/>
      <point x="266" y="941" type="line"/>
      <point x="266" y="1092"/>
      <point x="209" y="1156"/>
      <point x="81" y="1156" type="curve" smooth="yes"/>
      <point x="62" y="1156"/>
      <point x="35" y="1155"/>
      <point x="10" y="1152" type="curve"/>
      <point x="10" y="1105" type="line"/>
      <point x="36" y="1108"/>
      <point x="63" y="1110"/>
      <point x="81" y="1110" type="curve" smooth="yes"/>
      <point x="184" y="1110"/>
      <point x="220" y="1064"/>
      <point x="220" y="941" type="curve"/>
      <point x="220" y="-416" type="line"/>
    </contour>
  </outline>
</glyph>
<glyph name="Rsmallinverted" format="2">
  <advance height="2479" width="1119"/>
  <unicode hex="0281"/>
  <outline>
    <contour>
      <point x="203" y="0" type="line"/>
      <point x="578" y="0" type="line" smooth="yes"/>
      <point x="820" y="0"/>
      <point x="927" y="89"/>
      <point x="927" y="291" type="curve" smooth="yes"/>
      <point x="927" y="491"/>
      <point x="819" y="582"/>
      <point x="578" y="582" type="curve" smooth="yes"/>
      <point x="226" y="582" type="line"/>
      <point x="226" y="535" type="line"/>
      <point x="578" y="535" type="line" smooth="yes"/>
      <point x="789" y="535"/>
      <point x="880" y="468"/>
      <point x="880" y="291" type="curve" smooth="yes"/>
      <point x="880" y="113"/>
      <point x="792" y="47"/>
      <point x="578" y="47" type="curve" smooth="yes"/>
      <point x="249" y="45" type="line"/>
      <point x="249" y="1117" type="line"/>
      <point x="203" y="1117" type="line"/>
    </contour>
    <contour>
      <point x="633" y="561" type="line"/>
      <point x="687" y="561" type="line"/>
      <point x="1017" y="1117" type="line"/>
      <point x="963" y="1117" type="line"/>
    </contour>
  </outline>
</glyph>
<glyph name="shook" format="2">
  <advance height="2479" width="1009"/>
  <unicode hex="0282"/>
  <anchor x="515" y="0" name="bottom"/>
  <anchor x="512" y="0" name="cedilla"/>
  <anchor x="518" y="1303" name="top"/>
  <outline>
    <contour>
      <point x="137" y="256" type="line"/>
      <point x="137" y="-39" type="line" smooth="yes"/>
      <point x="137" y="-190"/>
      <point x="193" y="-255"/>
      <point x="321" y="-255" type="curve" smooth="yes"/>
      <point x="341" y="-255"/>
      <point x="368" y="-253"/>
      <point x="393" y="-250" type="curve"/>
      <point x="393" y="-204" type="line"/>
      <point x="367" y="-207"/>
      <point x="340" y="-208"/>
      <point x="321" y="-208" type="curve" smooth="yes"/>
      <point x="219" y="-208"/>
      <point x="183" y="-162"/>
      <point x="183" y="-39" type="curve" smooth="yes"/>
      <point x="183" y="256" type="line" name="hr00"/>
    </contour>
    <component base="s"/>
  </outline>
</glyph>
<glyph name="eshcurl" format="2">
  <advance height="2479" width="1071"/>
  <unicode hex="0286"/>
  <outline>
    <contour>
      <point x="649" y="60" type="line"/>
      <point x="602" y="60" type="line"/>
      <point x="602" y="-23"/>
      <point x="602" y="-97"/>
      <point x="602" y="-170" type="curve" smooth="yes"/>
      <point x="602" y="-287"/>
      <point x="511" y="-374"/>
      <point x="390" y="-374" type="curve" smooth="yes"/>
      <point x="273" y="-374"/>
      <point x="183" y="-293"/>
      <point x="183" y="-193" type="curve" smooth="yes"/>
      <point x="183" y="-94"/>
      <point x="275" y="-13"/>
      <point x="393" y="-13" type="curve" smooth="yes"/>
      <point x="506" y="-13"/>
      <point x="599" y="-92"/>
      <point x="732" y="-304" type="curve" smooth="yes"/>
      <point x="796" y="-406" type="line"/>
      <point x="835" y="-383" type="line"/>
      <point x="769" y="-278" type="line" smooth="yes"/>
      <point x="628" y="-51"/>
      <point x="524" y="33"/>
      <point x="393" y="33" type="curve" smooth="yes"/>
      <point x="248" y="33"/>
      <point x="137" y="-68"/>
      <point x="137" y="-193" type="curve" smooth="yes"/>
      <point x="137" y="-319"/>
      <point x="248" y="-420"/>
      <point x="390" y="-420" type="curve" smooth="yes"/>
      <point x="535" y="-420"/>
      <point x="649" y="-308"/>
      <point x="649" y="-170" type="curve"/>
    </contour>
    <contour>
      <point x="649" y="-15" type="line"/>
      <point x="649" y="1300" type="line" smooth="yes"/>
      <point x="649" y="1424"/>
      <point x="737" y="1510"/>
      <point x="858" y="1510" type="curve" smooth="yes"/>
      <point x="887" y="1510"/>
      <point x="927" y="1505"/>
      <point x="961" y="1497" type="curve"/>
      <point x="961" y="1540" type="line"/>
      <point x="935" y="1551"/>
      <point x="895" y="1556"/>
      <point x="858" y="1556" type="curve" smooth="yes"/>
      <point x="711" y="1556"/>
      <point x="602" y="1447"/>
      <point x="602" y="1300" type="curve" smooth="yes"/>
      <point x="602" y="-15" type="line"/>
    </contour>
  </outline>
</glyph>
<glyph name="tretroflexhook" format="2">
  <advance height="2479" width="713"/>
  <unicode hex="0288"/>
  <outline>
    <contour>
      <point x="547" y="1117" type="line"/>
      <point x="105" y="1117" type="line"/>
      <point x="105" y="1071" type="line"/>
      <point x="547" y="1071" type="line"/>
    </contour>
    <contour>
      <point x="268" y="1385" type="line"/>
      <point x="268" y="-188" type="line" smooth="yes"/>
      <point x="268" y="-345"/>
      <point x="387" y="-444"/>
      <point x="524" y="-444" type="curve" smooth="yes"/>
      <point x="559" y="-444"/>
      <point x="585" y="-438"/>
      <point x="614" y="-426" type="curve"/>
      <point x="599" y="-383" type="line"/>
      <point x="575" y="-391"/>
      <point x="553" y="-397"/>
      <point x="524" y="-397" type="curve" smooth="yes"/>
      <point x="413" y="-397"/>
      <point x="314" y="-317"/>
      <point x="314" y="-188" type="curve" smooth="yes"/>
      <point x="314" y="1385" type="line"/>
    </contour>
  </outline>
</glyph>
<glyph name="ubar" format="2">
  <advance height="2479" width="1145"/>
  <unicode hex="0289"/>
  <anchor x="602" y="0" name="bottom"/>
  <anchor x="986" y="0" name="ogonek"/>
  <anchor x="602" y="1303" name="top"/>
  <outline>
    <contour>
      <point x="1146" y="673" type="line"/>
      <point x="0" y="673" type="line"/>
      <point x="0" y="627" type="line"/>
      <point x="1146" y="627" type="line"/>
    </contour>
    <component base="u" xOffset="20"/>
  </outline>
</glyph>
<glyph name="zcurl" format="2">
  <advance height="2479" width="1149"/>
  <unicode hex="0291"/>
  <outline>
    <contour>
      <point x="758" y="0" type="line"/>
      <point x="852" y="0" type="line"/>
      <point x="994" y="0"/>
      <point x="1105" y="101"/>
      <point x="1105" y="227" type="curve" smooth="yes"/>
      <point x="1105" y="353"/>
      <point x="994" y="454"/>
      <point x="849" y="454" type="curve" smooth="yes"/>
      <point x="718" y="454"/>
      <point x="619" y="368"/>
      <point x="473" y="143" type="curve" smooth="yes"/>
      <point x="305" y="-115" type="line"/>
      <point x="345" y="-138" type="line"/>
      <point x="511" y="116" type="line" smooth="yes"/>
      <point x="648" y="327"/>
      <point x="736" y="407"/>
      <point x="849" y="407" type="curve" smooth="yes"/>
      <point x="967" y="407"/>
      <point x="1059" y="327"/>
      <point x="1059" y="227" type="curve" smooth="yes"/>
      <point x="1059" y="127"/>
      <point x="969" y="47"/>
      <point x="852" y="47" type="curve"/>
      <point x="758" y="47" type="line"/>
    </contour>
    <contour>
      <point x="826" y="47" type="line"/>
      <point x="212" y="47" type="line"/>
      <point x="884" y="1071" type="line"/>
      <point x="884" y="1117" type="line"/>
      <point x="201" y="1117" type="line"/>
      <point x="201" y="1071" type="line"/>
      <point x="831" y="1071" type="line"/>
      <point x="157" y="47" type="line"/>
      <point x="157" y="0" type="line"/>
      <point x="826" y="0" type="line"/>
    </contour>
  </outline>
</glyph>
<glyph name="glottalstopreversed" format="2">
  <advance height="2479" width="1129"/>
  <unicode hex="0295"/>
  <anchor x="599" y="227" name="cross"/>
  <outline>
    <contour>
      <point x="599" y="458" type="curve"/>
      <point x="599" y="505" type="line"/>
      <point x="345" y="505"/>
      <point x="177" y="697"/>
      <point x="177" y="993" type="curve" smooth="yes"/>
      <point x="177" y="1284"/>
      <point x="339" y="1478"/>
      <point x="583" y="1478" type="curve" smooth="yes"/>
      <point x="773" y="1478"/>
      <point x="918" y="1360"/>
      <point x="948" y="1181" type="curve"/>
      <point x="998" y="1181" type="line"/>
      <point x="963" y="1388"/>
      <point x="799" y="1524"/>
      <point x="582" y="1524" type="curve" smooth="yes"/>
      <point x="311" y="1524"/>
      <point x="131" y="1312"/>
      <point x="131" y="993" type="curve" smooth="yes"/>
      <point x="131" y="669"/>
      <point x="317" y="458"/>
    </contour>
    <contour>
      <point x="576" y="0" type="line"/>
      <point x="623" y="0" type="line"/>
      <point x="623" y="505" type="line"/>
      <point x="576" y="505" type="line"/>
    </contour>
  </outline>
</glyph>
<glyph name="glottalstopinverted" format="2">
  <advance height="2479" width="1129"/>
  <unicode hex="0296"/>
  <anchor x="529" y="1271" name="cross"/>
  <outline>
    <contour>
      <point x="547" y="-23" type="curve" smooth="yes"/>
      <point x="818" y="-23"/>
      <point x="998" y="189"/>
      <point x="998" y="508" type="curve" smooth="yes"/>
      <point x="998" y="832"/>
      <point x="812" y="1043"/>
      <point x="529" y="1043" type="curve"/>
      <point x="529" y="996" type="line"/>
      <point x="784" y="996"/>
      <point x="951" y="804"/>
      <point x="951" y="508" type="curve" smooth="yes"/>
      <point x="951" y="217"/>
      <point x="790" y="23"/>
      <point x="545" y="23" type="curve" smooth="yes"/>
      <point x="356" y="23"/>
      <point x="211" y="141"/>
      <point x="180" y="320" type="curve"/>
      <point x="131" y="320" type="line"/>
      <point x="166" y="112"/>
      <point x="330" y="-23"/>
    </contour>
    <contour>
      <point x="506" y="996" type="line"/>
      <point x="553" y="996" type="line"/>
      <point x="553" y="1510" type="line"/>
      <point x="506" y="1510" type="line"/>
    </contour>
  </outline>
</glyph>
<glyph name="cstretched" format="2">
  <advance height="2479" width="1132"/>
  <unicode hex="0297"/>
  <outline>
    <contour>
      <point x="599" y="-439" type="curve" smooth="yes"/>
      <point x="805" y="-439"/>
      <point x="978" y="-289"/>
      <point x="1001" y="-90" type="curve"/>
      <point x="951" y="-90" type="line"/>
      <point x="932" y="-262"/>
      <point x="781" y="-392"/>
      <point x="599" y="-393" type="curve" smooth="yes"/>
      <point x="345" y="-392"/>
      <point x="177" y="-98"/>
      <point x="177" y="348" type="curve" smooth="yes"/>
      <point x="177" y="793"/>
      <point x="345" y="1087"/>
      <point x="599" y="1088" type="curve" smooth="yes"/>
      <point x="777" y="1087"/>
      <point x="927" y="960"/>
      <point x="948" y="791" type="curve"/>
      <point x="998" y="791" type="line"/>
      <point x="974" y="987"/>
      <point x="802" y="1135"/>
      <point x="599" y="1135" type="curve" smooth="yes"/>
      <point x="317" y="1135"/>
      <point x="131" y="822"/>
      <point x="131" y="348" type="curve" smooth="yes"/>
      <point x="131" y="-127"/>
      <point x="317" y="-439"/>
    </contour>
  </outline>
</glyph>
<glyph name="eopenclosed" format="2">
  <advance height="2479" width="1012"/>
  <unicode hex="029A"/>
  <outline>
    <contour>
      <point x="499" y="-20" type="curve" smooth="yes"/>
      <point x="780" y="-20"/>
      <point x="925" y="177"/>
      <point x="925" y="561" type="curve"/>
      <point x="879" y="561" type="line"/>
      <point x="879" y="203"/>
      <point x="753" y="26"/>
      <point x="499" y="26" type="curve" smooth="yes"/>
      <point x="288" y="26"/>
      <point x="149" y="128"/>
      <point x="148" y="282" type="curve" smooth="yes"/>
      <point x="148" y="439"/>
      <point x="283" y="554"/>
      <point x="470" y="554" type="curve" smooth="yes"/>
      <point x="580" y="554" type="line"/>
      <point x="580" y="601" type="line"/>
      <point x="502" y="601" type="line"/>
      <point x="260" y="600"/>
      <point x="102" y="475"/>
      <point x="102" y="285" type="curve" smooth="yes"/>
      <point x="102" y="101"/>
      <point x="260" y="-20"/>
    </contour>
    <contour>
      <point x="502" y="554" type="curve"/>
      <point x="580" y="554" type="line"/>
      <point x="580" y="601" type="line"/>
      <point x="470" y="601" type="line" smooth="yes"/>
      <point x="279" y="601"/>
      <point x="169" y="687"/>
      <point x="172" y="835" type="curve" smooth="yes"/>
      <point x="174" y="988"/>
      <point x="300" y="1085"/>
      <point x="496" y="1085" type="curve" smooth="yes"/>
      <point x="753" y="1085"/>
      <point x="879" y="911"/>
      <point x="879" y="559" type="curve"/>
      <point x="925" y="559" type="line"/>
      <point x="925" y="935"/>
      <point x="777" y="1132"/>
      <point x="496" y="1132" type="curve" smooth="yes"/>
      <point x="273" y="1132"/>
      <point x="126" y="1012"/>
      <point x="125" y="829" type="curve" smooth="yes"/>
      <point x="124" y="652"/>
      <point x="260" y="553"/>
    </contour>
  </outline>
</glyph>
<glyph name="dzaltone" format="2">
  <advance height="2479" width="2010"/>
  <unicode hex="02A3"/>
  <anchor x="596" y="0" name="bottom"/>
  <anchor x="969" y="1280" name="cross"/>
  <anchor x="1123" y="1489" name="raccent"/>
  <anchor x="576" y="1489" name="top"/>
  <outline>
    <contour>
      <point x="1126" y="0" type="line"/>
      <point x="1882" y="0" type="line"/>
      <point x="1882" y="47" type="line"/>
      <point x="1184" y="47" type="line"/>
      <point x="1184" y="52" type="line"/>
      <point x="1853" y="1071" type="line"/>
      <point x="1853" y="1117" type="line"/>
      <point x="972" y="1117" type="line"/>
      <point x="972" y="1071" type="line"/>
      <point x="1795" y="1071" type="line"/>
      <point x="1795" y="1065" type="line"/>
      <point x="1126" y="47" type="line"/>
    </contour>
    <component base="d"/>
  </outline>
</glyph>
<glyph name="dezh" format="2">
  <advance height="2479" width="2061"/>
  <unicode hex="02A4"/>
  <anchor x="596" y="0" name="bottom"/>
  <anchor x="969" y="1280" name="cross"/>
  <anchor x="1123" y="1489" name="raccent"/>
  <anchor x="576" y="1489" name="top"/>
  <outline>
    <contour>
      <point x="1424" y="-442" type="curve" smooth="yes"/>
      <point x="1688" y="-442"/>
      <point x="1880" y="-244"/>
      <point x="1880" y="22" type="curve" smooth="yes"/>
      <point x="1880" y="287"/>
      <point x="1688" y="461"/>
      <point x="1398" y="474" type="curve"/>
      <point x="1398" y="480" type="line"/>
      <point x="1875" y="1079" type="line"/>
      <point x="1875" y="1117" type="line"/>
      <point x="987" y="1117" type="line"/>
      <point x="987" y="1071" type="line"/>
      <point x="1805" y="1071" type="line"/>
      <point x="1805" y="1065" type="line"/>
      <point x="1337" y="477" type="line"/>
      <point x="1337" y="431" type="line"/>
      <point x="1340" y="431" type="line" smooth="yes"/>
      <point x="1637" y="431"/>
      <point x="1833" y="273"/>
      <point x="1833" y="20" type="curve" smooth="yes"/>
      <point x="1833" y="-217"/>
      <point x="1661" y="-396"/>
      <point x="1424" y="-396" type="curve" smooth="yes"/>
      <point x="1256" y="-396"/>
      <point x="1123" y="-332"/>
      <point x="1072" y="-201" type="curve"/>
      <point x="1029" y="-218" type="line"/>
      <point x="1085" y="-367"/>
      <point x="1237" y="-442"/>
    </contour>
    <component base="d"/>
  </outline>
</glyph>
<glyph name="lsdigraph" format="2">
  <advance height="2479" width="1301"/>
  <unicode hex="02AA"/>
  <anchor x="201" y="0" name="bottom"/>
  <anchor x="128" y="768" name="cross"/>
  <anchor x="288" y="1489" name="raccent"/>
  <anchor x="128" y="1676" name="top"/>
  <outline>
    <contour>
      <point x="264" y="-5" type="line"/>
      <point x="405" y="-5"/>
      <point x="455" y="73"/>
      <point x="476" y="256" type="curve"/>
      <point x="428" y="256" type="line"/>
      <point x="405" y="91"/>
      <point x="379" y="41"/>
      <point x="264" y="41" type="curve"/>
    </contour>
    <contour>
      <point x="796" y="-23" type="curve" smooth="yes"/>
      <point x="1015" y="-23"/>
      <point x="1168" y="100"/>
      <point x="1168" y="282" type="curve" smooth="yes"/>
      <point x="1168" y="420"/>
      <point x="1082" y="520"/>
      <point x="918" y="561" type="curve" smooth="yes"/>
      <point x="743" y="605" type="line" smooth="yes"/>
      <point x="591" y="643"/>
      <point x="516" y="724"/>
      <point x="516" y="841" type="curve" smooth="yes"/>
      <point x="516" y="989"/>
      <point x="638" y="1088"/>
      <point x="816" y="1088" type="curve" smooth="yes"/>
      <point x="970" y="1088"/>
      <point x="1067" y="1015"/>
      <point x="1113" y="870" type="curve"/>
      <point x="1159" y="881" type="line"/>
      <point x="1105" y="1049"/>
      <point x="988" y="1135"/>
      <point x="816" y="1135" type="curve" smooth="yes"/>
      <point x="612" y="1135"/>
      <point x="470" y="1016"/>
      <point x="470" y="841" type="curve" smooth="yes"/>
      <point x="470" y="701"/>
      <point x="560" y="602"/>
      <point x="732" y="559" type="curve" smooth="yes"/>
      <point x="906" y="515" type="line" smooth="yes"/>
      <point x="1050" y="479"/>
      <point x="1122" y="398"/>
      <point x="1122" y="282" type="curve" smooth="yes"/>
      <point x="1122" y="127"/>
      <point x="990" y="23"/>
      <point x="796" y="23" type="curve" smooth="yes"/>
      <point x="623" y="23"/>
      <point x="506" y="108"/>
      <point x="476" y="256" type="curve"/>
      <point x="428" y="256" type="line"/>
      <point x="466" y="78"/>
      <point x="597" y="-23"/>
    </contour>
    <component base="l.ss02" xOffset="-93"/>
  </outline>
</glyph>
<glyph name="bilabialpercussive" format="2">
  <advance height="2479" width="623"/>
  <unicode hex="02AC"/>
  <outline>
    <contour>
      <point x="134" y="916" type="line"/>
      <point x="134" y="873" type="line"/>
      <point x="169" y="873" type="line"/>
      <point x="314" y="1379" type="line"/>
      <point x="314" y="1457" type="line"/>
      <point x="288" y="1457" type="line"/>
    </contour>
    <contour>
      <point x="-1" y="1457" type="line"/>
      <point x="-49" y="1457" type="line"/>
      <point x="113" y="873" type="line"/>
      <point x="150" y="873" type="line"/>
      <point x="150" y="916" type="line"/>
    </contour>
    <contour>
      <point x="470" y="916" type="line"/>
      <point x="470" y="873" type="line"/>
      <point x="506" y="873" type="line"/>
      <point x="669" y="1457" type="line"/>
      <point x="621" y="1457" type="line"/>
    </contour>
    <contour>
      <point x="332" y="1457" type="line"/>
      <point x="307" y="1457" type="line"/>
      <point x="307" y="1379" type="line"/>
      <point x="451" y="873" type="line"/>
      <point x="487" y="873" type="line"/>
      <point x="487" y="916" type="line"/>
    </contour>
    <contour>
      <point x="134" y="44" type="line"/>
      <point x="134" y="0" type="line"/>
      <point x="169" y="0" type="line"/>
      <point x="314" y="506" type="line"/>
      <point x="314" y="585" type="line"/>
      <point x="288" y="585" type="line"/>
    </contour>
    <contour>
      <point x="-1" y="585" type="line"/>
      <point x="-49" y="585" type="line"/>
      <point x="113" y="0" type="line"/>
      <point x="150" y="0" type="line"/>
      <point x="150" y="44" type="line"/>
    </contour>
    <contour>
      <point x="470" y="44" type="line"/>
      <point x="470" y="0" type="line"/>
      <point x="506" y="0" type="line"/>
      <point x="669" y="585" type="line"/>
      <point x="621" y="585" type="line"/>
    </contour>
    <contour>
      <point x="332" y="585" type="line"/>
      <point x="307" y="585" type="line"/>
      <point x="307" y="506" type="line"/>
      <point x="451" y="0" type="line"/>
      <point x="487" y="0" type="line"/>
      <point x="487" y="44" type="line"/>
    </contour>
  </outline>
</glyph>
<glyph name="hturnedfishhookandtail" format="2">
  <advance height="2479" width="1319"/>
  <unicode hex="02AF"/>
  <outline>
    <contour>
      <point x="128" y="1089" type="line"/>
      <point x="154" y="1092"/>
      <point x="180" y="1094"/>
      <point x="199" y="1094" type="curve" smooth="yes"/>
      <point x="303" y="1094"/>
      <point x="337" y="1049"/>
      <point x="337" y="925" type="curve" smooth="yes"/>
      <point x="337" y="367" type="line" smooth="yes"/>
      <point x="337" y="143"/>
      <point x="495" y="-15"/>
      <point x="719" y="-15" type="curve" smooth="yes"/>
      <point x="873" y="-15"/>
      <point x="1001" y="61"/>
      <point x="1053" y="177" type="curve"/>
      <point x="1059" y="177" type="line"/>
      <point x="1059" y="-201" type="line" smooth="yes"/>
      <point x="1059" y="-352"/>
      <point x="1116" y="-416"/>
      <point x="1244" y="-416" type="curve" smooth="yes"/>
      <point x="1264" y="-416"/>
      <point x="1290" y="-415"/>
      <point x="1315" y="-412" type="curve"/>
      <point x="1315" y="-365" type="line"/>
      <point x="1290" y="-368"/>
      <point x="1263" y="-369"/>
      <point x="1244" y="-369" type="curve" smooth="yes"/>
      <point x="1142" y="-369"/>
      <point x="1105" y="-324"/>
      <point x="1105" y="-201" type="curve" smooth="yes"/>
      <point x="1105" y="1117" type="line"/>
      <point x="1059" y="1117" type="line"/>
      <point x="1059" y="367" type="line" smooth="yes"/>
      <point x="1059" y="172"/>
      <point x="916" y="32"/>
      <point x="719" y="32" type="curve" smooth="yes"/>
      <point x="521" y="32"/>
      <point x="384" y="169"/>
      <point x="384" y="367" type="curve" smooth="yes"/>
      <point x="384" y="925" type="line" smooth="yes"/>
      <point x="384" y="1076"/>
      <point x="327" y="1140"/>
      <point x="199" y="1140" type="curve" smooth="yes"/>
      <point x="180" y="1140"/>
      <point x="153" y="1139"/>
      <point x="128" y="1136" type="curve"/>
    </contour>
  </outline>
</glyph>
<glyph name="rturnedmod" format="2">
  <advance height="2479" width="445"/>
  <unicode hex="02B4"/>
  <outline>
    <contour>
      <point x="67" y="643" type="line"/>
      <point x="87" y="639"/>
      <point x="105" y="637"/>
      <point x="128" y="637" type="curve" smooth="yes"/>
      <point x="287" y="637"/>
      <point x="367" y="765"/>
      <point x="368" y="1018" type="curve"/>
      <point x="337" y="1018" type="line"/>
      <point x="337" y="799"/>
      <point x="264" y="684"/>
      <point x="125" y="684" type="curve" smooth="yes"/>
      <point x="108" y="684"/>
      <point x="89" y="686"/>
      <point x="67" y="689" type="curve"/>
    </contour>
    <contour>
      <point x="337" y="887" type="line"/>
      <point x="345" y="652" type="line"/>
      <point x="384" y="652" type="line"/>
      <point x="384" y="1446" type="line"/>
      <point x="337" y="1446" type="line"/>
    </contour>
  </outline>
</glyph>
<glyph name="rhookturnedmod" format="2">
  <advance height="2479" width="689"/>
  <unicode hex="02B5"/>
  <outline>
    <contour>
      <point x="116" y="679" type="line"/>
      <point x="137" y="676"/>
      <point x="153" y="675"/>
      <point x="170" y="675" type="curve" smooth="yes"/>
      <point x="271" y="675"/>
      <point x="351" y="731"/>
      <point x="385" y="823" type="curve"/>
      <point x="380" y="906" type="line"/>
      <point x="356" y="796"/>
      <point x="273" y="721"/>
      <point x="164" y="721" type="curve" smooth="yes"/>
      <point x="150" y="721"/>
      <point x="133" y="723"/>
      <point x="116" y="727" type="curve"/>
    </contour>
    <contour>
      <point x="579" y="335" type="curve"/>
      <point x="579" y="381" type="line"/>
      <point x="561" y="377"/>
      <point x="544" y="375"/>
      <point x="527" y="375" type="curve" smooth="yes"/>
      <point x="463" y="375"/>
      <point x="425" y="399"/>
      <point x="425" y="492" type="curve" smooth="yes"/>
      <point x="425" y="1446" type="line"/>
      <point x="378" y="1446" type="line"/>
      <point x="378" y="492" type="line" smooth="yes"/>
      <point x="378" y="371"/>
      <point x="435" y="329"/>
      <point x="527" y="329" type="curve" smooth="yes"/>
      <point x="544" y="329"/>
      <point x="561" y="330"/>
    </contour>
  </outline>
</glyph>
<glyph name="commaturnedmod" format="2">
  <advance height="2479" width="487"/>
  <unicode hex="02BB"/>
  <outline>
    <contour>
      <point x="160" y="993" type="line"/>
      <point x="207" y="993" type="line"/>
      <point x="207" y="1149" type="line" smooth="yes"/>
      <point x="207" y="1310"/>
      <point x="272" y="1423"/>
      <point x="369" y="1524" type="curve"/>
      <point x="343" y="1558" type="line"/>
      <point x="227" y="1444"/>
      <point x="160" y="1315"/>
      <point x="160" y="1143" type="curve" smooth="yes"/>
    </contour>
  </outline>
</glyph>
<glyph name="ringhalfright" format="2">
  <advance height="2479" width="308"/>
  <unicode hex="02BE"/>
  <anchor x="125" y="1187" name="_rhalfring"/>
  <outline>
    <contour>
      <point x="23" y="1111" type="line"/>
      <point x="140" y="1111"/>
      <point x="230" y="1198"/>
      <point x="230" y="1311" type="curve" smooth="yes"/>
      <point x="230" y="1425"/>
      <point x="142" y="1510"/>
      <point x="23" y="1510" type="curve"/>
      <point x="23" y="1463" type="line"/>
      <point x="116" y="1463"/>
      <point x="183" y="1399"/>
      <point x="183" y="1311" type="curve" smooth="yes"/>
      <point x="183" y="1223"/>
      <point x="115" y="1158"/>
      <point x="23" y="1158" type="curve"/>
    </contour>
  </outline>
</glyph>
<glyph name="ringhalfleft" format="2">
  <advance height="2479" width="308"/>
  <unicode hex="02BF"/>
  <outline>
    <contour>
      <point x="285" y="1111" type="curve"/>
      <point x="285" y="1158" type="line"/>
      <point x="193" y="1158"/>
      <point x="125" y="1223"/>
      <point x="125" y="1311" type="curve" smooth="yes"/>
      <point x="125" y="1399"/>
      <point x="192" y="1463"/>
      <point x="285" y="1463" type="curve"/>
      <point x="285" y="1510" type="line"/>
      <point x="167" y="1510"/>
      <point x="79" y="1425"/>
      <point x="79" y="1311" type="curve" smooth="yes"/>
      <point x="79" y="1198"/>
      <point x="168" y="1111"/>
    </contour>
  </outline>
</glyph>
<glyph name="glottalstopmod" format="2">
  <advance height="2479" width="742"/>
  <unicode hex="02C0"/>
  <outline>
    <contour>
      <point x="102" y="1539" type="curve"/>
      <point x="148" y="1539" type="line"/>
      <point x="169" y="1675"/>
      <point x="260" y="1760"/>
      <point x="387" y="1760" type="curve" smooth="yes"/>
      <point x="518" y="1760"/>
      <point x="593" y="1672"/>
      <point x="593" y="1519" type="curve" smooth="yes"/>
      <point x="593" y="1274" type="line" smooth="yes"/>
      <point x="590" y="1105"/>
      <point x="528" y="1031"/>
      <point x="393" y="1033" type="curve"/>
      <point x="387" y="1033" type="line"/>
      <point x="387" y="986" type="line"/>
      <point x="391" y="986" type="line"/>
      <point x="556" y="987"/>
      <point x="640" y="1086"/>
      <point x="640" y="1280" type="curve" smooth="yes"/>
      <point x="640" y="1511" type="line" smooth="yes"/>
      <point x="640" y="1696"/>
      <point x="548" y="1805"/>
      <point x="390" y="1807" type="curve" smooth="yes"/>
      <point x="236" y="1808"/>
      <point x="122" y="1702"/>
    </contour>
    <contour>
      <point x="372" y="1033" type="line"/>
      <point x="372" y="652" type="line"/>
      <point x="419" y="652" type="line"/>
      <point x="419" y="1033" type="line"/>
    </contour>
  </outline>
</glyph>
<glyph name="arrowheadrightmod" format="2">
  <advance height="2479" width="919"/>
  <unicode hex="02C3"/>
  <outline>
    <contour>
      <point x="838" y="940" type="line"/>
      <point x="838" y="988" type="line"/>
      <point x="131" y="1313" type="line"/>
      <point x="131" y="1263" type="line"/>
      <point x="759" y="973" type="line"/>
    </contour>
    <contour>
      <point x="131" y="611" type="line"/>
      <point x="838" y="937" type="line"/>
      <point x="838" y="985" type="line"/>
      <point x="759" y="951" type="line"/>
      <point x="131" y="662" type="line"/>
    </contour>
  </outline>
</glyph>
<glyph name="arrowheadupmod" format="2">
  <advance height="2479" width="851"/>
  <unicode hex="02C4"/>
  <outline>
    <contour>
      <point x="726" y="596" type="line"/>
      <point x="777" y="596" type="line"/>
      <point x="451" y="1303" type="line"/>
      <point x="403" y="1303" type="line"/>
      <point x="436" y="1225" type="line"/>
    </contour>
    <contour>
      <point x="74" y="596" type="line"/>
      <point x="125" y="596" type="line"/>
      <point x="415" y="1225" type="line"/>
      <point x="448" y="1303" type="line"/>
      <point x="400" y="1303" type="line"/>
    </contour>
  </outline>
</glyph>
<glyph name="caron" format="2">
  <advance height="2479" width="861"/>
  <unicode hex="02C7"/>
  <anchor x="431" y="1289" name="_top"/>
  <outline>
    <contour>
      <point x="212" y="1536" type="line"/>
      <point x="157" y="1536" type="line"/>
      <point x="157" y="1530" type="line"/>
      <point x="425" y="1257" type="line"/>
      <point x="436" y="1257" type="line"/>
      <point x="704" y="1530" type="line"/>
      <point x="704" y="1536" type="line"/>
      <point x="649" y="1536" type="line"/>
      <point x="431" y="1312" type="line"/>
    </contour>
  </outline>
</glyph>
<glyph name="verticallinelowmod" format="2">
  <advance height="2479" width="244"/>
  <unicode hex="02CC"/>
  <outline>
    <contour>
      <point x="145" y="-49" type="line"/>
      <point x="99" y="-49" type="line"/>
      <point x="99" y="-439" type="line"/>
      <point x="145" y="-439" type="line"/>
    </contour>
  </outline>
</glyph>
<glyph name="plusmod" format="2">
  <advance height="2479" width="665"/>
  <unicode hex="02D6"/>
  <outline>
    <contour>
      <point x="356" y="495" type="line"/>
      <point x="310" y="495" type="line"/>
      <point x="310" y="186" type="line"/>
      <point x="356" y="186" type="line"/>
    </contour>
    <contour>
      <point x="175" y="364" type="line"/>
      <point x="175" y="317" type="line"/>
      <point x="492" y="317" type="line"/>
      <point x="492" y="364" type="line"/>
    </contour>
  </outline>
</glyph>
<glyph name="ogonek" format="2">
  <advance height="2479" width="492"/>
  <unicode hex="02DB"/>
  <anchor x="272" y="0" name="_ogonek"/>
  <outline>
    <contour>
      <point x="237" y="-442" type="curve" smooth="yes"/>
      <point x="289" y="-442"/>
      <point x="329" y="-426"/>
      <point x="371" y="-396" type="curve"/>
      <point x="343" y="-358" type="line"/>
      <point x="308" y="-383"/>
      <point x="280" y="-396"/>
      <point x="237" y="-396" type="curve" smooth="yes"/>
      <point x="163" y="-396"/>
      <point x="112" y="-358"/>
      <point x="112" y="-272" type="curve" smooth="yes"/>
      <point x="112" y="-181"/>
      <point x="172" y="-100"/>
      <point x="272" y="0" type="curve"/>
      <point x="225" y="0" type="line"/>
      <point x="130" y="-89"/>
      <point x="65" y="-166"/>
      <point x="65" y="-272" type="curve" smooth="yes"/>
      <point x="65" y="-383"/>
      <point x="137" y="-442"/>
    </contour>
  </outline>
</glyph>
<glyph name="tilde" format="2">
  <advance height="2479" width="1018"/>
  <unicode hex="02DC"/>
  <anchor x="509" y="1303" name="_top"/>
  <anchor x="509" y="1676" name="top"/>
  <outline>
    <contour>
      <point x="221" y="1312" type="line"/>
      <point x="231" y="1378"/>
      <point x="291" y="1425"/>
      <point x="367" y="1425" type="curve" smooth="yes"/>
      <point x="490" y="1425"/>
      <point x="527" y="1306"/>
      <point x="652" y="1306" type="curve" smooth="yes"/>
      <point x="740" y="1306"/>
      <point x="823" y="1366"/>
      <point x="844" y="1455" type="curve"/>
      <point x="797" y="1466" type="line"/>
      <point x="782" y="1398"/>
      <point x="718" y="1353"/>
      <point x="652" y="1353" type="curve" smooth="yes"/>
      <point x="545" y="1353"/>
      <point x="501" y="1472"/>
      <point x="367" y="1472" type="curve" smooth="yes"/>
      <point x="268" y="1472"/>
      <point x="188" y="1409"/>
      <point x="175" y="1318" type="curve"/>
    </contour>
  </outline>
</glyph>
<glyph name="crossaccentmod" format="2">
  <advance height="2479" width="673"/>
  <unicode hex="02DF"/>
  <outline>
    <contour>
      <point x="182" y="1191" type="line"/>
      <point x="522" y="1540" type="line"/>
      <point x="490" y="1575" type="line"/>
      <point x="150" y="1223" type="line"/>
    </contour>
    <contour>
      <point x="493" y="1188" type="line"/>
      <point x="525" y="1222" type="line"/>
      <point x="188" y="1577" type="line"/>
      <point x="156" y="1542" type="line"/>
    </contour>
  </outline>
</glyph>
<glyph name="smod" format="2">
  <advance height="2479" width="678"/>
  <unicode hex="02E2"/>
  <outline>
    <contour>
      <point x="585" y="1329" type="line"/>
      <point x="550" y="1440"/>
      <point x="471" y="1501"/>
      <point x="352" y="1501" type="curve" smooth="yes"/>
      <point x="215" y="1501"/>
      <point x="113" y="1420"/>
      <point x="113" y="1300" type="curve" smooth="yes"/>
      <point x="113" y="1207"/>
      <point x="175" y="1140"/>
      <point x="291" y="1111" type="curve" smooth="yes"/>
      <point x="410" y="1082" type="line" smooth="yes"/>
      <point x="503" y="1059"/>
      <point x="547" y="1007"/>
      <point x="547" y="934" type="curve" smooth="yes"/>
      <point x="547" y="838"/>
      <point x="463" y="771"/>
      <point x="337" y="771" type="curve" smooth="yes"/>
      <point x="218" y="771"/>
      <point x="151" y="832"/>
      <point x="131" y="928" type="curve"/>
      <point x="87" y="916" type="line"/>
      <point x="113" y="797"/>
      <point x="201" y="730"/>
      <point x="337" y="730" type="curve" smooth="yes"/>
      <point x="489" y="730"/>
      <point x="593" y="815"/>
      <point x="593" y="937" type="curve" smooth="yes"/>
      <point x="593" y="1027"/>
      <point x="535" y="1097"/>
      <point x="422" y="1126" type="curve" smooth="yes"/>
      <point x="305" y="1155" type="line" smooth="yes"/>
      <point x="201" y="1181"/>
      <point x="160" y="1233"/>
      <point x="160" y="1303" type="curve" smooth="yes"/>
      <point x="160" y="1396"/>
      <point x="241" y="1457"/>
      <point x="352" y="1457" type="curve" smooth="yes"/>
      <point x="451" y="1457"/>
      <point x="515" y="1408"/>
      <point x="544" y="1318" type="curve"/>
    </contour>
  </outline>
</glyph>
<glyph name="xmod" format="2">
  <advance height="2479" width="687"/>
  <unicode hex="02E3"/>
  <outline>
    <contour>
      <point x="143" y="1489" type="line"/>
      <point x="90" y="1489" type="line"/>
      <point x="317" y="1129" type="line"/>
      <point x="73" y="745" type="line"/>
      <point x="125" y="745" type="line"/>
      <point x="343" y="1091" type="line"/>
      <point x="561" y="745" type="line"/>
      <point x="614" y="745" type="line"/>
      <point x="369" y="1129" type="line"/>
      <point x="599" y="1489" type="line"/>
      <point x="547" y="1489" type="line"/>
      <point x="343" y="1167" type="line"/>
    </contour>
  </outline>
</glyph>
<glyph name="glottalstopreversedsuperior" format="2">
  <advance height="2479" width="793"/>
  <unicode hex="02E4"/>
  <outline>
    <contour>
      <point x="687" y="1178" type="curve"/>
      <point x="733" y="1178" type="line"/>
      <point x="711" y="1366"/>
      <point x="596" y="1466"/>
      <point x="404" y="1466" type="curve" smooth="yes"/>
      <point x="196" y="1466"/>
      <point x="61" y="1337"/>
      <point x="61" y="1130" type="curve" smooth="yes"/>
      <point x="61" y="935"/>
      <point x="191" y="809"/>
      <point x="384" y="810" type="curve"/>
      <point x="401" y="810" type="line"/>
      <point x="401" y="855" type="line" name="hr00"/>
      <point x="393" y="855" type="line"/>
      <point x="217" y="854"/>
      <point x="108" y="957"/>
      <point x="108" y="1130" type="curve" smooth="yes"/>
      <point x="108" y="1311"/>
      <point x="222" y="1420"/>
      <point x="404" y="1420" type="curve" smooth="yes"/>
      <point x="569" y="1420"/>
      <point x="665" y="1337"/>
    </contour>
    <contour>
      <point x="410" y="652" type="line"/>
      <point x="410" y="855" type="line"/>
      <point x="364" y="855" type="line"/>
      <point x="364" y="652" type="line"/>
    </contour>
  </outline>
</glyph>
<glyph name="tonebarmidmod" format="2">
  <advance height="2479" width="676"/>
  <unicode hex="02E7"/>
  <outline>
    <contour>
      <point x="500" y="1457" type="line"/>
      <point x="454" y="1457" type="line"/>
      <point x="454" y="0" type="line"/>
      <point x="500" y="0" type="line"/>
    </contour>
    <contour>
      <point x="483" y="755" type="line"/>
      <point x="175" y="755" type="line"/>
      <point x="175" y="708" type="line"/>
      <point x="483" y="708" type="line"/>
    </contour>
  </outline>
</glyph>
<glyph name="tonebarextralowmod" format="2">
  <advance height="2479" width="676"/>
  <unicode hex="02E9"/>
  <outline>
    <contour>
      <point x="500" y="1457" type="line"/>
      <point x="454" y="1457" type="line"/>
      <point x="454" y="0" type="line"/>
      <point x="500" y="0" type="line"/>
    </contour>
    <contour>
      <point x="483" y="47" type="line"/>
      <point x="175" y="47" type="line"/>
      <point x="175" y="0" type="line"/>
      <point x="483" y="0" type="line"/>
    </contour>
  </outline>
</glyph>
<glyph name="yangdepartingtone" format="2">
  <advance height="2479" width="515"/>
  <unicode hex="02EB"/>
  <outline>
    <contour>
      <point x="419" y="486" type="line"/>
      <point x="140" y="486" type="line"/>
      <point x="140" y="439" type="line"/>
      <point x="419" y="439" type="line"/>
    </contour>
    <contour>
      <point x="143" y="908" type="line"/>
      <point x="96" y="908" type="line"/>
      <point x="96" y="0" type="line"/>
      <point x="143" y="0" type="line"/>
    </contour>
  </outline>
</glyph>
<glyph name="unaspiratedmod" format="2">
  <advance height="2479" width="846"/>
  <unicode hex="02ED"/>
  <outline>
    <contour>
      <point x="745" y="1484" type="line"/>
      <point x="108" y="1484" type="line"/>
      <point x="108" y="1437" type="line"/>
      <point x="745" y="1437" type="line"/>
    </contour>
    <contour>
      <point x="745" y="1265" type="line"/>
      <point x="108" y="1265" type="line"/>
      <point x="108" y="1219" type="line"/>
      <point x="745" y="1219" type="line"/>
    </contour>
  </outline>
</glyph>
<glyph name="lowleftarrowheadmod" format="2">
  <advance height="2479" width="668"/>
  <unicode hex="02F1"/>
  <outline>
    <contour>
      <point x="100" y="-327" type="line"/>
      <point x="255" y="-278" type="line"/>
      <point x="566" y="-156" type="line"/>
      <point x="566" y="-106" type="line"/>
      <point x="100" y="-288" type="line"/>
    </contour>
    <contour>
      <point x="566" y="-505" type="line"/>
      <point x="566" y="-455" type="line"/>
      <point x="255" y="-342" type="line"/>
      <point x="100" y="-294" type="line"/>
      <point x="100" y="-335" type="line"/>
    </contour>
  </outline>
</glyph>
<glyph name="lowrightarrowheadmod" format="2">
  <advance height="2479" width="668"/>
  <unicode hex="02F2"/>
  <outline>
    <contour>
      <point x="566" y="-327" type="line"/>
      <point x="566" y="-288" type="line"/>
      <point x="100" y="-106" type="line"/>
      <point x="100" y="-156" type="line"/>
      <point x="412" y="-278" type="line"/>
    </contour>
    <contour>
      <point x="100" y="-505" type="line"/>
      <point x="566" y="-335" type="line"/>
      <point x="566" y="-294" type="line"/>
      <point x="412" y="-342" type="line"/>
      <point x="100" y="-455" type="line"/>
    </contour>
  </outline>
</glyph>
<glyph name="beginhightonemod" format="2">
  <advance height="2479" width="325"/>
  <unicode hex="02F9"/>
  <outline>
    <contour>
      <point x="12" y="1210" type="line"/>
      <point x="58" y="1210" type="line"/>
      <point x="58" y="1536" type="line"/>
      <point x="12" y="1536" type="line"/>
    </contour>
    <contour>
      <point x="12" y="1489" type="line"/>
      <point x="314" y="1489" type="line"/>
      <point x="314" y="1536" type="line"/>
      <point x="12" y="1536" type="line"/>
    </contour>
  </outline>
</glyph>
<glyph name="endhightonemod" format="2">
  <advance height="2479" width="442"/>
  <unicode hex="02FA"/>
  <outline>
    <contour>
      <point x="326" y="1210" type="line"/>
      <point x="372" y="1210" type="line"/>
      <point x="372" y="1536" type="line"/>
      <point x="70" y="1536" type="line"/>
      <point x="70" y="1489" type="line"/>
      <point x="326" y="1489" type="line"/>
    </contour>
  </outline>
</glyph>
<glyph name="openshelfmod" format="2">
  <advance height="2479" width="842"/>
  <unicode hex="02FE"/>
  <outline>
    <contour>
      <point x="771" y="-448" type="line"/>
      <point x="87" y="-448" type="line"/>
      <point x="87" y="-495" type="line"/>
      <point x="771" y="-495" type="line"/>
    </contour>
    <contour>
      <point x="119" y="-125" type="line"/>
      <point x="73" y="-125" type="line"/>
      <point x="73" y="-495" type="line"/>
      <point x="119" y="-495" type="line"/>
    </contour>
  </outline>
</glyph>
<glyph name="lowleftarrowmod" format="2">
  <advance height="2479" width="684"/>
  <unicode hex="02FF"/>
  <outline>
    <contour>
      <point x="719" y="-111" type="line"/>
      <point x="15" y="-111" type="line"/>
      <point x="15" y="-157" type="line"/>
      <point x="719" y="-157" type="line"/>
    </contour>
    <contour>
      <point x="262" y="169" type="line"/>
      <point x="-35" y="-134" type="line"/>
      <point x="12" y="-153" type="line"/>
      <point x="327" y="169" type="line"/>
    </contour>
    <contour>
      <point x="327" y="-436" type="line"/>
      <point x="6" y="-109" type="line"/>
      <point x="-35" y="-134" type="line"/>
      <point x="262" y="-436" type="line"/>
    </contour>
  </outline>
</glyph>
<glyph name="gravecomb" format="2">
  <advance height="2479"/>
  <unicode hex="0300"/>
  <outline>
    <contour>
      <point x="-608" y="1536" type="line"/>
      <point x="-679" y="1536" type="line"/>
      <point x="-479" y="1254" type="line"/>
      <point x="-425" y="1254" type="line"/>
    </contour>
  </outline>
</glyph>
<glyph name="caroncomb" format="2">
  <advance height="2479"/>
  <unicode hex="030C"/>
  <anchor x="-605" y="1199" name="_top"/>
  <outline>
    <contour>
      <point x="-609" y="1257" type="line"/>
      <point x="-598" y="1257" type="line"/>
      <point x="-330" y="1487" type="line"/>
      <point x="-330" y="1492" type="line"/>
      <point x="-388" y="1492" type="line"/>
      <point x="-604" y="1309" type="line"/>
      <point x="-817" y="1492" type="line"/>
      <point x="-877" y="1492" type="line"/>
      <point x="-877" y="1487" type="line"/>
    </contour>
  </outline>
</glyph>
<glyph name="breveinvertedcomb" format="2">
  <advance height="2479"/>
  <unicode hex="0311"/>
  <anchor x="-599" y="1210" name="_top"/>
  <outline>
    <contour>
      <point x="-758" y="1286" type="curve"/>
      <point x="-711" y="1286" type="line"/>
      <point x="-711" y="1363"/>
      <point x="-671" y="1405"/>
      <point x="-595" y="1405" type="curve" smooth="yes"/>
      <point x="-519" y="1405"/>
      <point x="-479" y="1363"/>
      <point x="-479" y="1286" type="curve"/>
      <point x="-432" y="1286" type="line"/>
      <point x="-432" y="1388"/>
      <point x="-493" y="1452"/>
      <point x="-595" y="1452" type="curve" smooth="yes"/>
      <point x="-697" y="1452"/>
      <point x="-758" y="1388"/>
    </contour>
  </outline>
</glyph>
<glyph name="commaturnedabovecomb" format="2">
  <advance height="2479"/>
  <unicode hex="0312"/>
  <anchor x="-541" y="1062" name="_marktop"/>
  <anchor x="-541" y="1684" name="mkmktop"/>
  <anchor x="-480" y="1245" name="parent_top"/>
  <outline>
    <contour>
      <point x="-567" y="993" type="line"/>
      <point x="-521" y="993" type="line"/>
      <point x="-521" y="1149" type="line" smooth="yes"/>
      <point x="-521" y="1310"/>
      <point x="-455" y="1423"/>
      <point x="-358" y="1524" type="curve"/>
      <point x="-384" y="1558" type="line"/>
      <point x="-500" y="1444"/>
      <point x="-567" y="1315"/>
      <point x="-567" y="1143" type="curve" smooth="yes"/>
    </contour>
  </outline>
</glyph>
<glyph name="horncomb" format="2">
  <advance height="2479"/>
  <unicode hex="031B"/>
  <outline>
    <contour>
      <point x="-108" y="1274" type="curve"/>
      <point x="-154" y="1274" type="line"/>
      <point x="-157" y="1139"/>
      <point x="-169" y="1084"/>
      <point x="-208" y="1015" type="curve"/>
      <point x="-183" y="995" type="line"/>
      <point x="-132" y="1041"/>
      <point x="-112" y="1113"/>
    </contour>
  </outline>
</glyph>
<glyph name="palatalhookcomb" format="2">
  <advance height="2479"/>
  <unicode hex="0321"/>
  <outline>
    <contour>
      <point x="-404" y="61" type="line"/>
      <point x="-403" y="-265" type="line" smooth="yes"/>
      <point x="-402" y="-364"/>
      <point x="-434" y="-410"/>
      <point x="-503" y="-410" type="curve" smooth="yes"/>
      <point x="-516" y="-410"/>
      <point x="-528" y="-409"/>
      <point x="-538" y="-406" type="curve"/>
      <point x="-538" y="-447" type="line"/>
      <point x="-528" y="-451"/>
      <point x="-508" y="-454"/>
      <point x="-490" y="-454" type="curve" smooth="yes"/>
      <point x="-405" y="-454"/>
      <point x="-358" y="-388"/>
      <point x="-358" y="-265" type="curve" smooth="yes"/>
      <point x="-358" y="61" type="line"/>
    </contour>
  </outline>
</glyph>
<glyph name="commaaccentcomb" format="2">
  <advance height="2479"/>
  <unicode hex="0326"/>
  <anchor x="-589" y="0" name="_bottom"/>
  <outline>
    <contour>
      <point x="-566" y="-145" type="line"/>
      <point x="-612" y="-145" type="line"/>
      <point x="-612" y="-228" type="line" smooth="yes"/>
      <point x="-612" y="-323"/>
      <point x="-653" y="-401"/>
      <point x="-703" y="-477" type="curve"/>
      <point x="-663" y="-503" type="line"/>
      <point x="-596" y="-399"/>
      <point x="-566" y="-316"/>
      <point x="-566" y="-228" type="curve" smooth="yes"/>
    </contour>
  </outline>
</glyph>
<glyph name="strokelongcomb" format="2">
  <advance height="2479"/>
  <unicode hex="0336"/>
  <outline>
    <contour>
      <point x="15" y="582" type="line"/>
      <point x="-1018" y="582" type="line"/>
      <point x="-1018" y="535" type="line"/>
      <point x="15" y="535" type="line"/>
    </contour>
  </outline>
</glyph>
